  0
SECTION
  2
HEADER
  9
$ACADVER
  1
AC1027
  9
$ACADMAINTVER
 70
   125
  9
$DWGCODEPAGE
  3
ANSI_936
  9
$LASTSAVEDBY
  1
yatishkale
  9
$REQUIREDVERSIONS
160
                 0
  9
$INSBASE
 10
0.0
 20
0.0
 30
0.0
  9
$EXTMIN
 10
0.0
 20
0.0
 30
0.0
  9
$EXTMAX
 10
210.0
 20
297.0
 30
0.0
  9
$LIMMIN
 10
0.0
 20
0.0
  9
$LIMMAX
 10
210.0
 20
297.0
  9
$ORTHOMODE
 70
     0
  9
$REGENMODE
 70
     1
  9
$FILLMODE
 70
     1
  9
$QTEXTMODE
 70
     0
  9
$MIRRTEXT
 70
     0
  9
$LTSCALE
 40
0.75
  9
$ATTMODE
 70
     1
  9
$TEXTSIZE
 40
3.5
  9
$TRACEWID
 40
1.0
  9
$TEXTSTYLE
  7
Standard
  9
$CLAYER
  8
0
  9
$CELTYPE
  6
ByLayer
  9
$CECOLOR
 62
   256
  9
$CELTSCALE
 40
1.0
  9
$DISPSILH
 70
     0
  9
$DIMSCALE
 40
1.0
  9
$DIMASZ
 40
3.5
  9
$DIMEXO
 40
2.1
  9
$DIMDLI
 40
10.5
  9
$DIMRND
 40
0.0
  9
$DIMDLE
 40
0.0
  9
$DIMEXE
 40
2.1
  9
$DIMTP
 40
0.1
  9
$DIMTM
 40
0.1
  9
$DIMTXT
 40
3.5
  9
$DIMCEN
 40
0.0
  9
$DIMTSZ
 40
0.0
  9
$DIMTOL
 70
     0
  9
$DIMLIM
 70
     0
  9
$DIMTIH
 70
     0
  9
$DIMTOH
 70
     0
  9
$DIMSE1
 70
     0
  9
$DIMSE2
 70
     0
  9
$DIMTAD
 70
     1
  9
$DIMZIN
 70
    12
  9
$DIMBLK
  1

  9
$DIMASO
 70
     1
  9
$DIMSHO
 70
     1
  9
$DIMPOST
  1

  9
$DIMAPOST
  1

  9
$DIMALT
 70
     0
  9
$DIMALTD
 70
     2
  9
$DIMALTF
 40
0.03937
  9
$DIMLFAC
 40
1.0
  9
$DIMTOFL
 70
     1
  9
$DIMTVP
 40
0.0
  9
$DIMTIX
 70
     0
  9
$DIMSOXD
 70
     0
  9
$DIMSAH
 70
     0
  9
$DIMBLK1
  1

  9
$DIMBLK2
  1

  9
$DIMSTYLE
  2
Dim-ISO-25
  9
$DIMCLRD
 70
     0
  9
$DIMCLRE
 70
     0
  9
$DIMCLRT
 70
     0
  9
$DIMTFAC
 40
0.714286
  9
$DIMGAP
 40
1.4
  9
$DIMJUST
 70
     0
  9
$DIMSD1
 70
     0
  9
$DIMSD2
 70
     0
  9
$DIMTOLJ
 70
     0
  9
$DIMTZIN
 70
    12
  9
$DIMALTZ
 70
    12
  9
$DIMALTTZ
 70
    12
  9
$DIMUPT
 70
     0
  9
$DIMDEC
 70
     2
  9
$DIMTDEC
 70
     2
  9
$DIMALTU
 70
     2
  9
$DIMALTTD
 70
     4
  9
$DIMTXSTY
  7
Standard
  9
$DIMAUNIT
 70
     0
  9
$DIMADEC
 70
     2
  9
$DIMALTRND
 40
0.0
  9
$DIMAZIN
 70
     3
  9
$DIMDSEP
 70
    46
  9
$DIMATFIT
 70
     3
  9
$DIMFRAC
 70
     0
  9
$DIMLDRBLK
  1

  9
$DIMLUNIT
 70
     2
  9
$DIMLWD
 70
    -2
  9
$DIMLWE
 70
    -2
  9
$DIMTMOVE
 70
     0
  9
$DIMFXL
 40
1.0
  9
$DIMFXLON
 70
     0
  9
$DIMJOGANG
 40
0.785398
  9
$DIMTFILL
 70
     0
  9
$DIMTFILLCLR
 70
     0
  9
$DIMARCSYM
 70
     0
  9
$DIMLTYPE
  6

  9
$DIMLTEX1
  6

  9
$DIMLTEX2
  6

  9
$DIMTXTDIRECTION
 70
     0
  9
$LUNITS
 70
     2
  9
$LUPREC
 70
     4
  9
$SKETCHINC
 40
1.0
  9
$FILLETRAD
 40
0.0
  9
$AUNITS
 70
     0
  9
$AUPREC
 70
     0
  9
$MENU
  1
.
  9
$ELEVATION
 40
0.0
  9
$PELEVATION
 40
0.0
  9
$THICKNESS
 40
0.0
  9
$LIMCHECK
 70
     0
  9
$CHAMFERA
 40
0.0
  9
$CHAMFERB
 40
0.0
  9
$CHAMFERC
 40
0.0
  9
$CHAMFERD
 40
0.0
  9
$SKPOLY
 70
     0
  9
$TDCREATE
 40
2460165.614687500
  9
$TDUCREATE
 40
2460165.281354167
  9
$TDUPDATE
 40
2460165.614687500
  9
$TDUUPDATE
 40
2460165.281354167
  9
$TDINDWG
 40
0.0000000000
  9
$TDUSRTIMER
 40
0.0000000000
  9
$USRTIMER
 70
     1
  9
$ANGBASE
 50
0.0
  9
$ANGDIR
 70
     0
  9
$PDMODE
 70
     0
  9
$PDSIZE
 40
0.0
  9
$PLINEWID
 40
0.0
  9
$SPLFRAME
 70
     0
  9
$SPLINETYPE
 70
     6
  9
$SPLINESEGS
 70
     8
  9
$HANDSEED
  5
3B9
  9
$SURFTAB1
 70
     6
  9
$SURFTAB2
 70
     6
  9
$SURFTYPE
 70
     6
  9
$SURFU
 70
     6
  9
$SURFV
 70
     6
  9
$UCSBASE
  2

  9
$UCSNAME
  2

  9
$UCSORG
 10
0.0
 20
0.0
 30
0.0
  9
$UCSXDIR
 10
1.0
 20
0.0
 30
0.0
  9
$UCSYDIR
 10
0.0
 20
1.0
 30
0.0
  9
$UCSORTHOREF
  2

  9
$UCSORTHOVIEW
 70
     0
  9
$UCSORGTOP
 10
0.0
 20
0.0
 30
0.0
  9
$UCSORGBOTTOM
 10
0.0
 20
0.0
 30
0.0
  9
$UCSORGLEFT
 10
0.0
 20
0.0
 30
0.0
  9
$UCSORGRIGHT
 10
0.0
 20
0.0
 30
0.0
  9
$UCSORGFRONT
 10
0.0
 20
0.0
 30
0.0
  9
$UCSORGBACK
 10
0.0
 20
0.0
 30
0.0
  9
$PUCSBASE
  2

  9
$PUCSNAME
  2

  9
$PUCSORG
 10
0.0
 20
0.0
 30
0.0
  9
$PUCSXDIR
 10
1.0
 20
0.0
 30
0.0
  9
$PUCSYDIR
 10
0.0
 20
1.0
 30
0.0
  9
$PUCSORTHOREF
  2

  9
$PUCSORTHOVIEW
 70
     0
  9
$PUCSORGTOP
 10
0.0
 20
0.0
 30
0.0
  9
$PUCSORGBOTTOM
 10
0.0
 20
0.0
 30
0.0
  9
$PUCSORGLEFT
 10
0.0
 20
0.0
 30
0.0
  9
$PUCSORGRIGHT
 10
0.0
 20
0.0
 30
0.0
  9
$PUCSORGFRONT
 10
0.0
 20
0.0
 30
0.0
  9
$PUCSORGBACK
 10
0.0
 20
0.0
 30
0.0
  9
$USERI1
 70
     0
  9
$USERI2
 70
     0
  9
$USERI3
 70
     0
  9
$USERI4
 70
     0
  9
$USERI5
 70
     0
  9
$USERR1
 40
0.0
  9
$USERR2
 40
0.0
  9
$USERR3
 40
0.0
  9
$USERR4
 40
0.0
  9
$USERR5
 40
0.0
  9
$WORLDVIEW
 70
     1
  9
$SHADEDGE
 70
     3
  9
$SHADEDIF
 70
    70
  9
$TILEMODE
 70
     1
  9
$MAXACTVP
 70
    64
  9
$PINSBASE
 10
0.0
 20
0.0
 30
0.0
  9
$PLIMCHECK
 70
     0
  9
$PEXTMIN
 10
1.000000E+20
 20
1.000000E+20
 30
1.000000E+20
  9
$PEXTMAX
 10
-1.000000E+20
 20
-1.000000E+20
 30
-1.000000E+20
  9
$PLIMMIN
 10
0.0
 20
0.0
  9
$PLIMMAX
 10
12.0
 20
9.0
  9
$UNITMODE
 70
     0
  9
$VISRETAIN
 70
     1
  9
$PLINEGEN
 70
     0
  9
$PSLTSCALE
 70
     1
  9
$TREEDEPTH
 70
  3020
  9
$CMLSTYLE
  2
Standard
  9
$CMLJUST
 70
     0
  9
$CMLSCALE
 40
20.0
  9
$PROXYGRAPHICS
 70
     1
  9
$MEASUREMENT
 70
     1
  9
$CELWEIGHT
370
    -1
  9
$ENDCAPS
280
     0
  9
$JOINSTYLE
280
     0
  9
$LWDISPLAY
290
     0
  9
$INSUNITS
 70
     4
  9
$HYPERLINKBASE
  1

  9
$STYLESHEET
  1

  9
$XEDIT
290
     1
  9
$CEPSNTYPE
380
     0
  9
$PSTYLEMODE
290
     1
  9
$FINGERPRINTGUID
  2
{0C29FFE4-DD61-D946-B8E4-C3AFCA9D4B99}
  9
$VERSIONGUID
  2
{3C85DF86-5D12-C548-8F2A-10E8F81E8D91}
  9
$EXTNAMES
290
     1
  9
$PSVPSCALE
 40
0.0
  9
$OLESTARTUP
290
     0
  9
$SORTENTS
280
   127
  9
$INDEXCTL
280
     0
  9
$HIDETEXT
280
     1
  9
$XCLIPFRAME
280
     0
  9
$HALOGAP
280
     0
  9
$OBSCOLOR
 70
   257
  9
$OBSLTYPE
280
     0
  9
$INTERSECTIONDISPLAY
280
     0
  9
$INTERSECTIONCOLOR
 70
   257
  9
$DIMASSOC
280
     2
  9
$PROJECTNAME
  1

  9
$CAMERADISPLAY
290
     0
  9
$LENSLENGTH
 40
50.0
  9
$CAMERAHEIGHT
 40
0.0
  9
$STEPSPERSEC
 40
2.0
  9
$STEPSIZE
 40
6.0
  9
$3DDWFPREC
 40
2.0
  9
$PSOLWIDTH
 40
5.0
  9
$PSOLHEIGHT
 40
80.0
  9
$LOFTANG1
 40
1.570796
  9
$LOFTANG2
 40
1.570796
  9
$LOFTMAG1
 40
0.0
  9
$LOFTMAG2
 40
0.0
  9
$LOFTPARAM
 70
     7
  9
$LOFTNORMALS
280
     1
  9
$LATITUDE
 40
37.795
  9
$LONGITUDE
 40
-122.394
  9
$NORTHDIRECTION
 40
0.0
  9
$TIMEZONE
 70
 -8000
  9
$LIGHTGLYPHDISPLAY
280
     1
  9
$TILEMODELIGHTSYNCH
280
     1
  9
$CMATERIAL
347
11
  9
$SOLIDHIST
280
     0
  9
$SHOWHIST
280
     1
  9
$DWFFRAME
280
     2
  9
$DGNFRAME
280
     0
  9
$REALWORLDSCALE
290
     1
  9
$INTERFERECOLOR
 62
     1
  9
$INTERFEREOBJVS
345
33
  9
$INTERFEREVPVS
346
30
  9
$CSHADOW
280
     0
  9
$SHADOWPLANELOCATION
 40
0.0
  0
ENDSEC
  0
SECTION
  2
CLASSES
  0
CLASS
  1
ACDBDICTIONARYWDFLT
  2
AcDbDictionaryWithDefault
  3
ObjectDBX Classes
 90
        0
 91
        1
280
     0
281
     0
  0
CLASS
  1
MATERIAL
  2
AcDbMaterial
  3
ObjectDBX Classes
 90
     1153
 91
        3
280
     0
281
     0
  0
CLASS
  1
VISUALSTYLE
  2
AcDbVisualStyle
  3
ObjectDBX Classes
 90
     4095
 91
       24
280
     0
281
     0
  0
CLASS
  1
SCALE
  2
AcDbScale
  3
ObjectDBX Classes
 90
     1153
 91
       17
280
     0
281
     0
  0
CLASS
  1
TABLESTYLE
  2
AcDbTableStyle
  3
ObjectDBX Classes
 90
     4095
 91
        1
280
     0
281
     0
  0
CLASS
  1
MLEADERSTYLE
  2
AcDbMLeaderStyle
  3
ACDB_MLEADERSTYLE_CLASS
 90
     4095
 91
        1
280
     0
281
     0
  0
CLASS
  1
ACDBSECTIONVIEWSTYLE
  2
AcDbSectionViewStyle
  3
ObjectDBX Classes
 90
     1025
 91
        1
280
     0
281
     0
  0
CLASS
  1
ACDBDETAILVIEWSTYLE
  2
AcDbDetailViewStyle
  3
ObjectDBX Classes
 90
     1025
 91
        1
280
     0
281
     0
  0
CLASS
  1
ACMESCOPE
  2
AcMeScope
  3
AcMeServices
 90
     1024
 91
        1
280
     0
281
     0
  0
CLASS
  1
ACMECOMMANDHISTORY
  2
AcMeCommandHistory
  3
AcMeServices
 90
     1024
 91
        1
280
     0
281
     0
  0
CLASS
  1
ACIMSYSVARMAN
  2
AcImSysVarManager
  3
AcMeServices
 90
     1024
 91
        1
280
     0
281
     0
  0
CLASS
  1
ACIMINTSYSVAR
  2
AcImIntSysVar
  3
AcMeServices
 90
     1024
 91
        1
280
     0
281
     0
  0
CLASS
  1
ACMESTATEMGR
  2
AcMeStateMgr
  3
AcMeServices
 90
     1024
 91
        1
280
     0
281
     0
  0
CLASS
  1
ACGREFMASTER
  2
AcGrefMaster
  3
AcAttribServices
 90
     1024
 91
        1
280
     0
281
     0
  0
CLASS
  1
SORTENTSTABLE
  2
AcDbSortentsTable
  3
ObjectDBX Classes
 90
        0
 91
        5
280
     0
281
     0
  0
CLASS
  1
DICTIONARYVAR
  2
AcDbDictionaryVar
  3
ObjectDBX Classes
 90
        0
 91
        6
280
     0
281
     0
  0
CLASS
  1
CELLSTYLEMAP
  2
AcDbCellStyleMap
  3
ObjectDBX Classes
 90
     1152
 91
        1
280
     0
281
     0
  0
ENDSEC
  0
SECTION
  2
TABLES
  0
TABLE
  2
VPORT
  5
8
330
0
100
AcDbSymbolTable
 70
     1
1001
ACAD
1000
DbSaveVer
1071
      298
  0
VPORT
  5
57
330
8
100
AcDbSymbolTableRecord
100
AcDbViewportTableRecord
  2
*Active
 70
     0
 10
0.0
 20
0.0
 11
1.0
 21
1.0
 12
105.0
 22
148.5
 13
0.0
 23
0.0
 14
0.5
 24
0.5
 15
0.0
 25
0.0
 16
0.0
 26
0.0
 36
1.0
 17
0.0
 27
0.0
 37
0.0
 40
297.0
 41
1.791045
 42
50.0
 43
0.0
 44
0.0
 50
0.0
 51
0.0
 71
     0
 72
 20000
 73
     1
 74
     0
 75
     0
 76
     0
 77
     0
 78
     0
281
     0
 65
     1
110
0.0
120
0.0
130
0.0
111
1.0
121
0.0
131
0.0
112
0.0
122
1.0
132
0.0
 79
     0
146
0.0
348
2F
 60
     3
 61
     5
292
     1
282
     1
141
0.0
142
0.0
 63
   250
421
  3355443
  0
ENDTAB
  0
TABLE
  2
LTYPE
  5
5
330
0
100
AcDbSymbolTable
 70
    14
  0
LTYPE
  5
5B
330
5
100
AcDbSymbolTableRecord
100
AcDbLinetypeTableRecord
  2
ByBlock
 70
     0
  3

 72
    65
 73
     0
 40
0.0
  0
LTYPE
  5
5C
330
5
100
AcDbSymbolTableRecord
100
AcDbLinetypeTableRecord
  2
ByLayer
 70
     0
  3

 72
    65
 73
     0
 40
0.0
  0
LTYPE
  5
5D
330
5
100
AcDbSymbolTableRecord
100
AcDbLinetypeTableRecord
  2
Continuous
 70
     0
  3
Solid line
 72
    65
 73
     0
 40
0.0
  0
LTYPE
  5
81
330
5
100
AcDbSymbolTableRecord
100
AcDbLinetypeTableRecord
  2
HIDDEN
 70
     0
  3
Hidden __ __ __ __ __ __ __ __ __ __ __ __ __ _
 72
    65
 73
     2
 40
9.525
 49
6.35
 74
     0
 49
-3.175
 74
     0
  0
LTYPE
  5
82
330
5
100
AcDbSymbolTableRecord
100
AcDbLinetypeTableRecord
  2
PHANTOM2
 70
     0
  3
Phantom (.5x) ___ _ _ ___ _ _ ___ _ _ ___ _ _
 72
    65
 73
     6
 40
31.75
 49
15.875
 74
     0
 49
-3.175
 74
     0
 49
3.175
 74
     0
 49
-3.175
 74
     0
 49
3.175
 74
     0
 49
-3.175
 74
     0
  0
LTYPE
  5
83
330
5
100
AcDbSymbolTableRecord
100
AcDbLinetypeTableRecord
  2
CENTER
 70
     0
  3
Center ____ _ ____ _ ____ _ ____ _ ____ _ ____
 72
    65
 73
     4
 40
50.8
 49
31.75
 74
     0
 49
-6.35
 74
     0
 49
6.35
 74
     0
 49
-6.35
 74
     0
  0
LTYPE
  5
96
330
5
100
AcDbSymbolTableRecord
100
AcDbLinetypeTableRecord
  2
AM_ISO02W050
 70
     0
  3
__ __ __ __ __ __ __ __ __ __ __ __ __ __ __
 72
    65
 73
     2
 40
7.5
 49
6.0
 74
     0
 49
-1.5
 74
     0
  0
LTYPE
  5
97
330
5
100
AcDbSymbolTableRecord
100
AcDbLinetypeTableRecord
  2
AM_ISO08W050
 70
     0
  3
____ . ____ . ____ . ____ . ____ . ____ . ____
 72
    65
 73
     4
 40
18.0
 49
12.0
 74
     0
 49
-1.5
 74
     0
 49
3.0
 74
     0
 49
-1.5
 74
     0
  0
LTYPE
  5
98
330
5
100
AcDbSymbolTableRecord
100
AcDbLinetypeTableRecord
  2
AM_ISO09W050
 70
     0
  3
_____ . . _____ . . _____ . . ____ .. ____
 72
    65
 73
     6
 40
22.5
 49
12.0
 74
     0
 49
-1.5
 74
     0
 49
3.0
 74
     0
 49
-1.5
 74
     0
 49
3.0
 74
     0
 49
-1.5
 74
     0
  0
LTYPE
  5
99
330
5
100
AcDbSymbolTableRecord
100
AcDbLinetypeTableRecord
  2
Amconstr
 70
     0
  3
_______________________
 72
    65
 73
     2
 40
9999.0
 49
9999.0
 74
     0
 49
0.0
 74
     0
  0
LTYPE
  5
9A
330
5
100
AcDbSymbolTableRecord
100
AcDbLinetypeTableRecord
  2
AM_ISO08W050x2
 70
     0
  3
__ . __ . __ . __ . __ . __
 72
    65
 73
     4
 40
9.0
 49
6.0
 74
     0
 49
-0.75
 74
     0
 49
1.5
 74
     0
 49
-0.75
 74
     0
  0
LTYPE
  5
9B
330
5
100
AcDbSymbolTableRecord
100
AcDbLinetypeTableRecord
  2
AM_ISO02W050x2
 70
     0
  3
 _ _ _ _ _ _ _ _ _ _ _ _
 72
    65
 73
     2
 40
3.75
 49
3.0
 74
     0
 49
-0.75
 74
     0
  0
LTYPE
  5
9C
330
5
100
AcDbSymbolTableRecord
100
AcDbLinetypeTableRecord
  2
Amzigzag
 70
     0
  3
/\/-/\/-/\/-/\/-/\/-/\/
 72
    65
 73
     2
 40
11.0001
 49
0.0001
 74
     4
 75
   136
340
93
 46
0.04
 50
0.0
 44
0.0
 45
0.0
 49
-11.0
 74
     0
  0
LTYPE
  5
9D
330
5
100
AcDbSymbolTableRecord
100
AcDbLinetypeTableRecord
  2
ACISOWELD
 70
     0
  3
_ _ _ _ _
 72
    65
 73
     2
 40
2.0
 49
2.0
 74
     0
 49
-1.0
 74
     0
  0
LTYPE
  5
9E
330
5
100
AcDbSymbolTableRecord
100
AcDbLinetypeTableRecord
  2
ACISOTGL
 70
     0
  3
_ _ _ _ _
 72
    65
 73
     2
 40
3.0
 49
2.0
 74
     0
 49
-1.0
 74
     0
  0
LTYPE
  5
9F
330
5
100
AcDbSymbolTableRecord
100
AcDbLinetypeTableRecord
  2
ACISOTGB
 70
     0
  3
__ . . __ . .
 72
    65
 73
     6
 40
9.0
 49
4.0
 74
     0
 49
-1.0
 74
     0
 49
1.0
 74
     0
 49
-1.0
 74
     0
 49
1.0
 74
     0
 49
-1.0
 74
     0
  0
ENDTAB
  0
TABLE
  2
LAYER
  5
2
330
0
100
AcDbSymbolTable
 70
     7
  0
LAYER
  5
54
330
2
100
AcDbSymbolTableRecord
100
AcDbLayerTableRecord
  2
0
 70
     0
 62
     7
  6
Continuous
370
    -3
390
F
347
21
348
0
1001
AcAecLayerStandard
1000

1000

  0
LAYER
  5
79
330
2
100
AcDbSymbolTableRecord
100
AcDbLayerTableRecord
  2
Defpoints
 70
     0
 62
     7
  6
Continuous
290
     0
370
    -3
390
F
347
21
348
0
1001
AcAecLayerStandard
1000

1000

  0
LAYER
  5
AB
330
2
100
AcDbSymbolTableRecord
100
AcDbLayerTableRecord
  2
Visible
 70
     0
 62
     7
  6
Continuous
370
    35
390
F
347
21
348
0
  0
LAYER
  5
1FD
330
2
100
AcDbSymbolTableRecord
100
AcDbLayerTableRecord
  2
BORDER
 70
     0
 62
     7
  6
Continuous
370
    18
390
F
347
21
348
0
1001
AcAecLayerStandard
1000

1000

1001
AcCmTransparency
1071
        0
  0
LAYER
  5
213
330
2
100
AcDbSymbolTableRecord
100
AcDbLayerTableRecord
  2
TITLEBLOCK
 70
     0
 62
     7
  6
Continuous
370
    25
390
F
347
21
348
0
1001
AcAecLayerStandard
1000

1000

1001
AcCmTransparency
1071
        0
  0
ENDTAB
  0
TABLE
  2
STYLE
  5
3
330
0
100
AcDbSymbolTable
 70
     5
  0
STYLE
  5
55
330
3
100
AcDbSymbolTableRecord
100
AcDbTextStyleTableRecord
  2
Standard
 70
     0
 40
0.0
 41
1.0
 50
0.0
 71
     0
 42
3.5
  3
arial.ttf
  4

1001
ACAD
1000
Arial
1071
       34
  0
STYLE
  5
5A
330
3
100
AcDbSymbolTableRecord
100
AcDbTextStyleTableRecord
  2
Annotative
 70
     0
 40
0.0
 41
1.0
 50
0.0
 71
     0
 42
0.2
  3
txt
  4

1001
AcadAnnotative
1000
AnnotativeData
1002
{
1070
     1
1070
     1
1002
}
  0
STYLE
  5
92
330
3
100
AcDbSymbolTableRecord
100
AcDbTextStyleTableRecord
  2
FusionTitle
 70
     0
 40
0.0
 41
1.0
 50
0.0
 71
     0
 42
2.5
  3
arial.ttf
  4

1001
ACAD
1000
Arial
1071
       34
  0
STYLE
  5
93
330
3
100
AcDbSymbolTableRecord
100
AcDbTextStyleTableRecord
  2

 70
     1
 40
0.0
 41
1.0
 50
0.0
 71
     0
 42
10.0
  3
genltshp.shx
  4

  0
STYLE
  5
94
330
3
100
AcDbSymbolTableRecord
100
AcDbTextStyleTableRecord
  2
ACISOGDT
 70
     0
 40
0.0
 41
1.0
 50
0.0
 71
     0
 42
10.0
  3
amgdt.shx
  4

  0
ENDTAB
  0
TABLE
  2
VIEW
  5
6
330
0
100
AcDbSymbolTable
 70
     0
  0
ENDTAB
  0
TABLE
  2
UCS
  5
7
330
0
100
AcDbSymbolTable
 70
     0
  0
ENDTAB
  0
TABLE
  2
APPID
  5
9
330
0
100
AcDbSymbolTable
 70
    19
  0
APPID
  5
56
330
9
100
AcDbSymbolTableRecord
100
AcDbRegAppTableRecord
  2
ACAD
 70
     0
  0
APPID
  5
5E
330
9
100
AcDbSymbolTableRecord
100
AcDbRegAppTableRecord
  2
AcadAnnotative
 70
     0
  0
APPID
  5
78
330
9
100
AcDbSymbolTableRecord
100
AcDbRegAppTableRecord
  2
ACAD_PSEXT
 70
     0
  0
APPID
  5
7A
330
9
100
AcDbSymbolTableRecord
100
AcDbRegAppTableRecord
  2
MCAD_NO_VIS
 70
     0
  0
APPID
  5
7B
330
9
100
AcDbSymbolTableRecord
100
AcDbRegAppTableRecord
  2
ACAD_TEMP_GRAPHIC
 70
     0
  0
APPID
  5
84
330
9
100
AcDbSymbolTableRecord
100
AcDbRegAppTableRecord
  2
ACAD_DSTYLE_DIMJAG
 70
     0
  0
APPID
  5
85
330
9
100
AcDbSymbolTableRecord
100
AcDbRegAppTableRecord
  2
ACAD_DSTYLE_DIMTALN
 70
     0
  0
APPID
  5
86
330
9
100
AcDbSymbolTableRecord
100
AcDbRegAppTableRecord
  2
ACAD_NAV_VCDISPLAY
 70
     0
  0
APPID
  5
87
330
9
100
AcDbSymbolTableRecord
100
AcDbRegAppTableRecord
  2
AcAecLayerStandard
 70
     0
  0
APPID
  5
88
330
9
100
AcDbSymbolTableRecord
100
AcDbRegAppTableRecord
  2
AcCmTransparency
 70
     0
  0
APPID
  5
89
330
9
100
AcDbSymbolTableRecord
100
AcDbRegAppTableRecord
  2
AcDbDynamicBlockGUID
 70
     0
  0
APPID
  5
8A
330
9
100
AcDbSymbolTableRecord
100
AcDbRegAppTableRecord
  2
ACAD_DSTYLE_DIMBREAK
 70
     0
  0
APPID
  5
8B
330
9
100
AcDbSymbolTableRecord
100
AcDbRegAppTableRecord
  2
FUSIONTITLEBLOCK
 70
     0
  0
APPID
  5
8C
330
9
100
AcDbSymbolTableRecord
100
AcDbRegAppTableRecord
  2
FUSIONCURRENTTITLEBLOCK
 70
     0
  0
APPID
  5
8D
330
9
100
AcDbSymbolTableRecord
100
AcDbRegAppTableRecord
  2
AcSynergy
 70
     0
  0
APPID
  5
8E
330
9
100
AcDbSymbolTableRecord
100
AcDbRegAppTableRecord
  2
GENIUS_GENSCREG_15
 70
     0
  0
APPID
  5
8F
330
9
100
AcDbSymbolTableRecord
100
AcDbRegAppTableRecord
  2
GENIUS_GENOBJ-N-SDF_13
 70
     0
  0
APPID
  5
90
330
9
100
AcDbSymbolTableRecord
100
AcDbRegAppTableRecord
  2
GENIUS_GENODEF_13
 70
     0
  0
APPID
  5
91
330
9
100
AcDbSymbolTableRecord
100
AcDbRegAppTableRecord
  2
ACATTRIBSERVICES
 70
     0
  0
ENDTAB
  0
TABLE
  2
DIMSTYLE
  5
A
330
0
100
AcDbSymbolTable
 70
     4
100
AcDbDimStyleTable
 71
     1
340
A3
  0
DIMSTYLE
105
58
330
A
100
AcDbSymbolTableRecord
100
AcDbDimStyleTableRecord
  2
Standard
 70
     0
 41
3.5
 42
2.1
 43
10.5
 44
2.1
 78
    12
 79
     3
140
3.5
143
0.03937
146
0.714286
147
1.4
179
     2
271
     2
272
     2
284
    12
340
55
  0
DIMSTYLE
105
59
330
A
100
AcDbSymbolTableRecord
100
AcDbDimStyleTableRecord
  2
Annotative
 70
     0
 40
0.0
 41
3.5
 42
2.1
 43
10.5
 44
2.1
 73
     0
 74
     0
 77
     1
 78
    12
 79
     3
140
3.5
141
2.5
143
0.03937
146
0.714286
147
1.4
171
     3
172
     1
179
     2
271
     2
272
     2
274
     3
278
    44
283
     0
284
    12
340
55
1001
AcadAnnotative
1000
AnnotativeData
1002
{
1070
     1
1070
     1
1002
}
  0
DIMSTYLE
105
A2
330
A
100
AcDbSymbolTableRecord
100
AcDbDimStyleTableRecord
  2
ISO-25
 70
     0
  4
in
 41
3.5
 42
2.1
 43
10.5
 44
2.1
 47
0.1
 48
0.1
 73
     0
 74
     0
 77
     1
 78
    12
 79
     3
140
3.5
141
0.0
143
0.03937
146
0.714286
147
1.4
171
     4
172
     1
176
   256
177
   256
178
   256
179
     2
271
     2
272
     2
274
     4
283
     0
284
    12
285
     8
340
55
1001
ACAD_DSTYLE_DIMJAG
1070
   388
1040
1.5
1001
ACAD_DSTYLE_DIMTALN
1070
   392
1070
     1
1001
ACAD_DSTYLE_DIMBREAK
1070
   391
1040
3.5
  0
DIMSTYLE
105
A3
330
A
100
AcDbSymbolTableRecord
100
AcDbDimStyleTableRecord
  2
Dim-ISO-25
 70
     0
 41
3.5
 42
2.1
 43
10.5
 44
2.1
 47
0.1
 48
0.1
 73
     0
 74
     0
 77
     1
 78
    12
 79
     3
140
3.5
141
0.0
143
0.03937
146
0.714286
147
1.4
172
     1
179
     2
271
     2
272
     2
274
     4
283
     0
284
    12
285
    12
286
    12
340
55
1001
ACAD_DSTYLE_DIMJAG
1070
   388
1040
1.5
1001
ACAD_DSTYLE_DIMTALN
1070
   392
1070
     1
1001
ACAD_DSTYLE_DIMBREAK
1070
   391
1040
3.5
  0
ENDTAB
  0
TABLE
  2
BLOCK_RECORD
  5
1
330
0
100
AcDbSymbolTable
 70
     5
  0
BLOCK_RECORD
  5
70
102
{ACAD_XDICTIONARY
360
A4
102
}
330
1
100
AcDbSymbolTableRecord
100
AcDbBlockTableRecord
  2
*Model_Space
340
73
 70
     0
280
     1
281
     0
  0
BLOCK_RECORD
  5
6C
330
1
100
AcDbSymbolTableRecord
100
AcDbBlockTableRecord
  2
*Paper_Space
340
6F
 70
     0
280
     1
281
     0
  0
BLOCK_RECORD
  5
74
330
1
100
AcDbSymbolTableRecord
100
AcDbBlockTableRecord
  2
*Paper_Space0
340
77
 70
     0
280
     1
281
     0
  0
BLOCK_RECORD
  5
1FE
102
{ACAD_XDICTIONARY
360
1FF
102
}
330
1
100
AcDbSymbolTableRecord
100
AcDbBlockTableRecord
  2
ISO_A4(P)_SHEET
340
0
310
2800000020000000200000000100080000000000000400000000000000000000000000000000000000000000000080000080000000808000800000008000800080800000C0C0C000C0DCC000F0CAA6000020400000206000002080000020A0000020C0000020E00000400000004020000040400000406000004080000040A0
310
000040C0000040E00000600000006020000060400000606000006080000060A0000060C0000060E00000800000008020000080400000806000008080000080A0000080C0000080E00000A0000000A0200000A0400000A0600000A0800000A0A00000A0C00000A0E00000C0000000C0200000C0400000C0600000C0800000C0
310
A00000C0C00000C0E00000E0000000E0200000E0400000E0600000E0800000E0A00000E0C00000E0E00040000000400020004000400040006000400080004000A0004000C0004000E00040200000402020004020400040206000402080004020A0004020C0004020E000404000004040200040404000404060004040800040
310
40A0004040C0004040E00040600000406020004060400040606000406080004060A0004060C0004060E00040800000408020004080400040806000408080004080A0004080C0004080E00040A0000040A0200040A0400040A0600040A0800040A0A00040A0C00040A0E00040C0000040C0200040C0400040C0600040C08000
310
40C0A00040C0C00040C0E00040E0000040E0200040E0400040E0600040E0800040E0A00040E0C00040E0E00080000000800020008000400080006000800080008000A0008000C0008000E00080200000802020008020400080206000802080008020A0008020C0008020E00080400000804020008040400080406000804080
310
008040A0008040C0008040E00080600000806020008060400080606000806080008060A0008060C0008060E00080800000808020008080400080806000808080008080A0008080C0008080E00080A0000080A0200080A0400080A0600080A0800080A0A00080A0C00080A0E00080C0000080C0200080C0400080C0600080C0
310
800080C0A00080C0C00080C0E00080E0000080E0200080E0400080E0600080E0800080E0A00080E0C00080E0E000C0000000C0002000C0004000C0006000C0008000C000A000C000C000C000E000C0200000C0202000C0204000C0206000C0208000C020A000C020C000C020E000C0400000C0402000C0404000C0406000C0
310
408000C040A000C040C000C040E000C0600000C0602000C0604000C0606000C0608000C060A000C060C000C060E000C0800000C0802000C0804000C0806000C0808000C080A000C080C000C080E000C0A00000C0A02000C0A04000C0A06000C0A08000C0A0A000C0A0C000C0A0E000C0C00000C0C02000C0C04000C0C06000
310
C0C08000C0C0A000F0FBFF00A4A0A000808080000000FF0000FF000000FFFF00FF000000FF00FF00FFFF0000FFFFFF004949494949494949494949494949494949494949494949494949494949494949494949494949FFFF49494949494949494949494949494949FFFF494949494949494949494949FFFFFFFFFFFFFFFFFF
310
FFFFFFFFFFFFFFFFFFFFFF494949494949494949494949FFFF4949494949494949FF4949494949494949FF49494949494949494949494949FF4949494949494949494949494949494949FF49494949494949494949494949FF4949494949494949494949494949494949FF49494949494949494949494949FF494949494949
310
4949494949494949494949FF49494949494949494949494949FF4949494949494949494949494949494949FF49494949494949494949494949FF4949494949494949494949494949494949FF49494949494949494949494949FF4949494949494949494949494949494949FF49494949494949494949494949FF4949494949
310
494949494949494949494949FF49494949494949494949494949FF4949494949494949494949494949494949FF49494949494949494949494949FF4949494949494949494949494949494949FF49494949494949494949494949FF4949494949494949494949494949494949FF49494949494949494949494949FF49494949
310
49494949494949494949494949FF49494949494949494949494949FF4949494949494949494949494949494949FF49494949494949494949494949FFFF494949494949494949494949494949FFFF49494949494949494949494949FF4949494949494949494949494949494949FF49494949494949494949494949FF494949
310
4949494949494949494949494949FF49494949494949494949494949FF4949494949494949494949494949494949FF49494949494949494949494949FF4949494949494949494949494949494949FF49494949494949494949494949FF4949494949494949494949494949494949FF49494949494949494949494949FF4949
310
494949494949494949494949494949FF49494949494949494949494949FF4949494949494949494949494949494949FF49494949494949494949494949FF4949494949494949494949494949494949FF49494949494949494949494949FF4949494949494949494949494949494949FF49494949494949494949494949FF49
310
49494949494949494949494949494949FF49494949494949494949494949FF4949494949494949494949494949494949FF494949494949494949494949FFFF4949494949494949FF4949494949494949FF494949494949494949494949FFFFFFFFFFFFFFFFFFFFFFFFFFFFFFFFFFFFFFFF494949494949494949494949FFFF
310
49494949494949494949494949494949FFFF4949494949494949494949494949494949494949494949494949494949494949494949494949
102
{BLKREFS
331
1FC
102
}
 70
     4
280
     1
281
     0
1001
AcDbDynamicBlockGUID
1000
{30EDA5F0-D6FB-C340-B770-9DBB5438D37F}
  0
BLOCK_RECORD
  5
214
102
{ACAD_XDICTIONARY
360
215
102
}
330
1
100
AcDbSymbolTableRecord
100
AcDbBlockTableRecord
  2
ISO_TITLEBLOCK
340
0
310
2800000020000000200000000100080000000000000400000000000000000000000000000000000000000000000080000080000000808000800000008000800080800000C0C0C000C0DCC000F0CAA6000020400000206000002080000020A0000020C0000020E00000400000004020000040400000406000004080000040A0
310
000040C0000040E00000600000006020000060400000606000006080000060A0000060C0000060E00000800000008020000080400000806000008080000080A0000080C0000080E00000A0000000A0200000A0400000A0600000A0800000A0A00000A0C00000A0E00000C0000000C0200000C0400000C0600000C0800000C0
310
A00000C0C00000C0E00000E0000000E0200000E0400000E0600000E0800000E0A00000E0C00000E0E00040000000400020004000400040006000400080004000A0004000C0004000E00040200000402020004020400040206000402080004020A0004020C0004020E000404000004040200040404000404060004040800040
310
40A0004040C0004040E00040600000406020004060400040606000406080004060A0004060C0004060E00040800000408020004080400040806000408080004080A0004080C0004080E00040A0000040A0200040A0400040A0600040A0800040A0A00040A0C00040A0E00040C0000040C0200040C0400040C0600040C08000
310
40C0A00040C0C00040C0E00040E0000040E0200040E0400040E0600040E0800040E0A00040E0C00040E0E00080000000800020008000400080006000800080008000A0008000C0008000E00080200000802020008020400080206000802080008020A0008020C0008020E00080400000804020008040400080406000804080
310
008040A0008040C0008040E00080600000806020008060400080606000806080008060A0008060C0008060E00080800000808020008080400080806000808080008080A0008080C0008080E00080A0000080A0200080A0400080A0600080A0800080A0A00080A0C00080A0E00080C0000080C0200080C0400080C0600080C0
310
800080C0A00080C0C00080C0E00080E0000080E0200080E0400080E0600080E0800080E0A00080E0C00080E0E000C0000000C0002000C0004000C0006000C0008000C000A000C000C000C000E000C0200000C0202000C0204000C0206000C0208000C020A000C020C000C020E000C0400000C0402000C0404000C0406000C0
310
408000C040A000C040C000C040E000C0600000C0602000C0604000C0606000C0608000C060A000C060C000C060E000C0800000C0802000C0804000C0806000C0808000C080A000C080C000C080E000C0A00000C0A02000C0A04000C0A06000C0A08000C0A0A000C0A0C000C0A0E000C0C00000C0C02000C0C04000C0C06000
310
C0C08000C0C0A000F0FBFF00A4A0A000808080000000FF0000FF000000FFFF00FF000000FF00FF00FFFF0000FFFFFF0049494949494949494949494949494949494949494949494949494949494949494949494949494949494949494949494949494949494949494949494949494949494949494949494949494949494949
310
49494949494949494949494949494949494949494949494949494949494949494949494949494949494949494949494949494949494949494949494949494949494949494949494949494949494949494949494949494949494949494949494949494949494949494949494949494949494949494949494949494949494949
310
49494949494949494949494949494949494949494949494949494949494949494949494949494949494949494949494949494949494949494949494949494949494949494949494949494949494949494949494949494949494949494949494949494949494949494949494949494949494949494949494949494949494949
310
49494949494949494949494949494949494949494949494949494949494949494949494949494949494949494949494949494949FFFFFFFFFFFFFFFFFFFFFFFFFFFFFFFFFFFFFFFFFFFFFFFFFFFFFF4949494949FF4949494949494949FFFFFFFFFF49494949FFFFFFFFFFFFFFFFFFFF49494949FF4949494949494949FFFF
310
FFFFFF494949FFFFFFFFFFFFFFFFFFFF4949494949FF4949494949494949FFFFFFFFFF494949FFFFFFFFFFFFFFFFFFFF4949494949FF4949494949494949FFFFFFFFFFFFFFFFFFFFFFFFFFFFFFFFFFFF4949494949FFFFFFFFFFFFFFFFFFFFFFFFFFFFFFFFFFFFFFFFFFFFFFFFFFFFFF4949494949FFFFFF49FFFFFFFFFFFF
310
FFFFFFFFFFFFFFFFFFFFFFFFFFFFFFFFFFFFFFFF4949FFFFFFFFFFFFFFFFFFFFFFFFFFFFFFFFFFFFFFFFFFFFFFFFFFFFFF494949494949494949494949494949494949494949494949494949494949494949494949494949494949494949494949494949494949494949494949494949494949494949494949494949494949
310
49494949494949494949494949494949494949494949494949494949494949494949494949494949494949494949494949494949494949494949494949494949494949494949494949494949494949494949494949494949494949494949494949494949494949494949494949494949494949494949494949494949494949
310
49494949494949494949494949494949494949494949494949494949494949494949494949494949494949494949494949494949494949494949494949494949494949494949494949494949494949494949494949494949494949494949494949494949494949494949494949494949494949494949494949494949494949
310
4949494949494949494949494949494949494949494949494949494949494949494949494949494949494949494949494949494949494949
102
{BLKREFS
331
212
102
}
 70
     4
280
     1
281
     0
1001
AcDbDynamicBlockGUID
1000
{BCD52D05-323A-B54A-8A21-1B84008CF9CB}
1001
FUSIONTITLEBLOCK
1000
TitleBlock
  0
ENDTAB
  0
ENDSEC
  0
SECTION
  2
BLOCKS
  0
BLOCK
  5
71
330
70
100
AcDbEntity
  8
0
100
AcDbBlockBegin
  2
*Model_Space
 70
     0
 10
0.0
 20
0.0
 30
0.0
  3
*Model_Space
  1

  0
ENDBLK
  5
72
330
70
100
AcDbEntity
  8
0
100
AcDbBlockEnd
  0
BLOCK
  5
6D
330
6C
100
AcDbEntity
 67
     1
  8
0
100
AcDbBlockBegin
  2
*Paper_Space
 70
     0
 10
0.0
 20
0.0
 30
0.0
  3
*Paper_Space
  1

  0
ENDBLK
  5
6E
330
6C
100
AcDbEntity
 67
     1
  8
0
100
AcDbBlockEnd
  0
BLOCK
  5
75
330
74
100
AcDbEntity
 67
     1
  8
0
100
AcDbBlockBegin
  2
*Paper_Space0
 70
     0
 10
0.0
 20
0.0
 30
0.0
  3
*Paper_Space0
  1

  0
ENDBLK
  5
76
330
74
100
AcDbEntity
 67
     1
  8
0
100
AcDbBlockEnd
  0
BLOCK
  5
201
330
1FE
100
AcDbEntity
  8
0
100
AcDbBlockBegin
  2
ISO_A4(P)_SHEET
 70
     0
 10
0.0
 20
0.0
 30
0.0
  3
ISO_A4(P)_SHEET
  1

  0
LINE
  5
202
330
1FE
100
AcDbEntity
  8
Defpoints
100
AcDbLine
 10
0.0
 20
0.0
 30
0.0
 11
15.0
 21
0.0
 31
0.0
  0
LINE
  5
203
330
1FE
100
AcDbEntity
  8
Defpoints
100
AcDbLine
 10
195.0
 20
0.0
 30
0.0
 11
210.0
 21
0.0
 31
0.0
  0
LINE
  5
204
330
1FE
100
AcDbEntity
  8
BORDER
100
AcDbLine
 10
20.0
 20
10.0
 30
0.0
 11
200.0
 21
10.0
 31
0.0
  0
LINE
  5
205
330
1FE
100
AcDbEntity
  8
Defpoints
100
AcDbLine
 10
210.0
 20
0.0
 30
0.0
 11
210.0
 21
15.0
 31
0.0
  0
LINE
  5
206
330
1FE
100
AcDbEntity
  8
Defpoints
100
AcDbLine
 10
210.0
 20
282.0
 30
0.0
 11
210.0
 21
297.0
 31
0.0
  0
LINE
  5
207
330
1FE
100
AcDbEntity
  8
Defpoints
100
AcDbLine
 10
210.0
 20
297.0
 30
0.0
 11
195.0
 21
297.0
 31
0.0
  0
LINE
  5
208
330
1FE
100
AcDbEntity
  8
Defpoints
100
AcDbLine
 10
15.0
 20
297.0
 30
0.0
 11
0.0
 21
297.0
 31
0.0
  0
LINE
  5
209
330
1FE
100
AcDbEntity
  8
BORDER
100
AcDbLine
 10
200.0
 20
287.0
 30
0.0
 11
20.0
 21
287.0
 31
0.0
  0
LINE
  5
20A
330
1FE
100
AcDbEntity
  8
Defpoints
100
AcDbLine
 10
0.0
 20
297.0
 30
0.0
 11
0.0
 21
282.0
 31
0.0
  0
LINE
  5
20B
330
1FE
100
AcDbEntity
  8
Defpoints
100
AcDbLine
 10
0.0
 20
15.0
 30
0.0
 11
0.0
 21
0.0
 31
0.0
  0
LINE
  5
20C
330
1FE
100
AcDbEntity
  8
BORDER
100
AcDbLine
 10
20.0
 20
287.0
 30
0.0
 11
20.0
 21
10.0
 31
0.0
  0
LINE
  5
20D
330
1FE
100
AcDbEntity
  8
BORDER
100
AcDbLine
 10
200.0
 20
287.0
 30
0.0
 11
200.0
 21
10.0
 31
0.0
  0
LINE
  5
20E
330
1FE
100
AcDbEntity
  8
BORDER
100
AcDbLine
 10
110.0
 20
292.0
 30
0.0
 11
110.0
 21
282.0
 31
0.0
  0
LINE
  5
20F
330
1FE
100
AcDbEntity
  8
BORDER
100
AcDbLine
 10
15.0
 20
148.5
 30
0.0
 11
25.0
 21
148.5
 31
0.0
  0
LINE
  5
210
330
1FE
100
AcDbEntity
  8
BORDER
100
AcDbLine
 10
205.0
 20
148.5
 30
0.0
 11
195.0
 21
148.5
 31
0.0
  0
ENDBLK
  5
211
330
1FE
100
AcDbEntity
  8
0
100
AcDbBlockEnd
  0
BLOCK
  5
217
330
214
100
AcDbEntity
  8
0
100
AcDbBlockBegin
  2
ISO_TITLEBLOCK
 70
     2
 10
0.0
 20
0.0
 30
0.0
  3
ISO_TITLEBLOCK
  1

  0
LINE
  5
218
330
214
100
AcDbEntity
  8
TITLEBLOCK
100
AcDbLine
 10
-180.0
 20
0.0
 30
0.0
 11
0.0
 21
0.0
 31
0.0
  0
LINE
  5
219
330
214
100
AcDbEntity
  8
TITLEBLOCK
100
AcDbLine
 10
-61.0
 20
10.0
 30
0.0
 11
0.0
 21
10.0
 31
0.0
  0
LINE
  5
21A
330
214
100
AcDbEntity
  8
TITLEBLOCK
100
AcDbLine
 10
-122.0
 20
27.0
 30
0.0
 11
0.0
 21
27.0
 31
0.0
  0
LINE
  5
21B
330
214
100
AcDbEntity
  8
TITLEBLOCK
100
AcDbLine
 10
-180.0
 20
37.0
 30
0.0
 11
0.0
 21
37.0
 31
0.0
  0
LINE
  5
21C
330
214
100
AcDbEntity
  8
TITLEBLOCK
100
AcDbLine
 10
0.0
 20
0.0
 30
0.0
 11
0.0
 21
47.0
 31
0.0
  0
LINE
  5
21D
330
214
100
AcDbEntity
  8
TITLEBLOCK
100
AcDbLine
 10
-15.0
 20
0.0
 30
0.0
 11
-15.0
 21
10.0
 31
0.0
  0
LINE
  5
21E
330
214
100
AcDbEntity
  8
TITLEBLOCK
100
AcDbLine
 10
-51.0
 20
0.0
 30
0.0
 11
-51.0
 21
10.0
 31
0.0
  0
LINE
  5
21F
330
214
100
AcDbEntity
  8
TITLEBLOCK
100
AcDbLine
 10
-61.0
 20
0.0
 30
0.0
 11
-61.0
 21
47.0
 31
0.0
  0
LINE
  5
220
330
214
100
AcDbEntity
  8
TITLEBLOCK
100
AcDbLine
 10
-122.0
 20
0.0
 30
0.0
 11
-122.0
 21
47.0
 31
0.0
  0
LINE
  5
221
330
214
100
AcDbEntity
  8
TITLEBLOCK
100
AcDbLine
 10
-156.0
 20
37.0
 30
0.0
 11
-156.0
 21
47.0
 31
0.0
  0
LINE
  5
222
330
214
100
AcDbEntity
  8
TITLEBLOCK
100
AcDbLine
 10
0.0
 20
47.0
 30
0.0
 11
-180.0
 21
47.0
 31
0.0
  0
LINE
  5
223
330
214
100
AcDbEntity
  8
TITLEBLOCK
100
AcDbLine
 10
-180.0
 20
47.0
 30
0.0
 11
-180.0
 21
0.0
 31
0.0
  0
TEXT
  5
224
330
214
100
AcDbEntity
  8
TITLEBLOCK
100
AcDbText
 10
-179.0
 20
44.2
 30
0.0
 40
1.8
  1
Dept.
  7
FusionTitle
 11
-179.0
 21
46.0
 31
0.0
100
AcDbText
 73
     3
  0
TEXT
  5
225
330
214
100
AcDbEntity
  8
TITLEBLOCK
100
AcDbText
 10
-155.0
 20
44.2
 30
0.0
 40
1.8
  1
Technical reference
  7
FusionTitle
 11
-155.0
 21
46.0
 31
0.0
100
AcDbText
 73
     3
  0
TEXT
  5
226
330
214
100
AcDbEntity
  8
TITLEBLOCK
100
AcDbText
 10
-121.0
 20
44.2
 30
0.0
 40
1.8
  1
Created by
  7
FusionTitle
 11
-121.0
 21
46.0
 31
0.0
100
AcDbText
 73
     3
  0
TEXT
  5
227
330
214
100
AcDbEntity
  8
TITLEBLOCK
100
AcDbText
 10
-60.0
 20
44.2
 30
0.0
 40
1.8
  1
Approved by
  7
FusionTitle
 11
-60.0
 21
46.0
 31
0.0
100
AcDbText
 73
     3
  0
TEXT
  5
228
330
214
100
AcDbEntity
  8
TITLEBLOCK
100
AcDbText
 10
-121.0
 20
34.2
 30
0.0
 40
1.8
  1
Document type
  7
FusionTitle
 11
-121.0
 21
36.0
 31
0.0
100
AcDbText
 73
     3
  0
TEXT
  5
229
330
214
100
AcDbEntity
  8
TITLEBLOCK
100
AcDbText
 10
-60.0
 20
34.2
 30
0.0
 40
1.8
  1
Document status
  7
FusionTitle
 11
-60.0
 21
36.0
 31
0.0
100
AcDbText
 73
     3
  0
TEXT
  5
22A
330
214
100
AcDbEntity
  8
TITLEBLOCK
100
AcDbText
 10
-121.0
 20
24.2
 30
0.0
 40
1.8
  1
Title
  7
FusionTitle
 11
-121.0
 21
26.0
 31
0.0
100
AcDbText
 73
     3
  0
TEXT
  5
22B
330
214
100
AcDbEntity
  8
TITLEBLOCK
100
AcDbText
 10
-60.0
 20
24.2
 30
0.0
 40
1.8
  1
DWG No.
  7
FusionTitle
 11
-60.0
 21
26.0
 31
0.0
100
AcDbText
 73
     3
  0
TEXT
  5
22C
330
214
100
AcDbEntity
  8
TITLEBLOCK
100
AcDbText
 10
-60.0
 20
7.2
 30
0.0
 40
1.8
  1
Rev.
  7
FusionTitle
 11
-60.0
 21
9.0
 31
0.0
100
AcDbText
 73
     3
  0
TEXT
  5
22D
330
214
100
AcDbEntity
  8
TITLEBLOCK
100
AcDbText
 10
-50.0
 20
7.2
 30
0.0
 40
1.8
  1
Date of issue
  7
FusionTitle
 11
-50.0
 21
9.0
 31
0.0
100
AcDbText
 73
     3
  0
TEXT
  5
22E
330
214
100
AcDbEntity
  8
TITLEBLOCK
100
AcDbText
 10
-14.0
 20
7.2
 30
0.0
 40
1.8
  1
Sheet
  7
FusionTitle
 11
-14.0
 21
9.0
 31
0.0
100
AcDbText
 73
     3
  0
ATTDEF
  5
22F
102
{ACAD_XDICTIONARY
360
230
102
}
330
214
100
AcDbEntity
  8
TITLEBLOCK
100
AcDbText
 10
-50.0
 20
1.5
 30
0.0
 40
3.5
  1

  7
FusionTitle
 11
-50.0
 21
5.0
 31
0.0
100
AcDbAttributeDefinition
280
     0
  3
Date of issue
  2
DATE_OF_ISSUE
 70
     0
 74
     3
280
     1
  0
ATTDEF
  5
231
102
{ACAD_XDICTIONARY
360
232
102
}
330
214
100
AcDbEntity
  8
TITLEBLOCK
100
AcDbText
 10
-61.026774
 20
1.35
 30
0.0
 40
3.5
  1

  7
FusionTitle
 72
     1
 11
-56.0
 21
4.85
 31
0.0
100
AcDbAttributeDefinition
280
     0
  3
Revision
  2
REV
 70
     0
 74
     3
280
     1
  0
ATTDEF
  5
233
102
{ACAD_XDICTIONARY
360
234
102
}
330
214
100
AcDbEntity
  8
TITLEBLOCK
100
AcDbText
 10
-121.0
 20
1.5
 30
0.0
 40
5.0
  1

  7
FusionTitle
 11
-121.0
 21
6.5
 31
0.0
100
AcDbAttributeDefinition
280
     0
  3
3rd Title
  2
TITLE_3
 70
     0
 74
     3
280
     1
  0
ATTDEF
  5
235
102
{ACAD_XDICTIONARY
360
236
102
}
330
214
100
AcDbEntity
  8
TITLEBLOCK
100
AcDbText
 10
-60.0
 20
28.5
 30
0.0
 40
3.5
  1

  7
FusionTitle
 11
-60.0
 21
32.0
 31
0.0
100
AcDbAttributeDefinition
280
     0
  3
Document status
  2
DOCUMENT_STATUS
 70
     0
 74
     3
280
     1
  0
ATTDEF
  5
237
102
{ACAD_XDICTIONARY
360
238
102
}
330
214
100
AcDbEntity
  8
TITLEBLOCK
100
AcDbText
 10
-121.0
 20
28.5
 30
0.0
 40
3.5
  1

  7
FusionTitle
 11
-121.0
 21
32.0
 31
0.0
100
AcDbAttributeDefinition
280
     0
  3
Document type
  2
DOCUMENT_TYPE
 70
     0
 74
     3
280
     1
  0
ATTDEF
  5
239
102
{ACAD_XDICTIONARY
360
23A
102
}
330
214
100
AcDbEntity
  8
TITLEBLOCK
100
AcDbText
 10
-43.923943
 20
38.5
 30
0.0
 40
3.5
  1

  7
FusionTitle
 72
     2
 11
-0.992838
 21
42.0
 31
0.0
100
AcDbAttributeDefinition
280
     0
  3
Approved date
  2
APPROVED_DATE
 70
     0
 74
     3
280
     1
  0
ATTDEF
  5
23B
102
{ACAD_XDICTIONARY
360
23C
102
}
330
214
100
AcDbEntity
  8
TITLEBLOCK
100
AcDbText
 10
-101.123124
 20
38.5
 30
0.0
 40
3.5
  1

  7
FusionTitle
 72
     2
 11
-62.0
 21
42.0
 31
0.0
100
AcDbAttributeDefinition
280
     0
  3
Created date
  2
CREATED_DATE
 70
     0
 74
     3
280
     1
  0
ATTDEF
  5
23D
102
{ACAD_XDICTIONARY
360
23E
102
}
330
214
100
AcDbEntity
  8
TITLEBLOCK
100
AcDbText
 10
-15.65075
 20
1.35
 30
0.0
 40
3.5
  1

  7
FusionTitle
 72
     1
 11
-7.5
 21
4.85
 31
0.0
100
AcDbAttributeDefinition
280
     0
  3
Sheet
  2
SHEET
 70
     0
 74
     3
280
     1
  0
ATTDEF
  5
23F
102
{ACAD_XDICTIONARY
360
240
102
}
330
214
100
AcDbEntity
  8
TITLEBLOCK
100
AcDbText
 10
-121.0
 20
9.0
 30
0.0
 40
5.0
  1

  7
FusionTitle
 11
-121.0
 21
14.0
 31
0.0
100
AcDbAttributeDefinition
280
     0
  3
2nd Title
  2
TITLE_2
 70
     0
 74
     3
280
     1
  0
ATTDEF
  5
241
102
{ACAD_XDICTIONARY
360
242
102
}
330
214
100
AcDbEntity
  8
TITLEBLOCK
100
AcDbText
 10
-64.456344
 20
14.751432
 30
0.0
 40
5.0
  1

  7
FusionTitle
 72
     1
 11
-30.5
 21
19.751432
 31
0.0
100
AcDbAttributeDefinition
280
     0
  3
Drawing number
  2
DRAWING_NUMBER
 70
     0
 74
     3
280
     1
  0
ATTDEF
  5
243
102
{ACAD_XDICTIONARY
360
244
102
}
330
214
100
AcDbEntity
  8
TITLEBLOCK
100
AcDbText
 10
-121.0
 20
16.5
 30
0.0
 40
5.0
  1

  7
FusionTitle
 11
-121.0
 21
21.5
 31
0.0
100
AcDbAttributeDefinition
280
     0
  3
1st Title
  2
TITLE_1
 70
     0
 74
     3
280
     1
  0
ATTDEF
  5
245
102
{ACAD_XDICTIONARY
360
246
102
}
330
214
100
AcDbEntity
  8
TITLEBLOCK
100
AcDbText
 10
-60.0
 20
38.5
 30
0.0
 40
3.5
  1

  7
FusionTitle
 11
-60.0
 21
42.0
 31
0.0
100
AcDbAttributeDefinition
280
     0
  3
Approved by
  2
APPROVED_BY
 70
     0
 74
     3
280
     1
  0
ATTDEF
  5
247
102
{ACAD_XDICTIONARY
360
248
102
}
330
214
100
AcDbEntity
  8
TITLEBLOCK
100
AcDbText
 10
-121.0
 20
38.5
 30
0.0
 40
3.5
  1

  7
FusionTitle
 11
-121.0
 21
42.0
 31
0.0
100
AcDbAttributeDefinition
280
     0
  3
Created by
  2
CREATED_BY
 70
     0
 74
     3
280
     1
  0
ATTDEF
  5
249
102
{ACAD_XDICTIONARY
360
24A
102
}
330
214
100
AcDbEntity
  8
TITLEBLOCK
100
AcDbText
 10
-155.0
 20
38.5
 30
0.0
 40
3.5
  1

  7
FusionTitle
 11
-155.0
 21
42.0
 31
0.0
100
AcDbAttributeDefinition
280
     0
  3
Technical reference
  2
TECHNICAL_REFERENCE
 70
     0
 74
     3
280
     1
  0
ATTDEF
  5
24B
102
{ACAD_XDICTIONARY
360
24C
102
}
330
214
100
AcDbEntity
  8
TITLEBLOCK
100
AcDbText
 10
-179.0
 20
38.5
 30
0.0
 40
3.5
  1

  7
FusionTitle
 11
-179.0
 21
42.0
 31
0.0
100
AcDbAttributeDefinition
280
     0
  3
Department
  2
DEPT
 70
     0
 74
     3
280
     1
  0
ENDBLK
  5
24D
330
214
100
AcDbEntity
  8
0
100
AcDbBlockEnd
  0
ENDSEC
  0
SECTION
  2
ENTITIES
  0
INSERT
  5
1FC
330
70
100
AcDbEntity
  8
BORDER
100
AcDbBlockReference
  2
ISO_A4(P)_SHEET
 10
0.0
 20
0.0
 30
0.0
  0
INSERT
  5
212
330
70
100
AcDbEntity
  8
TITLEBLOCK
100
AcDbBlockReference
 66
     1
  2
ISO_TITLEBLOCK
 10
200.0
 20
10.0
 30
0.0
  0
ATTRIB
  5
24E
330
212
100
AcDbEntity
  8
TITLEBLOCK
100
AcDbText
 10
150.0
 20
11.5
 30
0.0
 40
3.5
  1

  7
FusionTitle
 11
150.0
 21
15.0
 31
0.0
100
AcDbAttribute
280
     0
  2
DATE_OF_ISSUE
 70
     0
 74
     3
280
     1
  0
ATTRIB
  5
24F
330
212
100
AcDbEntity
  8
TITLEBLOCK
100
AcDbText
 10
144.0
 20
11.35
 30
0.0
 40
3.5
  1

  7
FusionTitle
 72
     1
 11
144.0
 21
14.85
 31
0.0
100
AcDbAttribute
280
     0
  2
REV
 70
     0
 74
     3
280
     1
  0
ATTRIB
  5
250
330
212
100
AcDbEntity
  8
TITLEBLOCK
100
AcDbText
 10
79.0
 20
11.5
 30
0.0
 40
5.0
  1

  7
FusionTitle
 11
79.0
 21
16.5
 31
0.0
100
AcDbAttribute
280
     0
  2
TITLE_3
 70
     0
 74
     3
280
     1
  0
ATTRIB
  5
251
330
212
100
AcDbEntity
  8
TITLEBLOCK
100
AcDbText
 10
140.0
 20
38.5
 30
0.0
 40
3.5
  1

  7
FusionTitle
 11
140.0
 21
42.0
 31
0.0
100
AcDbAttribute
280
     0
  2
DOCUMENT_STATUS
 70
     0
 74
     3
280
     1
  0
ATTRIB
  5
252
330
212
100
AcDbEntity
  8
TITLEBLOCK
100
AcDbText
 10
79.0
 20
38.5
 30
0.0
 40
3.5
  1

  7
FusionTitle
 11
79.0
 21
42.0
 31
0.0
100
AcDbAttribute
280
     0
  2
DOCUMENT_TYPE
 70
     0
 74
     3
280
     1
  0
ATTRIB
  5
253
330
212
100
AcDbEntity
  8
TITLEBLOCK
100
AcDbText
 10
199.007162
 20
48.5
 30
0.0
 40
3.5
  1

  7
FusionTitle
 72
     2
 11
199.007162
 21
52.0
 31
0.0
100
AcDbAttribute
280
     0
  2
APPROVED_DATE
 70
     0
 74
     3
280
     1
  0
ATTRIB
  5
254
330
212
100
AcDbEntity
  8
TITLEBLOCK
100
AcDbText
 10
118.967258
 20
48.5
 30
0.0
 40
3.5
  1
2023/8/8
  7
FusionTitle
 72
     2
 11
138.0
 21
52.0
 31
0.0
100
AcDbAttribute
280
     0
  2
CREATED_DATE
 70
     0
 74
     3
280
     1
  0
ATTRIB
  5
255
330
212
100
AcDbEntity
  8
TITLEBLOCK
100
AcDbText
 10
189.101467
 20
11.35
 30
0.0
 40
3.5
  1
1/1
  7
FusionTitle
 72
     1
 11
192.5
 21
14.85
 31
0.0
100
AcDbAttribute
280
     0
  2
SHEET
 70
     0
 74
     3
280
     1
  0
ATTRIB
  5
256
330
212
100
AcDbEntity
  8
TITLEBLOCK
100
AcDbText
 10
79.0
 20
19.0
 30
0.0
 40
5.0
  1

  7
FusionTitle
 11
79.0
 21
24.0
 31
0.0
100
AcDbAttribute
280
     0
  2
TITLE_2
 70
     0
 74
     3
280
     1
  0
ATTRIB
  5
257
330
212
100
AcDbEntity
  8
TITLEBLOCK
100
AcDbText
 10
169.5
 20
24.751432
 30
0.0
 40
5.0
  1

  7
FusionTitle
 72
     1
 11
169.5
 21
29.751432
 31
0.0
100
AcDbAttribute
280
     0
  2
DRAWING_NUMBER
 70
     0
 74
     3
280
     1
  0
ATTRIB
  5
258
330
212
100
AcDbEntity
  8
TITLEBLOCK
100
AcDbText
 10
79.0
 20
26.5
 30
0.0
 40
5.0
  1
Rover DEMO01 SU_EXP
 41
0.743435
  7
FusionTitle
 11
79.0
 21
31.5
 31
0.0
100
AcDbAttribute
280
     0
  2
TITLE_1
 70
     0
 74
     3
280
     1
  0
ATTRIB
  5
259
330
212
100
AcDbEntity
  8
TITLEBLOCK
100
AcDbText
 10
140.0
 20
48.5
 30
0.0
 40
3.5
  1

  7
FusionTitle
 11
140.0
 21
52.0
 31
0.0
100
AcDbAttribute
280
     0
  2
APPROVED_BY
 70
     0
 74
     3
280
     1
  0
ATTRIB
  5
25A
330
212
100
AcDbEntity
  8
TITLEBLOCK
100
AcDbText
 10
79.0
 20
48.5
 30
0.0
 40
3.5
  1
WL Zhang
  7
FusionTitle
 11
79.0
 21
52.0
 31
0.0
100
AcDbAttribute
280
     0
  2
CREATED_BY
 70
     0
 74
     3
280
     1
  0
ATTRIB
  5
25B
330
212
100
AcDbEntity
  8
TITLEBLOCK
100
AcDbText
 10
45.0
 20
48.5
 30
0.0
 40
3.5
  1

  7
FusionTitle
 11
45.0
 21
52.0
 31
0.0
100
AcDbAttribute
280
     0
  2
TECHNICAL_REFERENCE
 70
     0
 74
     3
280
     1
  0
ATTRIB
  5
25C
330
212
100
AcDbEntity
  8
TITLEBLOCK
100
AcDbText
 10
21.0
 20
48.5
 30
0.0
 40
3.5
  1

  7
FusionTitle
 11
21.0
 21
52.0
 31
0.0
100
AcDbAttribute
280
     0
  2
DEPT
 70
     0
 74
     3
280
     1
  0
SEQEND
  5
25D
330
212
100
AcDbEntity
  8
TITLEBLOCK
  0
SPLINE
  5
260
330
70
100
AcDbEntity
  8
Visible
100
AcDbSpline
210
0.0
220
0.0
230
1.0
 70
     8
 71
     3
 72
     8
 73
     4
 74
     0
 42
0.000000001
 43
0.0000000001
 40
0.0
 40
0.0
 40
0.0
 40
0.0
 40
0.5209925740648402
 40
0.5209925740648402
 40
0.5209925740648402
 40
0.5209925740648402
 10
54.24013329929767
 20
158.2779783952847
 30
-0.000000000001819
 10
54.24013329929767
 20
158.885803065027
 30
-0.000000000001819
 10
54.40195441085234
 20
159.4928909591665
 30
-0.000000000001819
 10
54.70449383253799
 20
160.0200728324064
 30
-0.000000000001819
  0
SPLINE
  5
261
330
70
100
AcDbEntity
  8
Visible
100
AcDbSpline
210
0.0
220
0.0
230
1.0
 70
     8
 71
     3
 72
     8
 73
     4
 74
     0
 42
0.000000001
 43
0.0000000001
 40
0.0
 40
0.0
 40
0.0
 40
0.0
 40
1.186399544007193
 40
1.186399544007193
 40
1.186399544007193
 40
1.186399544007193
 10
54.70449383253799
 20
160.0200728324065
 30
-0.000000000001819
 10
54.778181015894
 20
160.1484744375218
 30
-0.000000000001819
 10
54.91183654075939
 20
160.3487010379947
 30
-0.000000000001819
 10
55.03408522531936
 20
160.4977314944649
 30
-0.000000000001819
  0
SPLINE
  5
262
330
70
100
AcDbEntity
  8
Visible
100
AcDbSpline
210
0.0
220
0.0
230
1.0
 70
     8
 71
     3
 72
    11
 73
     7
 74
     0
 42
0.000000001
 43
0.0000000001
 40
-2.372799097651388
 40
-2.372799097651388
 40
-2.372799097651388
 40
-2.372799097651388
 40
-0.9903017138546166
 40
-0.9903017138546166
 40
-0.9903017138546166
 40
-0.9103282764627076
 40
-0.9103282764627076
 40
-0.9103282764627076
 40
-0.9103282764627076
 10
55.03408522380778
 20
160.4977314926215
 30
-0.000000000001819
 10
55.27151013829644
 20
160.7871705449634
 30
-0.000000000001819
 10
55.64475817936545
 20
161.0905349337322
 30
-0.000000000001819
 10
55.83430593324919
 20
161.2135911168165
 30
-0.000000000001819
 10
55.84527071741831
 20
161.2207095577401
 30
-0.000000000001819
 10
55.85552969331911
 20
161.2273429701805
 30
-0.000000000001819
 10
55.86507440606329
 20
161.2334918032687
 30
-0.000000000001819
  0
SPLINE
  5
263
330
70
100
AcDbEntity
  8
Visible
100
AcDbSpline
210
0.0
220
0.0
230
1.0
 70
     8
 71
     3
 72
     8
 73
     4
 74
     0
 42
0.000000001
 43
0.0000000001
 40
0.4010013854381479
 40
0.4010013854381479
 40
0.4010013854381479
 40
0.4010013854381479
 40
1.186399548834357
 40
1.186399548834357
 40
1.186399548834357
 40
1.186399548834357
 10
55.86666168416923
 20
161.2353243049872
 30
-0.000000000001819
 10
55.86753671028418
 20
161.2364688481711
 30
-0.000000000001819
 10
55.91303681935824
 20
161.2648368432316
 30
-0.000000000001819
 10
55.99803886217341
 20
161.3136178620426
 30
-0.000000000001819
  0
SPLINE
  5
264
330
70
100
AcDbEntity
  8
Visible
100
AcDbSpline
210
0.0
220
0.0
230
1.0
 70
     8
 71
     3
 72
     8
 73
     4
 74
     0
 42
0.000000001
 43
0.0000000001
 40
0.0
 40
0.0
 40
0.0
 40
0.0
 40
0.5209925740657954
 40
0.5209925740657954
 40
0.5209925740657954
 40
0.5209925740657954
 10
55.99803886217341
 20
161.3136178620428
 30
-0.000000000001819
 10
56.52522073541331
 20
161.6161572837306
 30
-0.000000000001819
 10
57.13230862955424
 20
161.7779783952847
 30
-0.000000000001819
 10
57.74013329929767
 20
161.7779783952847
 30
-0.000000000001819
  0
LINE
  5
265
330
70
100
AcDbEntity
  8
Visible
100
AcDbLine
 10
56.240133
 20
158.277978
 30
0.0
 11
55.360133
 21
158.277978
 31
0.0
210
0.0
220
1.0
230
0.0
  0
SPLINE
  5
266
330
70
100
AcDbEntity
  8
Visible
100
AcDbSpline
210
0.0
220
0.0
230
1.0
 70
     8
 71
     3
 72
     8
 73
     4
 74
     0
 42
0.000000001
 43
0.0000000001
 40
0.0
 40
0.0
 40
0.0
 40
0.0
 40
0.5209925740648402
 40
0.5209925740648402
 40
0.5209925740648402
 40
0.5209925740648402
 10
56.24013329929766
 20
158.2779783952847
 30
-0.000000000001819
 10
56.24013329929766
 20
158.5384746823171
 30
-0.000000000001819
 10
56.30948520424863
 20
158.7986552083769
 30
-0.000000000001819
 10
56.43914495640093
 20
159.0245902969083
 30
-0.000000000001819
  0
LINE
  5
267
330
70
100
AcDbEntity
  8
Visible
100
AcDbLine
 10
55.360133
 20
158.277978
 30
0.0
 11
54.240133
 21
158.277978
 31
0.0
210
0.0
220
1.0
230
0.0
  0
LINE
  5
268
330
70
100
AcDbEntity
  8
Visible
100
AcDbLine
 10
56.240133
 20
153.526566
 30
0.0
 11
56.240133
 21
158.277978
 31
0.0
210
0.0
220
1.0
230
0.0
  0
LINE
  5
269
330
70
100
AcDbEntity
  8
Visible
100
AcDbLine
 10
56.240133
 20
153.526566
 30
0.0
 11
56.240133
 21
152.465906
 31
0.0
210
0.0
220
1.0
230
0.0
  0
LINE
  5
26A
330
70
100
AcDbEntity
  8
Visible
100
AcDbLine
 10
56.240133
 20
152.465906
 30
0.0
 11
56.240133
 21
144.368546
 31
0.0
210
0.0
220
1.0
230
0.0
  0
LINE
  5
26B
330
70
100
AcDbEntity
  8
Visible
100
AcDbLine
 10
56.240133
 20
144.368546
 30
0.0
 11
56.240133
 21
143.307886
 31
0.0
210
0.0
220
1.0
230
0.0
  0
LINE
  5
26C
330
70
100
AcDbEntity
  8
Visible
100
AcDbLine
 10
56.240133
 20
140.586566
 30
0.0
 11
56.240133
 21
143.307886
 31
0.0
210
0.0
220
1.0
230
0.0
  0
LINE
  5
26D
330
70
100
AcDbEntity
  8
Visible
100
AcDbLine
 10
56.240133
 20
140.586566
 30
0.0
 11
56.240133
 21
140.147226
 31
0.0
210
0.0
220
1.0
230
0.0
  0
SPLINE
  5
26E
330
70
100
AcDbEntity
  8
Visible
100
AcDbSpline
210
0.0
220
0.0
230
1.0
 70
     8
 71
     3
 72
     8
 73
     4
 74
     0
 42
0.000000001
 43
0.0000000001
 40
0.0
 40
0.0
 40
0.0
 40
0.0
 40
0.5209925740657954
 40
0.5209925740657954
 40
0.5209925740657954
 40
0.5209925740657954
 10
56.99352139767325
 20
159.578966738181
 30
-0.000000000001819
 10
57.21945648620567
 20
159.7086264903329
 30
-0.000000000001819
 10
57.47963701226581
 20
159.7779783952847
 30
-0.000000000001819
 10
57.74013329929767
 20
159.7779783952847
 30
-0.000000000001819
  0
SPLINE
  5
26F
330
70
100
AcDbEntity
  8
Visible
100
AcDbSpline
210
0.0
220
0.0
230
1.0
 70
     8
 71
     3
 72
     8
 73
     4
 74
     0
 42
0.000000001
 43
0.0000000001
 40
0.4010013854453387
 40
0.4010013854453387
 40
0.4010013854453387
 40
0.4010013854453387
 40
1.186399548834357
 40
1.186399548834357
 40
1.186399548834357
 40
1.186399548834357
 10
56.93721689281483
 20
159.5454123565858
 30
-0.000000000001819
 10
56.93759190400669
 20
159.5459028750934
 30
-0.000000000001819
 10
56.95709195075323
 20
159.5580605872622
 30
-0.000000000001819
 10
56.99352139767325
 20
159.578966738181
 30
-0.000000000001819
  0
ARC
  5
270
330
70
100
AcDbEntity
  8
Visible
100
AcDbCircle
 10
-57.829083
 20
158.190331
 30
0.0
 40
1.624399167494187
210
0.0000000000000001
220
0.0
230
-1.0
100
AcDbArc
 50
39.76221
 51
56.395368
  0
SPLINE
  5
271
330
70
100
AcDbEntity
  8
Visible
100
AcDbSpline
210
0.0
220
0.0
230
1.0
 70
     8
 71
     3
 72
     8
 73
     4
 74
     0
 42
0.000000001
 43
0.0000000001
 40
0.0
 40
0.0
 40
0.0
 40
0.0
 40
1.186399548827752
 40
1.186399548827752
 40
1.186399548827752
 40
1.186399548827752
 10
56.43914495640093
 20
159.0245902969083
 30
-0.000000000001819
 10
56.47072517796733
 20
159.0796195564671
 30
-0.000000000001819
 10
56.52800611753264
 20
159.1654309571435
 30
-0.000000000001819
 10
56.58039841108802
 20
159.2293011528548
 30
-0.000000000001819
  0
LINE
  5
272
330
70
100
AcDbEntity
  8
Visible
100
AcDbLine
 10
54.240133
 20
140.586566
 30
0.0
 11
54.240133
 21
140.147226
 31
0.0
210
0.0
220
1.0
230
0.0
  0
LINE
  5
273
330
70
100
AcDbEntity
  8
Visible
100
AcDbLine
 10
54.240133
 20
140.586566
 30
0.0
 11
54.240133
 21
143.307886
 31
0.0
210
0.0
220
1.0
230
0.0
  0
LINE
  5
274
330
70
100
AcDbEntity
  8
Visible
100
AcDbLine
 10
54.240133
 20
144.368546
 30
0.0
 11
54.240133
 21
143.307886
 31
0.0
210
0.0
220
1.0
230
0.0
  0
LINE
  5
275
330
70
100
AcDbEntity
  8
Visible
100
AcDbLine
 10
54.240133
 20
144.368546
 30
0.0
 11
54.240133
 21
152.465906
 31
0.0
210
0.0
220
1.0
230
0.0
  0
LINE
  5
276
330
70
100
AcDbEntity
  8
Visible
100
AcDbLine
 10
54.240133
 20
152.465906
 30
0.0
 11
54.240133
 21
153.526566
 31
0.0
210
0.0
220
1.0
230
0.0
  0
LINE
  5
277
330
70
100
AcDbEntity
  8
Visible
100
AcDbLine
 10
54.240133
 20
153.526566
 30
0.0
 11
54.240133
 21
158.277978
 31
0.0
210
0.0
220
1.0
230
0.0
  0
LINE
  5
278
330
70
100
AcDbEntity
  8
Visible
100
AcDbLine
 10
57.740133
 20
159.777978
 30
0.0
 11
57.740133
 21
160.657978
 31
0.0
210
0.0
220
1.0
230
0.0
  0
LINE
  5
279
330
70
100
AcDbEntity
  8
Visible
100
AcDbLine
 10
57.740133
 20
159.777978
 30
0.0
 11
62.666157
 21
159.777978
 31
0.0
210
0.0
220
1.0
230
0.0
  0
LINE
  5
27A
330
70
100
AcDbEntity
  8
Visible
100
AcDbLine
 10
57.740133
 20
161.777978
 30
0.0
 11
62.666157
 21
161.777978
 31
0.0
210
0.0
220
1.0
230
0.0
  0
LINE
  5
27B
330
70
100
AcDbEntity
  8
Visible
100
AcDbLine
 10
57.740133
 20
160.657978
 30
0.0
 11
57.740133
 21
161.777978
 31
0.0
210
0.0
220
1.0
230
0.0
  0
LINE
  5
27C
330
70
100
AcDbEntity
  8
Visible
100
AcDbLine
 10
169.014962
 20
159.777978
 30
0.0
 11
168.519973
 21
159.777978
 31
0.0
210
0.0
220
1.0
230
0.0
  0
LINE
  5
27D
330
70
100
AcDbEntity
  8
Visible
100
AcDbLine
 10
165.854302
 20
159.777978
 30
0.0
 11
168.519973
 21
159.777978
 31
0.0
210
0.0
220
1.0
230
0.0
  0
LINE
  5
27E
330
70
100
AcDbEntity
  8
Visible
100
AcDbLine
 10
165.854302
 20
159.777978
 30
0.0
 11
165.414962
 21
159.777978
 31
0.0
210
0.0
220
1.0
230
0.0
  0
LINE
  5
27F
330
70
100
AcDbEntity
  8
Visible
100
AcDbLine
 10
165.414962
 20
159.777978
 30
0.0
 11
164.975623
 21
159.777978
 31
0.0
210
0.0
220
1.0
230
0.0
  0
LINE
  5
280
330
70
100
AcDbEntity
  8
Visible
100
AcDbLine
 10
164.104302
 20
159.777978
 30
0.0
 11
164.975623
 21
159.777978
 31
0.0
210
0.0
220
1.0
230
0.0
  0
LINE
  5
281
330
70
100
AcDbEntity
  8
Visible
100
AcDbLine
 10
164.104302
 20
159.777978
 30
0.0
 11
163.043642
 21
159.777978
 31
0.0
210
0.0
220
1.0
230
0.0
  0
LINE
  5
282
330
70
100
AcDbEntity
  8
Visible
100
AcDbLine
 10
160.786283
 20
159.777978
 30
0.0
 11
163.043642
 21
159.777978
 31
0.0
210
0.0
220
1.0
230
0.0
  0
LINE
  5
283
330
70
100
AcDbEntity
  8
Visible
100
AcDbLine
 10
160.786283
 20
159.777978
 30
0.0
 11
159.725623
 21
159.777978
 31
0.0
210
0.0
220
1.0
230
0.0
  0
LINE
  5
284
330
70
100
AcDbEntity
  8
Visible
100
AcDbLine
 10
159.725623
 20
159.777978
 30
0.0
 11
158.854302
 21
159.777978
 31
0.0
210
0.0
220
1.0
230
0.0
  0
LINE
  5
285
330
70
100
AcDbEntity
  8
Visible
100
AcDbLine
 10
158.854302
 20
159.777978
 30
0.0
 11
158.414962
 21
159.777978
 31
0.0
210
0.0
220
1.0
230
0.0
  0
LINE
  5
286
330
70
100
AcDbEntity
  8
Visible
100
AcDbLine
 10
158.414962
 20
159.777978
 30
0.0
 11
157.975623
 21
159.777978
 31
0.0
210
0.0
220
1.0
230
0.0
  0
LINE
  5
287
330
70
100
AcDbEntity
  8
Visible
100
AcDbLine
 10
157.975623
 20
159.777978
 30
0.0
 11
155.254302
 21
159.777978
 31
0.0
210
0.0
220
1.0
230
0.0
  0
LINE
  5
288
330
70
100
AcDbEntity
  8
Visible
100
AcDbLine
 10
155.254302
 20
159.777978
 30
0.0
 11
154.193642
 21
159.777978
 31
0.0
210
0.0
220
1.0
230
0.0
  0
LINE
  5
289
330
70
100
AcDbEntity
  8
Visible
100
AcDbLine
 10
154.193642
 20
159.777978
 30
0.0
 11
111.636283
 21
159.777978
 31
0.0
210
0.0
220
1.0
230
0.0
  0
LINE
  5
28A
330
70
100
AcDbEntity
  8
Visible
100
AcDbLine
 10
111.636283
 20
159.777978
 30
0.0
 11
110.575623
 21
159.777978
 31
0.0
210
0.0
220
1.0
230
0.0
  0
LINE
  5
28B
330
70
100
AcDbEntity
  8
Visible
100
AcDbLine
 10
107.854302
 20
159.777978
 30
0.0
 11
110.575623
 21
159.777978
 31
0.0
210
0.0
220
1.0
230
0.0
  0
LINE
  5
28C
330
70
100
AcDbEntity
  8
Visible
100
AcDbLine
 10
107.854302
 20
159.777978
 30
0.0
 11
107.414962
 21
159.777978
 31
0.0
210
0.0
220
1.0
230
0.0
  0
LINE
  5
28D
330
70
100
AcDbEntity
  8
Visible
100
AcDbLine
 10
107.414962
 20
159.777978
 30
0.0
 11
106.975623
 21
159.777978
 31
0.0
210
0.0
220
1.0
230
0.0
  0
LINE
  5
28E
330
70
100
AcDbEntity
  8
Visible
100
AcDbLine
 10
106.104302
 20
159.777978
 30
0.0
 11
106.975623
 21
159.777978
 31
0.0
210
0.0
220
1.0
230
0.0
  0
LINE
  5
28F
330
70
100
AcDbEntity
  8
Visible
100
AcDbLine
 10
106.104302
 20
159.777978
 30
0.0
 11
105.043642
 21
159.777978
 31
0.0
210
0.0
220
1.0
230
0.0
  0
LINE
  5
290
330
70
100
AcDbEntity
  8
Visible
100
AcDbLine
 10
105.043642
 20
159.777978
 30
0.0
 11
102.786283
 21
159.777978
 31
0.0
210
0.0
220
1.0
230
0.0
  0
LINE
  5
291
330
70
100
AcDbEntity
  8
Visible
100
AcDbLine
 10
102.786283
 20
159.777978
 30
0.0
 11
101.725623
 21
159.777978
 31
0.0
210
0.0
220
1.0
230
0.0
  0
LINE
  5
292
330
70
100
AcDbEntity
  8
Visible
100
AcDbLine
 10
101.725623
 20
159.777978
 30
0.0
 11
100.854302
 21
159.777978
 31
0.0
210
0.0
220
1.0
230
0.0
  0
LINE
  5
293
330
70
100
AcDbEntity
  8
Visible
100
AcDbLine
 10
100.854302
 20
159.777978
 30
0.0
 11
100.414962
 21
159.777978
 31
0.0
210
0.0
220
1.0
230
0.0
  0
LINE
  5
294
330
70
100
AcDbEntity
  8
Visible
100
AcDbLine
 10
100.414962
 20
159.777978
 30
0.0
 11
99.975623
 21
159.777978
 31
0.0
210
0.0
220
1.0
230
0.0
  0
LINE
  5
295
330
70
100
AcDbEntity
  8
Visible
100
AcDbLine
 10
97.254302
 20
159.777978
 30
0.0
 11
99.975623
 21
159.777978
 31
0.0
210
0.0
220
1.0
230
0.0
  0
LINE
  5
296
330
70
100
AcDbEntity
  8
Visible
100
AcDbLine
 10
97.254302
 20
159.777978
 30
0.0
 11
96.193642
 21
159.777978
 31
0.0
210
0.0
220
1.0
230
0.0
  0
LINE
  5
297
330
70
100
AcDbEntity
  8
Visible
100
AcDbLine
 10
96.193642
 20
159.777978
 30
0.0
 11
63.726817
 21
159.777978
 31
0.0
210
0.0
220
1.0
230
0.0
  0
LINE
  5
298
330
70
100
AcDbEntity
  8
Visible
100
AcDbLine
 10
63.726817
 20
159.777978
 30
0.0
 11
62.666157
 21
159.777978
 31
0.0
210
0.0
220
1.0
230
0.0
  0
LINE
  5
299
330
70
100
AcDbEntity
  8
Visible
100
AcDbLine
 10
160.786283
 20
161.777978
 30
0.0
 11
159.725623
 21
161.777978
 31
0.0
210
0.0
220
1.0
230
0.0
  0
LINE
  5
29A
330
70
100
AcDbEntity
  8
Visible
100
AcDbLine
 10
158.854302
 20
161.777978
 30
0.0
 11
159.725623
 21
161.777978
 31
0.0
210
0.0
220
1.0
230
0.0
  0
LINE
  5
29B
330
70
100
AcDbEntity
  8
Visible
100
AcDbLine
 10
158.854302
 20
161.777978
 30
0.0
 11
158.414962
 21
161.777978
 31
0.0
210
0.0
220
1.0
230
0.0
  0
LINE
  5
29C
330
70
100
AcDbEntity
  8
Visible
100
AcDbLine
 10
158.414962
 20
159.777978
 30
0.0
 11
158.414962
 21
161.777978
 31
0.0
210
0.0
220
1.0
230
0.0
  0
LINE
  5
29D
330
70
100
AcDbEntity
  8
Visible
100
AcDbLine
 10
157.975623
 20
161.777978
 30
0.0
 11
158.414962
 21
161.777978
 31
0.0
210
0.0
220
1.0
230
0.0
  0
LINE
  5
29E
330
70
100
AcDbEntity
  8
Visible
100
AcDbLine
 10
155.254302
 20
161.777978
 30
0.0
 11
157.975623
 21
161.777978
 31
0.0
210
0.0
220
1.0
230
0.0
  0
LINE
  5
29F
330
70
100
AcDbEntity
  8
Visible
100
AcDbLine
 10
154.193642
 20
161.777978
 30
0.0
 11
155.254302
 21
161.777978
 31
0.0
210
0.0
220
1.0
230
0.0
  0
LINE
  5
2A0
330
70
100
AcDbEntity
  8
Visible
100
AcDbLine
 10
111.636283
 20
161.777978
 30
0.0
 11
154.193642
 21
161.777978
 31
0.0
210
0.0
220
1.0
230
0.0
  0
LINE
  5
2A1
330
70
100
AcDbEntity
  8
Visible
100
AcDbLine
 10
110.575623
 20
161.777978
 30
0.0
 11
111.636283
 21
161.777978
 31
0.0
210
0.0
220
1.0
230
0.0
  0
LINE
  5
2A2
330
70
100
AcDbEntity
  8
Visible
100
AcDbLine
 10
107.854302
 20
161.777978
 30
0.0
 11
110.575623
 21
161.777978
 31
0.0
210
0.0
220
1.0
230
0.0
  0
LINE
  5
2A3
330
70
100
AcDbEntity
  8
Visible
100
AcDbLine
 10
107.414962
 20
161.777978
 30
0.0
 11
107.854302
 21
161.777978
 31
0.0
210
0.0
220
1.0
230
0.0
  0
LINE
  5
2A4
330
70
100
AcDbEntity
  8
Visible
100
AcDbLine
 10
107.414962
 20
159.777978
 30
0.0
 11
107.414962
 21
161.777978
 31
0.0
210
0.0
220
1.0
230
0.0
  0
LINE
  5
2A5
330
70
100
AcDbEntity
  8
Visible
100
AcDbLine
 10
107.414962
 20
161.777978
 30
0.0
 11
106.975623
 21
161.777978
 31
0.0
210
0.0
220
1.0
230
0.0
  0
LINE
  5
2A6
330
70
100
AcDbEntity
  8
Visible
100
AcDbLine
 10
106.104302
 20
161.777978
 30
0.0
 11
106.975623
 21
161.777978
 31
0.0
210
0.0
220
1.0
230
0.0
  0
LINE
  5
2A7
330
70
100
AcDbEntity
  8
Visible
100
AcDbLine
 10
106.104302
 20
161.777978
 30
0.0
 11
105.043642
 21
161.777978
 31
0.0
210
0.0
220
1.0
230
0.0
  0
LINE
  5
2A8
330
70
100
AcDbEntity
  8
Visible
100
AcDbLine
 10
102.786283
 20
161.777978
 30
0.0
 11
105.043642
 21
161.777978
 31
0.0
210
0.0
220
1.0
230
0.0
  0
LINE
  5
2A9
330
70
100
AcDbEntity
  8
Visible
100
AcDbLine
 10
102.786283
 20
161.777978
 30
0.0
 11
101.725623
 21
161.777978
 31
0.0
210
0.0
220
1.0
230
0.0
  0
LINE
  5
2AA
330
70
100
AcDbEntity
  8
Visible
100
AcDbLine
 10
100.854302
 20
161.777978
 30
0.0
 11
101.725623
 21
161.777978
 31
0.0
210
0.0
220
1.0
230
0.0
  0
LINE
  5
2AB
330
70
100
AcDbEntity
  8
Visible
100
AcDbLine
 10
100.854302
 20
161.777978
 30
0.0
 11
100.414962
 21
161.777978
 31
0.0
210
0.0
220
1.0
230
0.0
  0
LINE
  5
2AC
330
70
100
AcDbEntity
  8
Visible
100
AcDbLine
 10
100.414962
 20
159.777978
 30
0.0
 11
100.414962
 21
161.777978
 31
0.0
210
0.0
220
1.0
230
0.0
  0
LINE
  5
2AD
330
70
100
AcDbEntity
  8
Visible
100
AcDbLine
 10
99.975623
 20
161.777978
 30
0.0
 11
100.414962
 21
161.777978
 31
0.0
210
0.0
220
1.0
230
0.0
  0
LINE
  5
2AE
330
70
100
AcDbEntity
  8
Visible
100
AcDbLine
 10
97.254302
 20
161.777978
 30
0.0
 11
99.975623
 21
161.777978
 31
0.0
210
0.0
220
1.0
230
0.0
  0
LINE
  5
2AF
330
70
100
AcDbEntity
  8
Visible
100
AcDbLine
 10
96.193642
 20
161.777978
 30
0.0
 11
97.254302
 21
161.777978
 31
0.0
210
0.0
220
1.0
230
0.0
  0
LINE
  5
2B0
330
70
100
AcDbEntity
  8
Visible
100
AcDbLine
 10
63.726817
 20
161.777978
 30
0.0
 11
96.193642
 21
161.777978
 31
0.0
210
0.0
220
1.0
230
0.0
  0
LINE
  5
2B1
330
70
100
AcDbEntity
  8
Visible
100
AcDbLine
 10
63.726817
 20
161.777978
 30
0.0
 11
62.666157
 21
161.777978
 31
0.0
210
0.0
220
1.0
230
0.0
  0
LINE
  5
2B2
330
70
100
AcDbEntity
  8
Visible
100
AcDbLine
 10
56.240133
 20
140.147226
 30
0.0
 11
54.240133
 21
140.147226
 31
0.0
210
0.0
220
1.0
230
0.0
  0
LINE
  5
2B3
330
70
100
AcDbEntity
  8
Visible
100
AcDbLine
 10
169.014962
 20
159.777978
 30
0.0
 11
169.014962
 21
161.777978
 31
0.0
210
0.0
220
1.0
230
0.0
  0
LINE
  5
2B4
330
70
100
AcDbEntity
  8
Visible
100
AcDbLine
 10
169.014962
 20
161.777978
 30
0.0
 11
168.519973
 21
161.777978
 31
0.0
210
0.0
220
1.0
230
0.0
  0
LINE
  5
2B5
330
70
100
AcDbEntity
  8
Visible
100
AcDbLine
 10
165.854302
 20
161.777978
 30
0.0
 11
168.519973
 21
161.777978
 31
0.0
210
0.0
220
1.0
230
0.0
  0
LINE
  5
2B6
330
70
100
AcDbEntity
  8
Visible
100
AcDbLine
 10
165.414962
 20
161.777978
 30
0.0
 11
165.854302
 21
161.777978
 31
0.0
210
0.0
220
1.0
230
0.0
  0
LINE
  5
2B7
330
70
100
AcDbEntity
  8
Visible
100
AcDbLine
 10
165.414962
 20
159.777978
 30
0.0
 11
165.414962
 21
161.777978
 31
0.0
210
0.0
220
1.0
230
0.0
  0
LINE
  5
2B8
330
70
100
AcDbEntity
  8
Visible
100
AcDbLine
 10
165.414962
 20
161.777978
 30
0.0
 11
164.975623
 21
161.777978
 31
0.0
210
0.0
220
1.0
230
0.0
  0
LINE
  5
2B9
330
70
100
AcDbEntity
  8
Visible
100
AcDbLine
 10
164.104302
 20
161.777978
 30
0.0
 11
164.975623
 21
161.777978
 31
0.0
210
0.0
220
1.0
230
0.0
  0
LINE
  5
2BA
330
70
100
AcDbEntity
  8
Visible
100
AcDbLine
 10
164.104302
 20
161.777978
 30
0.0
 11
163.043642
 21
161.777978
 31
0.0
210
0.0
220
1.0
230
0.0
  0
LINE
  5
2BB
330
70
100
AcDbEntity
  8
Visible
100
AcDbLine
 10
160.786283
 20
161.777978
 30
0.0
 11
163.043642
 21
161.777978
 31
0.0
210
0.0
220
1.0
230
0.0
  0
LINE
  5
2BC
330
70
100
AcDbEntity
  8
Visible
100
AcDbLine
 10
56.936635
 20
159.544624
 30
0.0
 11
55.865304
 21
161.233484
 31
0.0
210
0.0
220
1.0
230
0.0
  0
LINE
  5
2BD
330
70
100
AcDbEntity
  8
Visible
100
AcDbLine
 10
52.16293
 20
207.387148
 30
0.0
 11
53.28293
 21
207.387148
 31
0.0
  0
LINE
  5
2BE
330
70
100
AcDbEntity
  8
Visible
100
AcDbLine
 10
53.28293
 20
207.387148
 30
0.0
 11
54.16293
 21
207.387148
 31
0.0
  0
LINE
  5
2BF
330
70
100
AcDbEntity
  8
Visible
100
AcDbLine
 10
54.16293
 20
207.387148
 30
0.0
 11
54.16293
 21
208.2598
 31
0.0
  0
LINE
  5
2C0
330
70
100
AcDbEntity
  8
Visible
100
AcDbLine
 10
52.16293
 20
207.387148
 30
0.0
 11
52.16293
 21
208.2598
 31
0.0
  0
LINE
  5
2C1
330
70
100
AcDbEntity
  8
Visible
100
AcDbLine
 10
52.16293
 20
199.168032
 30
0.0
 11
52.16293
 21
207.387148
 31
0.0
  0
SPLINE
  5
2C2
330
70
100
AcDbEntity
  8
Visible
100
AcDbSpline
210
0.0
220
0.0
230
1.0
 70
     8
 71
     3
 72
     8
 73
     4
 74
     0
 42
0.000000001
 43
0.0000000001
 40
0.0
 40
0.0
 40
0.0
 40
0.0
 40
0.5209925740648402
 40
0.5209925740648402
 40
0.5209925740648402
 40
0.5209925740648402
 10
52.16293001130361
 20
199.1680318390881
 30
0.0
 10
52.16293001130361
 20
198.7547110636624
 30
0.0
 10
52.32475112285829
 20
198.3413902882384
 30
0.0
 10
52.62729054454394
 20
197.9280695128127
 30
0.0
  0
SPLINE
  5
2C3
330
70
100
AcDbEntity
  8
Visible
100
AcDbSpline
210
0.0
220
0.0
230
1.0
 70
     8
 71
     3
 72
     8
 73
     4
 74
     0
 42
0.000000001
 43
0.0000000001
 40
0.0
 40
0.0
 40
0.0
 40
0.0
 40
1.186399544007193
 40
1.186399544007193
 40
1.186399544007193
 40
1.186399544007193
 10
52.62729054454394
 20
197.9280695128127
 30
0.0
 10
52.70097772789995
 20
197.8274001732807
 30
0.0
 10
52.83463325276534
 20
197.7956145746247
 30
0.0
 10
52.9568819373253
 20
197.8511865465753
 30
0.0
  0
SPLINE
  5
2C4
330
70
100
AcDbEntity
  8
Visible
100
AcDbSpline
210
0.0
220
0.0
230
1.0
 70
     8
 71
     3
 72
    11
 73
     7
 74
     0
 42
0.000000001
 43
0.0000000001
 40
-2.372799097651388
 40
-2.372799097651388
 40
-2.372799097651388
 40
-2.372799097651388
 40
-0.9903017138546166
 40
-0.9903017138546166
 40
-0.9903017138546166
 40
0.0
 40
0.0
 40
0.0
 40
0.0
 10
52.95688193581373
 20
197.8511865548462
 30
0.0
 10
53.19430685030238
 20
197.9591154944191
 30
0.0
 10
53.5675548913714
 20
197.8621141506173
 30
0.0
 10
53.75710264525515
 20
197.6322519109235
 30
0.0
 10
53.89287828413035
 20
197.4675984565401
 30
0.0
 10
53.92042825441058
 20
197.2469282493675
 30
0.0
 10
53.82369893569012
 20
197.064579919821
 30
0.0
  0
SPLINE
  5
2C5
330
70
100
AcDbEntity
  8
Visible
100
AcDbSpline
210
0.0
220
0.0
230
1.0
 70
     8
 71
     3
 72
     8
 73
     4
 74
     0
 42
0.000000001
 43
0.0000000001
 40
0.0
 40
0.0
 40
0.0
 40
0.0
 40
1.186399548834357
 40
1.186399548834357
 40
1.186399548834357
 40
1.186399548834357
 10
53.82369892619135
 20
197.0645799230387
 30
0.0
 10
53.75416883151956
 20
196.9335059445475
 30
0.0
 10
53.79243396854144
 20
196.7701682475235
 30
0.0
 10
53.92083557417937
 20
196.6694989075822
 30
0.0
  0
SPLINE
  5
2C6
330
70
100
AcDbEntity
  8
Visible
100
AcDbSpline
210
0.0
220
0.0
230
1.0
 70
     8
 71
     3
 72
     8
 73
     4
 74
     0
 42
0.000000001
 43
0.0000000001
 40
0.0
 40
0.0
 40
0.0
 40
0.0
 40
0.5209925740657954
 40
0.5209925740657954
 40
0.5209925740657954
 40
0.5209925740657954
 10
53.92083557417937
 20
196.6694989075822
 30
0.0
 10
54.44801744741926
 20
196.2561781321565
 30
0.0
 10
55.05510534156019
 20
195.8428573567325
 30
0.0
 10
55.66293001130361
 20
195.4295365813068
 30
0.0
  0
LINE
  5
2C7
330
70
100
AcDbEntity
  8
Visible
100
AcDbLine
 10
52.583842
 20
206.814173
 30
0.0
 11
55.66293
 21
206.814173
 31
0.0
  0
SPLINE
  5
2C8
330
70
100
AcDbEntity
  8
Visible
100
AcDbSpline
210
0.0
220
0.0
230
1.0
 70
     8
 71
     3
 72
     8
 73
     4
 74
     0
 42
0.000000001
 43
0.0000000001
 40
0.0
 40
0.0
 40
0.0
 40
0.0
 40
0.904579074891971
 40
0.904579074891971
 40
0.904579074891971
 40
0.904579074891971
 10
52.58384159085108
 20
206.8141728388109
 30
0.0
 10
52.26760080326494
 20
206.8141728388109
 30
0.0
 10
52.16293001130361
 20
207.0315737687979
 30
0.0
 10
52.16293001130361
 20
207.3871480118651
 30
0.0
  0
LINE
  5
2C9
330
70
100
AcDbEntity
  8
Visible
100
AcDbLine
 10
54.16293
 20
232.268546
 30
0.0
 11
54.16293
 21
233.141198
 31
0.0
  0
LINE
  5
2CA
330
70
100
AcDbEntity
  8
Visible
100
AcDbLine
 10
54.16293
 20
232.268546
 30
0.0
 11
54.16293
 21
231.921595
 31
0.0
  0
LINE
  5
2CB
330
70
100
AcDbEntity
  8
Visible
100
AcDbLine
 10
54.16293
 20
231.843079
 30
0.0
 11
54.16293
 21
231.921595
 31
0.0
  0
LINE
  5
2CC
330
70
100
AcDbEntity
  8
Visible
100
AcDbLine
 10
54.16293
 20
229.685266
 30
0.0
 11
54.16293
 21
231.843079
 31
0.0
  0
LINE
  5
2CD
330
70
100
AcDbEntity
  8
Visible
100
AcDbLine
 10
54.16293
 20
229.604113
 30
0.0
 11
54.16293
 21
229.685266
 31
0.0
  0
LINE
  5
2CE
330
70
100
AcDbEntity
  8
Visible
100
AcDbLine
 10
54.16293
 20
229.604113
 30
0.0
 11
54.16293
 21
229.272515
 31
0.0
  0
LINE
  5
2CF
330
70
100
AcDbEntity
  8
Visible
100
AcDbLine
 10
54.16293
 20
229.272515
 30
0.0
 11
54.16293
 21
227.654173
 31
0.0
  0
LINE
  5
2D0
330
70
100
AcDbEntity
  8
Visible
100
AcDbLine
 10
54.16293
 20
226.1548
 30
0.0
 11
54.16293
 21
227.654173
 31
0.0
  0
LINE
  5
2D1
330
70
100
AcDbEntity
  8
Visible
100
AcDbLine
 10
54.16293
 20
214.373546
 30
0.0
 11
54.16293
 21
226.1548
 31
0.0
  0
LINE
  5
2D2
330
70
100
AcDbEntity
  8
Visible
100
AcDbLine
 10
54.16293
 20
212.874173
 30
0.0
 11
54.16293
 21
214.373546
 31
0.0
  0
LINE
  5
2D3
330
70
100
AcDbEntity
  8
Visible
100
AcDbLine
 10
54.16293
 20
212.874173
 30
0.0
 11
54.16293
 21
211.255831
 31
0.0
  0
LINE
  5
2D4
330
70
100
AcDbEntity
  8
Visible
100
AcDbLine
 10
54.16293
 20
211.255831
 30
0.0
 11
54.16293
 21
210.924233
 31
0.0
  0
LINE
  5
2D5
330
70
100
AcDbEntity
  8
Visible
100
AcDbLine
 10
54.16293
 20
210.843079
 30
0.0
 11
54.16293
 21
210.924233
 31
0.0
  0
LINE
  5
2D6
330
70
100
AcDbEntity
  8
Visible
100
AcDbLine
 10
54.16293
 20
208.685266
 30
0.0
 11
54.16293
 21
210.843079
 31
0.0
  0
LINE
  5
2D7
330
70
100
AcDbEntity
  8
Visible
100
AcDbLine
 10
54.16293
 20
208.606751
 30
0.0
 11
54.16293
 21
208.685266
 31
0.0
  0
LINE
  5
2D8
330
70
100
AcDbEntity
  8
Visible
100
AcDbLine
 10
54.16293
 20
208.606751
 30
0.0
 11
54.16293
 21
208.2598
 31
0.0
  0
LINE
  5
2D9
330
70
100
AcDbEntity
  8
Visible
100
AcDbLine
 10
52.16293
 20
233.141198
 30
0.0
 11
52.16293
 21
241.360314
 31
0.0
  0
SPLINE
  5
2DA
330
70
100
AcDbEntity
  8
Visible
100
AcDbSpline
210
0.0
220
0.0
230
1.0
 70
     8
 71
     3
 72
     8
 73
     4
 74
     0
 42
0.000000001
 43
0.0000000001
 40
0.6299608531625374
 40
0.6299608531625374
 40
0.6299608531625374
 40
0.6299608531625374
 40
1.534539928054452
 40
1.534539928054452
 40
1.534539928054452
 40
1.534539928054452
 10
52.16293001130361
 20
233.1411976656836
 30
0.0
 10
52.16293001130361
 20
233.4967719087526
 30
0.0
 10
52.26760080326494
 20
233.7141728387396
 30
0.0
 10
52.58384159085108
 20
233.7141728387396
 30
0.0
  0
LINE
  5
2DB
330
70
100
AcDbEntity
  8
Visible
100
AcDbLine
 10
55.66293
 20
233.714173
 30
0.0
 11
52.583842
 21
233.714173
 31
0.0
  0
SPLINE
  5
2DC
330
70
100
AcDbEntity
  8
Visible
100
AcDbSpline
210
0.0
220
0.0
230
1.0
 70
     8
 71
     3
 72
     8
 73
     4
 74
     0
 42
0.000000001
 43
0.0000000001
 40
0.0
 40
0.0
 40
0.0
 40
0.0
 40
0.5209925740655532
 40
0.5209925740655532
 40
0.5209925740655532
 40
0.5209925740655532
 10
55.66293001130361
 20
245.0988090962419
 30
0.0
 10
55.05510534156019
 20
244.685488320818
 30
0.0
 10
54.44801744742107
 20
244.2721675453922
 30
0.0
 10
53.92083557417937
 20
243.8588467699683
 30
0.0
  0
SPLINE
  5
2DD
330
70
100
AcDbEntity
  8
Visible
100
AcDbSpline
210
0.0
220
0.0
230
1.0
 70
     8
 71
     3
 72
     8
 73
     4
 74
     0
 42
0.000000001
 43
0.0000000001
 40
0.0
 40
0.0
 40
0.0
 40
0.0
 40
1.18639954883659
 40
1.18639954883659
 40
1.18639954883659
 40
1.18639954883659
 10
53.92083557417937
 20
243.8588467699683
 30
0.0
 10
53.79243396854144
 20
243.758177430027
 30
0.0
 10
53.75416883151956
 20
243.594839733003
 30
0.0
 10
53.82369892619135
 20
243.46376575451
 30
0.0
  0
SPLINE
  5
2DE
330
70
100
AcDbEntity
  8
Visible
100
AcDbSpline
210
0.0
220
0.0
230
1.0
 70
     8
 71
     3
 72
    11
 73
     7
 74
     0
 42
0.000000001
 43
0.0000000001
 40
-2.372799097655432
 40
-2.372799097655432
 40
-2.372799097655432
 40
-2.372799097655432
 40
-1.018643620747883
 40
-1.018643620747883
 40
-1.018643620747883
 40
-0.0000000028925414
 40
-0.0000000028925414
 40
-0.0000000028925414
 40
-0.0000000028925414
 10
53.82369893569012
 20
243.4637657577277
 30
0.0
 10
53.95596825814937
 20
243.2144195375768
 30
0.0
 10
53.83497652525875
 20
242.8972560300299
 30
0.0
 10
53.57442264744896
 20
242.7404137849226
 30
0.0
 10
53.37842481022562
 20
242.6224315039271
 30
0.0
 10
53.13181997136962
 20
242.5976355540643
 30
0.0
 10
52.95688193730166
 20
242.6771591220277
 30
0.0
  0
SPLINE
  5
2DF
330
70
100
AcDbEntity
  8
Visible
100
AcDbSpline
210
0.0
220
0.0
230
1.0
 70
     8
 71
     3
 72
     8
 73
     4
 74
     0
 42
0.000000001
 43
0.0000000001
 40
0.0
 40
0.0
 40
0.0
 40
0.0
 40
1.186399548827665
 40
1.186399548827665
 40
1.186399548827665
 40
1.186399548827665
 10
52.95688193881324
 20
242.6771591302968
 30
0.0
 10
52.83463325384946
 20
242.7327311031841
 30
0.0
 10
52.70097772819645
 20
242.7009455046773
 30
0.0
 10
52.62729054454212
 20
242.600276164736
 30
0.0
  0
SPLINE
  5
2E0
330
70
100
AcDbEntity
  8
Visible
100
AcDbSpline
210
0.0
220
0.0
230
1.0
 70
     8
 71
     3
 72
     8
 73
     4
 74
     0
 42
0.000000001
 43
0.0000000001
 40
0.0
 40
0.0
 40
0.0
 40
0.0
 40
0.5209925740638834
 40
0.5209925740638834
 40
0.5209925740638834
 40
0.5209925740638834
 10
52.62729054454212
 20
242.600276164736
 30
0.0
 10
52.32475112285647
 20
242.1869553893121
 30
0.0
 10
52.16293001130361
 20
241.7736346138881
 30
0.0
 10
52.16293001130361
 20
241.3603138384642
 30
0.0
  0
LINE
  5
2E1
330
70
100
AcDbEntity
  8
Visible
100
AcDbLine
 10
54.16293
 20
233.141198
 30
0.0
 11
53.28293
 21
233.141198
 31
0.0
  0
SPLINE
  5
2E2
330
70
100
AcDbEntity
  8
Visible
100
AcDbSpline
210
0.0
220
0.0
230
1.0
 70
     8
 71
     3
 72
     8
 73
     4
 74
     0
 42
0.000000001
 43
0.0000000001
 40
0.6299608531625374
 40
0.6299608531625374
 40
0.6299608531625374
 40
0.6299608531625374
 40
1.534539928054452
 40
1.534539928054452
 40
1.534539928054452
 40
1.534539928054452
 10
54.16293001130362
 20
233.1411976656836
 30
0.0
 10
54.16293001130362
 20
233.4967719087526
 30
0.0
 10
54.20778892214366
 20
233.7141728387396
 30
0.0
 10
54.34332068825279
 20
233.7141728387396
 30
0.0
  0
LINE
  5
2E3
330
70
100
AcDbEntity
  8
Visible
100
AcDbLine
 10
53.28293
 20
233.141198
 30
0.0
 11
52.16293
 21
233.141198
 31
0.0
  0
SPLINE
  5
2E4
330
70
100
AcDbEntity
  8
Visible
100
AcDbSpline
210
0.0
220
0.0
230
1.0
 70
     8
 71
     3
 72
     8
 73
     4
 74
     0
 42
0.000000001
 43
0.0000000001
 40
0.0
 40
0.0
 40
0.0
 40
0.0
 40
0.904579074891971
 40
0.904579074891971
 40
0.904579074891971
 40
0.904579074891971
 10
54.34332068825279
 20
206.8141728388109
 30
0.0
 10
54.20778892214366
 20
206.8141728388109
 30
0.0
 10
54.16293001130362
 20
207.0315737687979
 30
0.0
 10
54.16293001130362
 20
207.3871480118651
 30
0.0
  0
LINE
  5
2E5
330
70
100
AcDbEntity
  8
Visible
100
AcDbLine
 10
52.16293
 20
208.606751
 30
0.0
 11
52.16293
 21
208.2598
 31
0.0
  0
LINE
  5
2E6
330
70
100
AcDbEntity
  8
Visible
100
AcDbLine
 10
52.16293
 20
208.606751
 30
0.0
 11
52.16293
 21
208.685266
 31
0.0
  0
LINE
  5
2E7
330
70
100
AcDbEntity
  8
Visible
100
AcDbLine
 10
52.16293
 20
208.685266
 30
0.0
 11
52.16293
 21
210.843079
 31
0.0
  0
LINE
  5
2E8
330
70
100
AcDbEntity
  8
Visible
100
AcDbLine
 10
52.16293
 20
210.843079
 30
0.0
 11
52.16293
 21
210.924233
 31
0.0
  0
LINE
  5
2E9
330
70
100
AcDbEntity
  8
Visible
100
AcDbLine
 10
52.16293
 20
211.255831
 30
0.0
 11
52.16293
 21
210.924233
 31
0.0
  0
LINE
  5
2EA
330
70
100
AcDbEntity
  8
Visible
100
AcDbLine
 10
52.16293
 20
212.874173
 30
0.0
 11
52.16293
 21
211.255831
 31
0.0
  0
LINE
  5
2EB
330
70
100
AcDbEntity
  8
Visible
100
AcDbLine
 10
52.16293
 20
212.874173
 30
0.0
 11
52.16293
 21
214.373546
 31
0.0
  0
LINE
  5
2EC
330
70
100
AcDbEntity
  8
Visible
100
AcDbLine
 10
52.16293
 20
214.373546
 30
0.0
 11
52.16293
 21
226.1548
 31
0.0
  0
LINE
  5
2ED
330
70
100
AcDbEntity
  8
Visible
100
AcDbLine
 10
52.16293
 20
226.1548
 30
0.0
 11
52.16293
 21
227.654173
 31
0.0
  0
LINE
  5
2EE
330
70
100
AcDbEntity
  8
Visible
100
AcDbLine
 10
52.16293
 20
229.272515
 30
0.0
 11
52.16293
 21
227.654173
 31
0.0
  0
LINE
  5
2EF
330
70
100
AcDbEntity
  8
Visible
100
AcDbLine
 10
52.16293
 20
229.604113
 30
0.0
 11
52.16293
 21
229.272515
 31
0.0
  0
LINE
  5
2F0
330
70
100
AcDbEntity
  8
Visible
100
AcDbLine
 10
52.16293
 20
229.604113
 30
0.0
 11
52.16293
 21
229.685266
 31
0.0
  0
LINE
  5
2F1
330
70
100
AcDbEntity
  8
Visible
100
AcDbLine
 10
52.16293
 20
229.685266
 30
0.0
 11
52.16293
 21
231.843079
 31
0.0
  0
LINE
  5
2F2
330
70
100
AcDbEntity
  8
Visible
100
AcDbLine
 10
52.16293
 20
231.843079
 30
0.0
 11
52.16293
 21
231.921595
 31
0.0
  0
LINE
  5
2F3
330
70
100
AcDbEntity
  8
Visible
100
AcDbLine
 10
52.16293
 20
232.268546
 30
0.0
 11
52.16293
 21
231.921595
 31
0.0
  0
LINE
  5
2F4
330
70
100
AcDbEntity
  8
Visible
100
AcDbLine
 10
52.16293
 20
232.268546
 30
0.0
 11
52.16293
 21
233.141198
 31
0.0
  0
LINE
  5
2F5
330
70
100
AcDbEntity
  8
Visible
100
AcDbLine
 10
55.66293
 20
195.429537
 30
0.0
 11
60.588954
 21
190.503513
 31
0.0
  0
LINE
  5
2F6
330
70
100
AcDbEntity
  8
Visible
100
AcDbLine
 10
60.588954
 20
250.024833
 30
0.0
 11
55.66293
 21
245.098809
 31
0.0
  0
ARC
  5
2F7
330
70
100
AcDbEntity
  8
Visible
100
AcDbCircle
 10
-65.275003
 20
232.214173
 30
0.0
 40
1.499999999999772
210
0.0
220
0.0
230
-1.0
100
AcDbArc
 50
90.0
 51
180.0
  0
LINE
  5
2F8
330
70
100
AcDbEntity
  8
Visible
100
AcDbLine
 10
55.66293
 20
233.714173
 30
0.0
 11
65.275003
 21
233.714173
 31
0.0
  0
LINE
  5
2F9
330
70
100
AcDbEntity
  8
Visible
100
AcDbLine
 10
54.16293
 20
231.843079
 30
0.0
 11
52.16293
 21
231.843079
 31
0.0
  0
LINE
  5
2FA
330
70
100
AcDbEntity
  8
Visible
100
AcDbLine
 10
54.16293
 20
229.685266
 30
0.0
 11
52.16293
 21
229.685266
 31
0.0
  0
LINE
  5
2FB
330
70
100
AcDbEntity
  8
Visible
100
AcDbLine
 10
54.16293
 20
227.654173
 30
0.0
 11
52.16293
 21
227.654173
 31
0.0
  0
LINE
  5
2FC
330
70
100
AcDbEntity
  8
Visible
100
AcDbLine
 10
54.16293
 20
212.874173
 30
0.0
 11
52.16293
 21
212.874173
 31
0.0
  0
LINE
  5
2FD
330
70
100
AcDbEntity
  8
Visible
100
AcDbLine
 10
54.16293
 20
210.843079
 30
0.0
 11
52.16293
 21
210.843079
 31
0.0
  0
LINE
  5
2FE
330
70
100
AcDbEntity
  8
Visible
100
AcDbLine
 10
54.16293
 20
208.685266
 30
0.0
 11
52.16293
 21
208.685266
 31
0.0
  0
LINE
  5
2FF
330
70
100
AcDbEntity
  8
Visible
100
AcDbLine
 10
65.275003
 20
206.814173
 30
0.0
 11
55.66293
 21
206.814173
 31
0.0
  0
ARC
  5
300
330
70
100
AcDbEntity
  8
Visible
100
AcDbCircle
 10
-65.275003
 20
208.314173
 30
0.0
 40
1.499999999999772
210
0.0
220
0.0
230
-1.0
100
AcDbArc
 50
180.0
 51
270.0
  0
LINE
  5
301
330
70
100
AcDbEntity
  8
Visible
100
AcDbLine
 10
66.775003
 20
232.214173
 30
0.0
 11
66.775003
 21
208.314173
 31
0.0
  0
CIRCLE
  5
302
330
70
100
AcDbEntity
  8
Visible
100
AcDbCircle
 10
-101.837759
 20
263.264173
 30
0.0
 40
1.299999999999954
210
0.0
220
0.0
230
-1.0
  0
CIRCLE
  5
303
330
70
100
AcDbEntity
  8
Visible
100
AcDbCircle
 10
-101.837759
 20
177.264173
 30
0.0
 40
1.299999999999954
210
0.0
220
0.0
230
-1.0
  0
CIRCLE
  5
304
330
70
100
AcDbEntity
  8
Visible
100
AcDbCircle
 10
-58.393673
 20
238.324173
 30
0.0
 40
1.60000000000025
210
0.0
220
0.0
230
-1.0
  0
CIRCLE
  5
305
330
70
100
AcDbEntity
  8
Visible
100
AcDbCircle
 10
-101.087759
 20
220.264173
 30
0.0
 40
1.025000000000204
210
0.0
220
0.0
230
-1.0
  0
CIRCLE
  5
306
330
70
100
AcDbEntity
  8
Visible
100
AcDbCircle
 10
-69.170919
 20
196.86422
 30
0.0
 40
1.025000000000204
210
0.0
220
0.0
230
-1.0
  0
CIRCLE
  5
307
330
70
100
AcDbEntity
  8
Visible
100
AcDbCircle
 10
-58.393673
 20
202.204173
 30
0.0
 40
1.60000000000025
210
0.0
220
0.0
230
-1.0
  0
CIRCLE
  5
308
330
70
100
AcDbEntity
  8
Visible
100
AcDbCircle
 10
-69.170919
 20
243.664126
 30
0.0
 40
1.025000000000204
210
0.0
220
0.0
230
-1.0
  0
ARC
  5
309
330
70
100
AcDbEntity
  8
Visible
100
AcDbCircle
 10
102.053259
 20
241.31089
 30
0.0
 40
2.15999999999997
100
AcDbArc
 50
54.1575
 51
93.570872
  0
ARC
  5
30A
330
70
100
AcDbEntity
  8
Visible
100
AcDbCircle
 10
-104.547741
 20
244.764173
 30
0.0
 40
2.100000000000079
210
0.0
220
0.0
230
-1.0
100
AcDbArc
 50
270.0
 51
305.8425
  0
LINE
  5
30B
330
70
100
AcDbEntity
  8
Visible
100
AcDbLine
 10
118.197759
 20
242.664173
 30
0.0
 11
104.547741
 21
242.664173
 31
0.0
  0
ARC
  5
30C
330
70
100
AcDbEntity
  8
Visible
100
AcDbCircle
 10
-118.197759
 20
244.764173
 30
0.0
 40
2.099999999998658
210
0.0
220
0.0
230
-1.0
100
AcDbArc
 50
90.0
 51
270.0
  0
LINE
  5
30D
330
70
100
AcDbEntity
  8
Visible
100
AcDbLine
 10
104.547741
 20
246.864173
 30
0.0
 11
118.197759
 21
246.864173
 31
0.0
  0
ARC
  5
30E
330
70
100
AcDbEntity
  8
Visible
100
AcDbCircle
 10
-104.547741
 20
244.764173
 30
0.0
 40
2.100000000000095
210
0.0
220
0.0
230
-1.0
100
AcDbArc
 50
54.1575
 51
90.0
  0
ARC
  5
30F
330
70
100
AcDbEntity
  8
Visible
100
AcDbCircle
 10
102.053259
 20
248.217455
 30
0.0
 40
2.159999999999971
100
AcDbArc
 50
266.429128
 51
305.8425
  0
ARC
  5
310
330
70
100
AcDbEntity
  8
Visible
100
AcDbCircle
 10
-101.837759
 20
244.764173
 30
0.0
 40
1.300000000000078
210
0.0
220
0.0
230
-1.0
100
AcDbArc
 50
266.429128
 51
93.570872
  0
CIRCLE
  5
311
330
70
100
AcDbEntity
  8
Visible
100
AcDbCircle
 10
-159.837759
 20
263.264173
 30
0.0
 40
1.299999999999954
210
0.0
220
0.0
230
-1.0
  0
ARC
  5
312
330
70
100
AcDbEntity
  8
Visible
100
AcDbCircle
 10
-149.146759
 20
205.273173
 30
0.0
 40
0.3690000000000282
210
0.0
220
0.0
230
-1.0
100
AcDbArc
 50
270.0
 51
0.0
  0
LINE
  5
313
330
70
100
AcDbEntity
  8
Visible
100
AcDbLine
 10
161.128759
 20
204.904173
 30
0.0
 11
149.146759
 21
204.904173
 31
0.0
  0
ARC
  5
314
330
70
100
AcDbEntity
  8
Visible
100
AcDbCircle
 10
-161.128759
 20
205.273173
 30
0.0
 40
0.3690000000000282
210
0.0
220
0.0
230
-1.0
100
AcDbArc
 50
180.0
 51
270.0
  0
LINE
  5
315
330
70
100
AcDbEntity
  8
Visible
100
AcDbLine
 10
161.497759
 20
237.255173
 30
0.0
 11
161.497759
 21
205.273173
 31
0.0
  0
ARC
  5
316
330
70
100
AcDbEntity
  8
Visible
100
AcDbCircle
 10
-161.128759
 20
237.255173
 30
0.0
 40
0.3690000000000282
210
0.0
220
0.0
230
-1.0
100
AcDbArc
 50
90.0
 51
180.0
  0
LINE
  5
317
330
70
100
AcDbEntity
  8
Visible
100
AcDbLine
 10
153.646759
 20
237.624173
 30
0.0
 11
161.128759
 21
237.624173
 31
0.0
  0
ARC
  5
318
330
70
100
AcDbEntity
  8
Visible
100
AcDbCircle
 10
-153.646759
 20
237.255173
 30
0.0
 40
0.3690000000000282
210
0.0
220
0.0
230
-1.0
100
AcDbArc
 50
0.0
 51
90.0
  0
LINE
  5
319
330
70
100
AcDbEntity
  8
Visible
100
AcDbLine
 10
153.277759
 20
235.993173
 30
0.0
 11
153.277759
 21
237.255173
 31
0.0
  0
ARC
  5
31A
330
70
100
AcDbEntity
  8
Visible
100
AcDbCircle
 10
152.908759
 20
235.993173
 30
0.0
 40
0.3690000000000282
100
AcDbArc
 50
270.0
 51
0.0
  0
LINE
  5
31B
330
70
100
AcDbEntity
  8
Visible
100
AcDbLine
 10
149.146759
 20
235.624173
 30
0.0
 11
152.908759
 21
235.624173
 31
0.0
  0
ARC
  5
31C
330
70
100
AcDbEntity
  8
Visible
100
AcDbCircle
 10
-149.146759
 20
235.255173
 30
0.0
 40
0.3690000000000282
210
0.0
220
0.0
230
-1.0
100
AcDbArc
 50
0.0
 51
90.0
  0
LINE
  5
31D
330
70
100
AcDbEntity
  8
Visible
100
AcDbLine
 10
148.777759
 20
205.273173
 30
0.0
 11
148.777759
 21
235.255173
 31
0.0
  0
ARC
  5
31E
330
70
100
AcDbEntity
  8
Visible
100
AcDbCircle
 10
-110.087759
 20
203.264173
 30
0.0
 40
1.599999999999924
210
0.0
220
0.0
230
-1.0
100
AcDbArc
 50
164.517258
 51
62.52916
  0
ARC
  5
31F
330
70
100
AcDbEntity
  8
Visible
100
AcDbCircle
 10
111.985306
 20
203.789794
 30
0.0
 40
0.3689999999999511
100
AcDbArc
 50
71.530647
 51
195.482742
  0
ARC
  5
320
330
70
100
AcDbEntity
  8
Visible
100
AcDbCircle
 10
-117.487759
 20
220.264173
 30
0.0
 40
16.99999999999381
210
0.0
220
0.0
230
-1.0
100
AcDbArc
 50
240.0
 51
288.469353
  0
ARC
  5
321
330
70
100
AcDbEntity
  8
Visible
100
AcDbCircle
 10
-124.862759
 20
207.490298
 30
0.0
 40
2.249999999998479
210
0.0
220
0.0
230
-1.0
100
AcDbArc
 50
60.0
 51
240.0
  0
ARC
  5
322
330
70
100
AcDbEntity
  8
Visible
100
AcDbCircle
 10
117.487759
 20
220.264173
 30
0.0
 40
12.49999999999787
100
AcDbArc
 50
240.0
 51
300.0
  0
ARC
  5
323
330
70
100
AcDbEntity
  8
Visible
100
AcDbCircle
 10
-110.112759
 20
207.490298
 30
0.0
 40
2.249999999998521
210
0.0
220
0.0
230
-1.0
100
AcDbArc
 50
300.0
 51
120.0
  0
ARC
  5
324
330
70
100
AcDbEntity
  8
Visible
100
AcDbCircle
 10
-117.487759
 20
220.264173
 30
0.0
 40
16.9999999999935
210
0.0
220
0.0
230
-1.0
100
AcDbArc
 50
298.577066
 51
300.0
  0
ARC
  5
325
330
70
100
AcDbEntity
  8
Visible
100
AcDbCircle
 10
109.179465
 20
205.01116
 30
0.0
 40
0.3690000000000317
100
AcDbArc
 50
297.47084
 51
61.422934
  0
ARC
  5
326
330
70
100
AcDbEntity
  8
Visible
100
AcDbCircle
 10
140.442259
 20
241.31089
 30
0.0
 40
2.160000000000006
100
AcDbArc
 50
86.429128
 51
125.8425
  0
ARC
  5
327
330
70
100
AcDbEntity
  8
Visible
100
AcDbCircle
 10
-140.657759
 20
244.764173
 30
0.0
 40
1.300000000000149
210
0.0
220
0.0
230
-1.0
100
AcDbArc
 50
86.429128
 51
273.570872
  0
ARC
  5
328
330
70
100
AcDbEntity
  8
Visible
100
AcDbCircle
 10
140.442259
 20
248.217455
 30
0.0
 40
2.160000000000224
100
AcDbArc
 50
234.1575
 51
273.570872
  0
ARC
  5
329
330
70
100
AcDbEntity
  8
Visible
100
AcDbCircle
 10
-137.947778
 20
244.764173
 30
0.0
 40
2.099999999999795
210
0.0
220
0.0
230
-1.0
100
AcDbArc
 50
90.0
 51
125.8425
  0
LINE
  5
32A
330
70
100
AcDbEntity
  8
Visible
100
AcDbLine
 10
124.297759
 20
246.864173
 30
0.0
 11
137.947778
 21
246.864173
 31
0.0
  0
ARC
  5
32B
330
70
100
AcDbEntity
  8
Visible
100
AcDbCircle
 10
-124.297759
 20
244.764173
 30
0.0
 40
2.100000000000079
210
0.0
220
0.0
230
-1.0
100
AcDbArc
 50
270.0
 51
90.0
  0
LINE
  5
32C
330
70
100
AcDbEntity
  8
Visible
100
AcDbLine
 10
137.947778
 20
242.664173
 30
0.0
 11
124.297759
 21
242.664173
 31
0.0
  0
ARC
  5
32D
330
70
100
AcDbEntity
  8
Visible
100
AcDbCircle
 10
-137.947778
 20
244.764173
 30
0.0
 40
2.100000000000119
210
0.0
220
0.0
230
-1.0
100
AcDbArc
 50
234.1575
 51
270.0
  0
CIRCLE
  5
32E
330
70
100
AcDbEntity
  8
Visible
100
AcDbCircle
 10
-159.837759
 20
177.264173
 30
0.0
 40
1.299999999999954
210
0.0
220
0.0
230
-1.0
  0
LINE
  5
32F
330
70
100
AcDbEntity
  8
Visible
100
AcDbLine
 10
118.197759
 20
193.664173
 30
0.0
 11
104.547741
 21
193.664173
 31
0.0
  0
ARC
  5
330
330
70
100
AcDbEntity
  8
Visible
100
AcDbCircle
 10
-118.197759
 20
195.764173
 30
0.0
 40
2.099999999998658
210
0.0
220
0.0
230
-1.0
100
AcDbArc
 50
90.0
 51
270.0
  0
LINE
  5
331
330
70
100
AcDbEntity
  8
Visible
100
AcDbLine
 10
104.547741
 20
197.864173
 30
0.0
 11
118.197759
 21
197.864173
 31
0.0
  0
ARC
  5
332
330
70
100
AcDbEntity
  8
Visible
100
AcDbCircle
 10
-104.547741
 20
195.764173
 30
0.0
 40
2.100000000000068
210
0.0
220
0.0
230
-1.0
100
AcDbArc
 50
54.1575
 51
90.0
  0
ARC
  5
333
330
70
100
AcDbEntity
  8
Visible
100
AcDbCircle
 10
102.053259
 20
199.217455
 30
0.0
 40
2.160000000000006
100
AcDbArc
 50
266.429128
 51
305.8425
  0
ARC
  5
334
330
70
100
AcDbEntity
  8
Visible
100
AcDbCircle
 10
-101.837759
 20
195.764173
 30
0.0
 40
1.300000000000184
210
0.0
220
0.0
230
-1.0
100
AcDbArc
 50
266.429128
 51
93.570872
  0
ARC
  5
335
330
70
100
AcDbEntity
  8
Visible
100
AcDbCircle
 10
102.053259
 20
192.31089
 30
0.0
 40
2.160000000000455
100
AcDbArc
 50
54.1575
 51
93.570872
  0
ARC
  5
336
330
70
100
AcDbEntity
  8
Visible
100
AcDbCircle
 10
-104.547741
 20
195.764173
 30
0.0
 40
2.099999999999795
210
0.0
220
0.0
230
-1.0
100
AcDbArc
 50
270.0
 51
305.8425
  0
ARC
  5
337
330
70
100
AcDbEntity
  8
Visible
100
AcDbCircle
 10
-124.862759
 20
233.038048
 30
0.0
 40
2.249999999998414
210
0.0
220
0.0
230
-1.0
100
AcDbArc
 50
120.0
 51
300.0
  0
ARC
  5
338
330
70
100
AcDbEntity
  8
Visible
100
AcDbCircle
 10
-117.487759
 20
220.264173
 30
0.0
 40
16.99999999998442
210
0.0
220
0.0
230
-1.0
100
AcDbArc
 50
71.530647
 51
120.0
  0
ARC
  5
339
330
70
100
AcDbEntity
  8
Visible
100
AcDbCircle
 10
111.985306
 20
236.738552
 30
0.0
 40
0.3690000000001278
100
AcDbArc
 50
164.517258
 51
288.469353
  0
ARC
  5
33A
330
70
100
AcDbEntity
  8
Visible
100
AcDbCircle
 10
-110.087759
 20
237.264173
 30
0.0
 40
1.600000000000055
210
0.0
220
0.0
230
-1.0
100
AcDbArc
 50
297.47084
 51
195.482742
  0
ARC
  5
33B
330
70
100
AcDbEntity
  8
Visible
100
AcDbCircle
 10
109.179465
 20
235.517186
 30
0.0
 40
0.3690000000002071
100
AcDbArc
 50
298.577066
 51
62.52916
  0
ARC
  5
33C
330
70
100
AcDbEntity
  8
Visible
100
AcDbCircle
 10
-117.487759
 20
220.264173
 30
0.0
 40
16.99999999998398
210
0.0
220
0.0
230
-1.0
100
AcDbArc
 50
60.0
 51
61.422934
  0
ARC
  5
33D
330
70
100
AcDbEntity
  8
Visible
100
AcDbCircle
 10
-110.112759
 20
233.038048
 30
0.0
 40
2.249999999998348
210
0.0
220
0.0
230
-1.0
100
AcDbArc
 50
240.000001
 51
60.0
  0
ARC
  5
33E
330
70
100
AcDbEntity
  8
Visible
100
AcDbCircle
 10
117.487759
 20
220.264173
 30
0.0
 40
12.50000000000883
100
AcDbArc
 50
60.0
 51
120.0
  0
CIRCLE
  5
33F
330
70
100
AcDbEntity
  8
Visible
100
AcDbCircle
 10
-155.137759
 20
200.264173
 30
0.0
 40
1.60000000000025
210
0.0
220
0.0
230
-1.0
  0
CIRCLE
  5
340
330
70
100
AcDbEntity
  8
Visible
100
AcDbCircle
 10
-155.137759
 20
240.264173
 30
0.0
 40
1.60000000000025
210
0.0
220
0.0
230
-1.0
  0
CIRCLE
  5
341
330
70
100
AcDbEntity
  8
Visible
100
AcDbCircle
 10
-159.837759
 20
195.764173
 30
0.0
 40
1.299999999999386
210
0.0
220
0.0
230
-1.0
  0
CIRCLE
  5
342
330
70
100
AcDbEntity
  8
Visible
100
AcDbCircle
 10
-159.837759
 20
244.764173
 30
0.0
 40
1.299999999999386
210
0.0
220
0.0
230
-1.0
  0
CIRCLE
  5
343
330
70
100
AcDbEntity
  8
Visible
100
AcDbCircle
 10
-117.487759
 20
220.264173
 30
0.0
 40
3.000000000000113
210
0.0
220
0.0
230
-1.0
  0
ARC
  5
344
330
70
100
AcDbEntity
  8
Visible
100
AcDbCircle
 10
117.487759
 20
220.264173
 30
0.0
 40
12.5000000000013
100
AcDbArc
 50
330.0
 51
30.0
  0
ARC
  5
345
330
70
100
AcDbEntity
  8
Visible
100
AcDbCircle
 10
-130.261634
 20
212.889173
 30
0.0
 40
2.249999999998112
210
0.0
220
0.0
230
-1.0
100
AcDbArc
 50
210.000001
 51
30.0
  0
ARC
  5
346
330
70
100
AcDbEntity
  8
Visible
100
AcDbCircle
 10
-117.487759
 20
220.264173
 30
0.0
 40
17.00000000000243
210
0.0
220
0.0
230
-1.0
100
AcDbArc
 50
150.0
 51
210.0
  0
ARC
  5
347
330
70
100
AcDbEntity
  8
Visible
100
AcDbCircle
 10
-130.261634
 20
227.639173
 30
0.0
 40
2.249999999998112
210
0.0
220
0.0
230
-1.0
100
AcDbArc
 50
329.999999
 51
150.0
  0
LINE
  5
348
330
70
100
AcDbEntity
  8
Visible
100
AcDbLine
 10
137.947778
 20
193.664173
 30
0.0
 11
124.297759
 21
193.664173
 31
0.0
  0
ARC
  5
349
330
70
100
AcDbEntity
  8
Visible
100
AcDbCircle
 10
-137.947778
 20
195.764173
 30
0.0
 40
2.099999999999915
210
0.0
220
0.0
230
-1.0
100
AcDbArc
 50
234.1575
 51
270.0
  0
ARC
  5
34A
330
70
100
AcDbEntity
  8
Visible
100
AcDbCircle
 10
140.442259
 20
192.31089
 30
0.0
 40
2.159999999999971
100
AcDbArc
 50
86.429128
 51
125.8425
  0
ARC
  5
34B
330
70
100
AcDbEntity
  8
Visible
100
AcDbCircle
 10
-140.657759
 20
195.764173
 30
0.0
 40
1.300000000000077
210
0.0
220
0.0
230
-1.0
100
AcDbArc
 50
86.429128
 51
273.570872
  0
ARC
  5
34C
330
70
100
AcDbEntity
  8
Visible
100
AcDbCircle
 10
140.442259
 20
199.217455
 30
0.0
 40
2.159999999999917
100
AcDbArc
 50
234.1575
 51
273.570872
  0
ARC
  5
34D
330
70
100
AcDbEntity
  8
Visible
100
AcDbCircle
 10
-137.947778
 20
195.764173
 30
0.0
 40
2.100000000000079
210
0.0
220
0.0
230
-1.0
100
AcDbArc
 50
90.0
 51
125.8425
  0
LINE
  5
34E
330
70
100
AcDbEntity
  8
Visible
100
AcDbLine
 10
124.297759
 20
197.864173
 30
0.0
 11
137.947778
 21
197.864173
 31
0.0
  0
ARC
  5
34F
330
70
100
AcDbEntity
  8
Visible
100
AcDbCircle
 10
-124.297759
 20
195.764173
 30
0.0
 40
2.100000000000079
210
0.0
220
0.0
230
-1.0
100
AcDbArc
 50
270.0
 51
90.0
  0
CIRCLE
  5
350
330
70
100
AcDbEntity
  8
Visible
100
AcDbCircle
 10
-144.087759
 20
203.264173
 30
0.0
 40
1.60000000000025
210
0.0
220
0.0
230
-1.0
  0
ARC
  5
351
330
70
100
AcDbEntity
  8
Visible
100
AcDbCircle
 10
73.820785
 20
223.138018
 30
0.0
 40
0.4999999999996757
100
AcDbArc
 50
331.381578
 51
81.311583
  0
ARC
  5
352
330
70
100
AcDbEntity
  8
Visible
100
AcDbCircle
 10
-79.087759
 20
220.264173
 30
0.0
 40
5.499999999999623
210
0.0
220
0.0
230
-1.0
100
AcDbArc
 50
331.381578
 51
28.618422
  0
ARC
  5
353
330
70
100
AcDbEntity
  8
Visible
100
AcDbCircle
 10
73.820785
 20
217.390328
 30
0.0
 40
0.5000000000001414
100
AcDbArc
 50
278.688417
 51
28.618422
  0
ARC
  5
354
330
70
100
AcDbEntity
  8
Visible
100
AcDbCircle
 10
-74.138013
 20
215.314427
 30
0.0
 40
1.599999999999987
210
0.0
220
0.0
230
-1.0
100
AcDbArc
 50
188.688417
 51
81.311583
  0
ARC
  5
355
330
70
100
AcDbEntity
  8
Visible
100
AcDbCircle
 10
76.213914
 20
214.997199
 30
0.0
 40
0.4999999999999291
100
AcDbArc
 50
61.381578
 51
171.311583
  0
ARC
  5
356
330
70
100
AcDbEntity
  8
Visible
100
AcDbCircle
 10
-79.087759
 20
220.264173
 30
0.0
 40
5.499999999999984
210
0.0
220
0.0
230
-1.0
100
AcDbArc
 50
241.381578
 51
298.618422
  0
ARC
  5
357
330
70
100
AcDbEntity
  8
Visible
100
AcDbCircle
 10
81.961604
 20
214.997199
 30
0.0
 40
0.5000000000000555
100
AcDbArc
 50
8.688417
 51
118.618422
  0
ARC
  5
358
330
70
100
AcDbEntity
  8
Visible
100
AcDbCircle
 10
-84.037505
 20
215.314427
 30
0.0
 40
1.599999999999966
210
0.0
220
0.0
230
-1.0
100
AcDbArc
 50
98.688417
 51
351.311583
  0
ARC
  5
359
330
70
100
AcDbEntity
  8
Visible
100
AcDbCircle
 10
84.354733
 20
217.390328
 30
0.0
 40
0.4999999999996757
100
AcDbArc
 50
151.381578
 51
261.311583
  0
ARC
  5
35A
330
70
100
AcDbEntity
  8
Visible
100
AcDbCircle
 10
-79.087759
 20
220.264173
 30
0.0
 40
5.499999999999714
210
0.0
220
0.0
230
-1.0
100
AcDbArc
 50
151.381578
 51
208.618422
  0
ARC
  5
35B
330
70
100
AcDbEntity
  8
Visible
100
AcDbCircle
 10
84.354733
 20
223.138018
 30
0.0
 40
0.500000000000079
100
AcDbArc
 50
98.688417
 51
208.618422
  0
ARC
  5
35C
330
70
100
AcDbEntity
  8
Visible
100
AcDbCircle
 10
-84.037505
 20
225.213919
 30
0.0
 40
1.599999999999901
210
0.0
220
0.0
230
-1.0
100
AcDbArc
 50
8.688417
 51
261.311583
  0
ARC
  5
35D
330
70
100
AcDbEntity
  8
Visible
100
AcDbCircle
 10
81.961604
 20
225.531147
 30
0.0
 40
0.4999999999998607
100
AcDbArc
 50
241.381578
 51
351.311583
  0
ARC
  5
35E
330
70
100
AcDbEntity
  8
Visible
100
AcDbCircle
 10
-79.087759
 20
220.264173
 30
0.0
 40
5.499999999999984
210
0.0
220
0.0
230
-1.0
100
AcDbArc
 50
61.381578
 51
118.618422
  0
ARC
  5
35F
330
70
100
AcDbEntity
  8
Visible
100
AcDbCircle
 10
76.213914
 20
225.531147
 30
0.0
 40
0.5000000000000555
100
AcDbArc
 50
188.688417
 51
298.618422
  0
ARC
  5
360
330
70
100
AcDbEntity
  8
Visible
100
AcDbCircle
 10
-74.138013
 20
225.213919
 30
0.0
 40
1.599999999999771
210
0.0
220
0.0
230
-1.0
100
AcDbArc
 50
278.688417
 51
171.311583
  0
CIRCLE
  5
361
330
70
100
AcDbEntity
  8
Visible
100
AcDbCircle
 10
-144.087759
 20
237.264173
 30
0.0
 40
1.60000000000025
210
0.0
220
0.0
230
-1.0
  0
ARC
  5
362
330
70
100
AcDbEntity
  8
Visible
100
AcDbCircle
 10
158.709079
 20
175.264173
 30
0.0
 40
1.49999999999977
100
AcDbArc
 50
225.0
 51
270.0
  0
LINE
  5
363
330
70
100
AcDbEntity
  8
Visible
100
AcDbLine
 10
156.777099
 20
175.074833
 30
0.0
 11
157.648419
 21
174.203513
 31
0.0
  0
ARC
  5
364
330
70
100
AcDbEntity
  8
Visible
100
AcDbCircle
 10
157.837759
 20
176.135493
 30
0.0
 40
1.499999999999772
100
AcDbArc
 50
180.0
 51
225.0
  0
LINE
  5
365
330
70
100
AcDbEntity
  8
Visible
100
AcDbLine
 10
156.337759
 20
185.842852
 30
0.0
 11
156.337759
 21
176.135493
 31
0.0
  0
ARC
  5
366
330
70
100
AcDbEntity
  8
Visible
100
AcDbCircle
 10
-154.837759
 20
185.842852
 30
0.0
 40
1.499999999999772
210
0.0
220
0.0
230
-1.0
100
AcDbArc
 50
135.0
 51
180.0
  0
LINE
  5
367
330
70
100
AcDbEntity
  8
Visible
100
AcDbLine
 10
153.177099
 20
189.624833
 30
0.0
 11
155.898419
 21
186.903513
 31
0.0
  0
ARC
  5
368
330
70
100
AcDbEntity
  8
Visible
100
AcDbCircle
 10
-152.116439
 20
188.564173
 30
0.0
 40
1.499999999999972
210
0.0
220
0.0
230
-1.0
100
AcDbArc
 50
90.0
 51
135.0
  0
LINE
  5
369
330
70
100
AcDbEntity
  8
Visible
100
AcDbLine
 10
109.559079
 20
190.064173
 30
0.0
 11
152.116439
 21
190.064173
 31
0.0
  0
ARC
  5
36A
330
70
100
AcDbEntity
  8
Visible
100
AcDbCircle
 10
-109.559079
 20
188.564173
 30
0.0
 40
1.500000000000056
210
0.0
220
0.0
230
-1.0
100
AcDbArc
 50
45.0
 51
90.0
  0
LINE
  5
36B
330
70
100
AcDbEntity
  8
Visible
100
AcDbLine
 10
105.777099
 20
186.903513
 30
0.0
 11
108.498419
 21
189.624833
 31
0.0
  0
ARC
  5
36C
330
70
100
AcDbEntity
  8
Visible
100
AcDbCircle
 10
-106.837759
 20
185.842852
 30
0.0
 40
1.49999999999977
210
0.0
220
0.0
230
-1.0
100
AcDbArc
 50
0.0
 51
45.0
  0
LINE
  5
36D
330
70
100
AcDbEntity
  8
Visible
100
AcDbLine
 10
105.337759
 20
176.135493
 30
0.0
 11
105.337759
 21
185.842852
 31
0.0
  0
ARC
  5
36E
330
70
100
AcDbEntity
  8
Visible
100
AcDbCircle
 10
103.837759
 20
176.135493
 30
0.0
 40
1.499999999999972
100
AcDbArc
 50
315.0
 51
0.0
  0
LINE
  5
36F
330
70
100
AcDbEntity
  8
Visible
100
AcDbLine
 10
104.027099
 20
174.203513
 30
0.0
 11
104.898419
 21
175.074833
 31
0.0
  0
ARC
  5
370
330
70
100
AcDbEntity
  8
Visible
100
AcDbCircle
 10
102.966439
 20
175.264173
 30
0.0
 40
1.500000000000056
100
AcDbArc
 50
270.0
 51
315.0
  0
LINE
  5
371
330
70
100
AcDbEntity
  8
Visible
100
AcDbLine
 10
100.709079
 20
173.764173
 30
0.0
 11
102.966439
 21
173.764173
 31
0.0
  0
ARC
  5
372
330
70
100
AcDbEntity
  8
Visible
100
AcDbCircle
 10
100.709079
 20
175.264173
 30
0.0
 40
1.499999999999972
100
AcDbArc
 50
225.0
 51
270.0
  0
LINE
  5
373
330
70
100
AcDbEntity
  8
Visible
100
AcDbLine
 10
98.777099
 20
175.074833
 30
0.0
 11
99.648419
 21
174.203513
 31
0.0
  0
ARC
  5
374
330
70
100
AcDbEntity
  8
Visible
100
AcDbCircle
 10
99.837759
 20
176.135493
 30
0.0
 40
1.499999999999772
100
AcDbArc
 50
180.0
 51
225.0
  0
LINE
  5
375
330
70
100
AcDbEntity
  8
Visible
100
AcDbLine
 10
98.337759
 20
185.842852
 30
0.0
 11
98.337759
 21
176.135493
 31
0.0
  0
ARC
  5
376
330
70
100
AcDbEntity
  8
Visible
100
AcDbCircle
 10
-96.837759
 20
185.842852
 30
0.0
 40
1.499999999999772
210
0.0
220
0.0
230
-1.0
100
AcDbArc
 50
135.0
 51
180.0
  0
LINE
  5
377
330
70
100
AcDbEntity
  8
Visible
100
AcDbLine
 10
95.177099
 20
189.624833
 30
0.0
 11
97.898419
 21
186.903513
 31
0.0
  0
ARC
  5
378
330
70
100
AcDbEntity
  8
Visible
100
AcDbCircle
 10
-94.116439
 20
188.564173
 30
0.0
 40
1.499999999999972
210
0.0
220
0.0
230
-1.0
100
AcDbArc
 50
90.0
 51
135.0
  0
LINE
  5
379
330
70
100
AcDbEntity
  8
Visible
100
AcDbLine
 10
61.649614
 20
190.064173
 30
0.0
 11
94.116439
 21
190.064173
 31
0.0
  0
ARC
  5
37A
330
70
100
AcDbEntity
  8
Visible
100
AcDbCircle
 10
61.649614
 20
191.564173
 30
0.0
 40
1.499999999999972
100
AcDbArc
 50
225.0
 51
270.0
  0
ARC
  5
37B
330
70
100
AcDbEntity
  8
Visible
100
AcDbCircle
 10
61.649614
 20
248.964173
 30
0.0
 40
1.500000000000056
100
AcDbArc
 50
90.0
 51
135.0
  0
LINE
  5
37C
330
70
100
AcDbEntity
  8
Visible
100
AcDbLine
 10
94.116439
 20
250.464173
 30
0.0
 11
61.649614
 21
250.464173
 31
0.0
  0
ARC
  5
37D
330
70
100
AcDbEntity
  8
Visible
100
AcDbCircle
 10
-94.116439
 20
251.964173
 30
0.0
 40
1.500000000000056
210
0.0
220
0.0
230
-1.0
100
AcDbArc
 50
225.0
 51
270.0
  0
LINE
  5
37E
330
70
100
AcDbEntity
  8
Visible
100
AcDbLine
 10
97.898419
 20
253.624833
 30
0.0
 11
95.177099
 21
250.903513
 31
0.0
  0
ARC
  5
37F
330
70
100
AcDbEntity
  8
Visible
100
AcDbCircle
 10
-96.837759
 20
254.685493
 30
0.0
 40
1.500000000000373
210
0.0
220
0.0
230
-1.0
100
AcDbArc
 50
180.0
 51
225.0
  0
LINE
  5
380
330
70
100
AcDbEntity
  8
Visible
100
AcDbLine
 10
98.337759
 20
264.392852
 30
0.0
 11
98.337759
 21
254.685493
 31
0.0
  0
ARC
  5
381
330
70
100
AcDbEntity
  8
Visible
100
AcDbCircle
 10
99.837759
 20
264.392852
 30
0.0
 40
1.499999999999972
100
AcDbArc
 50
135.0
 51
180.0
  0
LINE
  5
382
330
70
100
AcDbEntity
  8
Visible
100
AcDbLine
 10
99.648419
 20
266.324833
 30
0.0
 11
98.777099
 21
265.453513
 31
0.0
  0
ARC
  5
383
330
70
100
AcDbEntity
  8
Visible
100
AcDbCircle
 10
100.709079
 20
265.264173
 30
0.0
 40
1.500000000000056
100
AcDbArc
 50
90.0
 51
135.0
  0
LINE
  5
384
330
70
100
AcDbEntity
  8
Visible
100
AcDbLine
 10
102.966439
 20
266.764173
 30
0.0
 11
100.709079
 21
266.764173
 31
0.0
  0
ARC
  5
385
330
70
100
AcDbEntity
  8
Visible
100
AcDbCircle
 10
102.966439
 20
265.264173
 30
0.0
 40
1.500000000000172
100
AcDbArc
 50
45.0
 51
90.0
  0
LINE
  5
386
330
70
100
AcDbEntity
  8
Visible
100
AcDbLine
 10
104.898419
 20
265.453513
 30
0.0
 11
104.027099
 21
266.324833
 31
0.0
  0
ARC
  5
387
330
70
100
AcDbEntity
  8
Visible
100
AcDbCircle
 10
103.837759
 20
264.392852
 30
0.0
 40
1.499999999999772
100
AcDbArc
 50
0.0
 51
45.0
  0
LINE
  5
388
330
70
100
AcDbEntity
  8
Visible
100
AcDbLine
 10
105.337759
 20
254.685493
 30
0.0
 11
105.337759
 21
264.392852
 31
0.0
  0
ARC
  5
389
330
70
100
AcDbEntity
  8
Visible
100
AcDbCircle
 10
-106.837759
 20
254.685493
 30
0.0
 40
1.499999999999772
210
0.0
220
0.0
230
-1.0
100
AcDbArc
 50
315.0
 51
0.0
  0
LINE
  5
38A
330
70
100
AcDbEntity
  8
Visible
100
AcDbLine
 10
108.498419
 20
250.903513
 30
0.0
 11
105.777099
 21
253.624833
 31
0.0
  0
ARC
  5
38B
330
70
100
AcDbEntity
  8
Visible
100
AcDbCircle
 10
-109.559079
 20
251.964173
 30
0.0
 40
1.499999999999972
210
0.0
220
0.0
230
-1.0
100
AcDbArc
 50
270.0
 51
315.0
  0
LINE
  5
38C
330
70
100
AcDbEntity
  8
Visible
100
AcDbLine
 10
152.116439
 20
250.464173
 30
0.0
 11
109.559079
 21
250.464173
 31
0.0
  0
ARC
  5
38D
330
70
100
AcDbEntity
  8
Visible
100
AcDbCircle
 10
-152.116439
 20
251.964173
 30
0.0
 40
1.500000000000056
210
0.0
220
0.0
230
-1.0
100
AcDbArc
 50
225.0
 51
270.0
  0
LINE
  5
38E
330
70
100
AcDbEntity
  8
Visible
100
AcDbLine
 10
155.898419
 20
253.624833
 30
0.0
 11
153.177099
 21
250.903513
 31
0.0
  0
ARC
  5
38F
330
70
100
AcDbEntity
  8
Visible
100
AcDbCircle
 10
-154.837759
 20
254.685493
 30
0.0
 40
1.499999999999972
210
0.0
220
0.0
230
-1.0
100
AcDbArc
 50
180.0
 51
225.0
  0
LINE
  5
390
330
70
100
AcDbEntity
  8
Visible
100
AcDbLine
 10
156.337759
 20
264.392852
 30
0.0
 11
156.337759
 21
254.685493
 31
0.0
  0
ARC
  5
391
330
70
100
AcDbEntity
  8
Visible
100
AcDbCircle
 10
157.837759
 20
264.392852
 30
0.0
 40
1.500000000000172
100
AcDbArc
 50
135.0
 51
180.0
  0
LINE
  5
392
330
70
100
AcDbEntity
  8
Visible
100
AcDbLine
 10
157.648419
 20
266.324833
 30
0.0
 11
156.777099
 21
265.453513
 31
0.0
  0
ARC
  5
393
330
70
100
AcDbEntity
  8
Visible
100
AcDbCircle
 10
158.709079
 20
265.264173
 30
0.0
 40
1.500000000000056
100
AcDbArc
 50
90.0
 51
135.0
  0
LINE
  5
394
330
70
100
AcDbEntity
  8
Visible
100
AcDbLine
 10
160.966439
 20
266.764173
 30
0.0
 11
158.709079
 21
266.764173
 31
0.0
  0
ARC
  5
395
330
70
100
AcDbEntity
  8
Visible
100
AcDbCircle
 10
160.966439
 20
265.264173
 30
0.0
 40
1.500000000000172
100
AcDbArc
 50
45.0
 51
90.0
  0
LINE
  5
396
330
70
100
AcDbEntity
  8
Visible
100
AcDbLine
 10
162.898419
 20
265.453513
 30
0.0
 11
162.027099
 21
266.324833
 31
0.0
  0
ARC
  5
397
330
70
100
AcDbEntity
  8
Visible
100
AcDbCircle
 10
161.837759
 20
264.392852
 30
0.0
 40
1.499999999999772
100
AcDbArc
 50
0.0
 51
45.0
  0
LINE
  5
398
330
70
100
AcDbEntity
  8
Visible
100
AcDbLine
 10
163.337759
 20
254.685493
 30
0.0
 11
163.337759
 21
264.392852
 31
0.0
  0
ARC
  5
399
330
70
100
AcDbEntity
  8
Visible
100
AcDbCircle
 10
-164.837759
 20
254.685493
 30
0.0
 40
1.499999999999772
210
0.0
220
0.0
230
-1.0
100
AcDbArc
 50
315.0
 51
0.0
  0
LINE
  5
39A
330
70
100
AcDbEntity
  8
Visible
100
AcDbLine
 10
166.44277
 20
250.959162
 30
0.0
 11
163.777099
 21
253.624833
 31
0.0
  0
ARC
  5
39B
330
70
100
AcDbEntity
  8
Visible
100
AcDbCircle
 10
165.247759
 20
249.764152
 30
0.0
 40
1.689999999999827
100
AcDbArc
 50
0.0
 51
45.0
  0
LINE
  5
39C
330
70
100
AcDbEntity
  8
Visible
100
AcDbLine
 10
166.937759
 20
190.764194
 30
0.0
 11
166.937759
 21
249.764152
 31
0.0
  0
ARC
  5
39D
330
70
100
AcDbEntity
  8
Visible
100
AcDbCircle
 10
165.247759
 20
190.764194
 30
0.0
 40
1.689999999999862
100
AcDbArc
 50
315.0
 51
0.0
  0
LINE
  5
39E
330
70
100
AcDbEntity
  8
Visible
100
AcDbLine
 10
163.777099
 20
186.903513
 30
0.0
 11
166.44277
 21
189.569183
 31
0.0
  0
ARC
  5
39F
330
70
100
AcDbEntity
  8
Visible
100
AcDbCircle
 10
-164.837759
 20
185.842852
 30
0.0
 40
1.49999999999977
210
0.0
220
0.0
230
-1.0
100
AcDbArc
 50
0.0
 51
45.0
  0
LINE
  5
3A0
330
70
100
AcDbEntity
  8
Visible
100
AcDbLine
 10
163.337759
 20
176.135493
 30
0.0
 11
163.337759
 21
185.842852
 31
0.0
  0
ARC
  5
3A1
330
70
100
AcDbEntity
  8
Visible
100
AcDbCircle
 10
161.837759
 20
176.135493
 30
0.0
 40
1.49999999999977
100
AcDbArc
 50
315.0
 51
0.0
  0
LINE
  5
3A2
330
70
100
AcDbEntity
  8
Visible
100
AcDbLine
 10
162.027099
 20
174.203513
 30
0.0
 11
162.898419
 21
175.074833
 31
0.0
  0
ARC
  5
3A3
330
70
100
AcDbEntity
  8
Visible
100
AcDbCircle
 10
160.966439
 20
175.264173
 30
0.0
 40
1.500000000000056
100
AcDbArc
 50
270.0
 51
315.0
  0
LINE
  5
3A4
330
70
100
AcDbEntity
  8
Visible
100
AcDbLine
 10
158.709079
 20
173.764173
 30
0.0
 11
160.966439
 21
173.764173
 31
0.0
  0
LINE
  5
3A5
330
70
100
AcDbEntity
  8
Visible
100
AcDbLine
 10
54.16293
 20
231.921595
 30
0.0
 11
52.16293
 21
231.921595
 31
0.0
  0
LINE
  5
3A6
330
70
100
AcDbEntity
  8
Visible
100
AcDbLine
 10
54.16293
 20
229.604113
 30
0.0
 11
52.16293
 21
229.604113
 31
0.0
  0
LINE
  5
3A7
330
70
100
AcDbEntity
  8
Visible
100
AcDbLine
 10
54.16293
 20
210.924233
 30
0.0
 11
52.16293
 21
210.924233
 31
0.0
  0
LINE
  5
3A8
330
70
100
AcDbEntity
  8
Visible
100
AcDbLine
 10
54.16293
 20
208.606751
 30
0.0
 11
52.16293
 21
208.606751
 31
0.0
  0
LINE
  5
3A9
330
70
100
AcDbEntity
  8
Visible
100
AcDbLine
 10
53.51018
 20
197.822628
 30
0.0
 11
52.830612
 21
197.822628
 31
0.0
  0
LINE
  5
3AA
330
70
100
AcDbEntity
  8
Visible
100
AcDbLine
 10
52.830612
 20
242.705718
 30
0.0
 11
53.51018
 21
242.705718
 31
0.0
  0
ENDSEC
  0
SECTION
  2
OBJECTS
  0
DICTIONARY
  5
C
330
0
100
AcDbDictionary
281
     1
  3
ACAD_COLOR
350
63
  3
ACAD_DETAILVIEWSTYLE
350
6A
  3
ACAD_GROUP
350
D
  3
ACAD_LAYOUT
350
62
  3
ACAD_MATERIAL
350
10
  3
ACAD_MLEADERSTYLE
350
66
  3
ACAD_MLINESTYLE
350
5F
  3
ACAD_PLOTSETTINGS
350
61
  3
ACAD_PLOTSTYLENAME
350
E
  3
ACAD_SCALELIST
350
42
  3
ACAD_SECTIONVIEWSTYLE
350
68
  3
ACAD_TABLESTYLE
350
64
  3
ACAD_VISUALSTYLE
350
29
  3
ACDB_RECOMPOSE_DATA
350
3B4
  3
AcDbVariableDictionary
350
3AB
  0
DICTIONARY
  5
A4
330
70
100
AcDbDictionary
280
     1
281
     1
  3
ACAD_SORTENTS
360
A5
  0
DICTIONARY
  5
1FF
330
1FE
100
AcDbDictionary
280
     1
281
     1
  3
ACAD_SORTENTS
360
25E
  0
DICTIONARY
  5
215
330
214
100
AcDbDictionary
280
     1
281
     1
  3
ACAD_SORTENTS
360
25F
  0
DICTIONARY
  5
230
330
22F
100
AcDbDictionary
280
     1
281
     1
  0
DICTIONARY
  5
232
330
231
100
AcDbDictionary
280
     1
281
     1
  0
DICTIONARY
  5
234
330
233
100
AcDbDictionary
280
     1
281
     1
  0
DICTIONARY
  5
236
330
235
100
AcDbDictionary
280
     1
281
     1
  0
DICTIONARY
  5
238
330
237
100
AcDbDictionary
280
     1
281
     1
  0
DICTIONARY
  5
23A
330
239
100
AcDbDictionary
280
     1
281
     1
  0
DICTIONARY
  5
23C
330
23B
100
AcDbDictionary
280
     1
281
     1
  0
DICTIONARY
  5
23E
330
23D
100
AcDbDictionary
280
     1
281
     1
  0
DICTIONARY
  5
240
330
23F
100
AcDbDictionary
280
     1
281
     1
  0
DICTIONARY
  5
242
330
241
100
AcDbDictionary
280
     1
281
     1
  0
DICTIONARY
  5
244
330
243
100
AcDbDictionary
280
     1
281
     1
  0
DICTIONARY
  5
246
330
245
100
AcDbDictionary
280
     1
281
     1
  0
DICTIONARY
  5
248
330
247
100
AcDbDictionary
280
     1
281
     1
  0
DICTIONARY
  5
24A
330
249
100
AcDbDictionary
280
     1
281
     1
  0
DICTIONARY
  5
24C
330
24B
100
AcDbDictionary
280
     1
281
     1
  0
DICTIONARY
  5
63
102
{ACAD_REACTORS
330
C
102
}
330
C
100
AcDbDictionary
281
     1
  0
DICTIONARY
  5
6A
102
{ACAD_REACTORS
330
C
102
}
330
C
100
AcDbDictionary
281
     1
  3
Imperial24
350
6B
  0
DICTIONARY
  5
D
102
{ACAD_REACTORS
330
C
102
}
330
C
100
AcDbDictionary
281
     1
  0
DICTIONARY
  5
62
102
{ACAD_REACTORS
330
C
102
}
330
C
100
AcDbDictionary
281
     1
  3
Model
350
73
  3
1
350
6F
  3
2
350
77
  0
DICTIONARY
  5
10
102
{ACAD_REACTORS
330
C
102
}
330
C
100
AcDbDictionary
281
     1
  3
ByBlock
350
19
  3
ByLayer
350
11
  3
Global
350
21
  0
DICTIONARY
  5
66
102
{ACAD_REACTORS
330
C
102
}
330
C
100
AcDbDictionary
281
     1
  3
Standard
350
67
  0
DICTIONARY
  5
5F
102
{ACAD_REACTORS
330
C
102
}
330
C
100
AcDbDictionary
281
     1
  3
Standard
350
60
  0
DICTIONARY
  5
61
102
{ACAD_REACTORS
330
C
102
}
330
C
100
AcDbDictionary
281
     1
  0
ACDBDICTIONARYWDFLT
  5
E
102
{ACAD_REACTORS
330
C
102
}
330
C
100
AcDbDictionary
281
     1
  3
Normal
350
F
100
AcDbDictionaryWithDefault
340
F
  0
DICTIONARY
  5
42
102
{ACAD_REACTORS
330
C
102
}
330
C
100
AcDbDictionary
281
     1
  3
A0
350
43
  3
A1
350
44
  3
A2
350
45
  3
A3
350
46
  3
A4
350
47
  3
A5
350
48
  3
A6
350
49
  3
A7
350
4A
  3
A8
350
4B
  3
A9
350
4C
  3
B0
350
4D
  3
B1
350
4E
  3
B2
350
4F
  3
B3
350
50
  3
B4
350
51
  3
B5
350
52
  3
B6
350
53
  0
DICTIONARY
  5
68
102
{ACAD_REACTORS
330
C
102
}
330
C
100
AcDbDictionary
281
     1
  3
Imperial24
350
69
  0
DICTIONARY
  5
64
102
{ACAD_REACTORS
330
C
102
}
330
C
100
AcDbDictionary
281
     1
  3
Standard
350
65
  0
DICTIONARY
  5
29
102
{ACAD_REACTORS
330
C
102
}
330
C
100
AcDbDictionary
281
     1
  3
2dWireframe
350
2F
  3
Basic
350
2E
  3
Brighten
350
35
  3
ColorChange
350
39
  3
Conceptual
350
32
  3
Dim
350
34
  3
EdgeColorOff
350
41
  3
Facepattern
350
38
  3
Flat
350
2A
  3
FlatWithEdges
350
2B
  3
Gouraud
350
2C
  3
GouraudWithEdges
350
2D
  3
Hidden
350
31
  3
JitterOff
350
3F
  3
Linepattern
350
37
  3
OverhangOff
350
40
  3
Realistic
350
33
  3
Shaded
350
3E
  3
Shaded with edges
350
3D
  3
Shades of Gray
350
3A
  3
Sketchy
350
3B
  3
Thicken
350
36
  3
Wireframe
350
30
  3
X-Ray
350
3C
  0
XRECORD
  5
3B4
102
{ACAD_REACTORS
330
C
102
}
330
C
100
AcDbXrecord
280
     1
 90
        1
330
65
  0
DICTIONARY
  5
3AB
102
{ACAD_REACTORS
330
C
102
}
330
C
100
AcDbDictionary
281
     1
  3
ANNOALLVISIBLE
350
3B0
  3
CANNOSCALE
350
3B1
  3
CMLEADERSTYLE
350
3AD
  3
CTABLESTYLE
350
3AC
  3
CVIEWDETAILSTYLE
350
3AE
  3
CVIEWSECTIONSTYLE
350
3AF
  0
SORTENTSTABLE
  5
A5
102
{ACAD_REACTORS
330
A4
102
}
330
A4
100
AcDbSortentsTable
330
70
  0
SORTENTSTABLE
  5
25E
102
{ACAD_REACTORS
330
1FF
102
}
330
1FF
100
AcDbSortentsTable
330
1FE
  0
SORTENTSTABLE
  5
25F
102
{ACAD_REACTORS
330
215
102
}
330
215
100
AcDbSortentsTable
330
214
  0
ACDBDETAILVIEWSTYLE
  5
6B
102
{ACAD_XDICTIONARY
360
3B7
102
}
102
{ACAD_REACTORS
330
6A
102
}
330
6A
100
AcDbModelDocViewStyle
 70
     0
  3
Imperial24
290
     0
100
AcDbDetailViewStyle
 70
     0
 71
     0
 90
        3
 71
     1
340
55
 62
   256
 40
0.24
340
0
 62
   256
 40
0.24
300

 40
0.36
280
     3
 71
     2
340
5D
 90
       25
 62
   256
 71
     3
340
55
 62
   256
 40
0.24
 90
        1
 40
0.75
 90
        1
300
%<\AcVar ViewType \f "%tc1">% %<\AcVar ViewDetailId>%\P %<\AcVar ViewScale \f "%sn">%
 71
     4
340
5D
 90
       25
 62
   256
340
5D
 90
       25
 62
   256
280
     0
  0
LAYOUT
  5
73
102
{ACAD_REACTORS
330
62
102
}
330
62
100
AcDbPlotSettings
  1

  2
AutoCAD PDF (High Quality Print).pc3
  4
ISO_full_bleed_A4_(210.00_x_297.00_MM)
  6

 40
0.0
 41
0.0
 42
0.0
 43
0.0
 44
210.0
 45
297.0
 46
0.0
 47
0.0
 48
0.0
 49
0.0
140
0.0
141
0.0
142
1.0
143
2.670689
 70
 11952
 72
     1
 73
     0
 74
     0
  7

 75
     0
147
0.374435
 76
     0
 77
     2
 78
   300
148
175.420046
149
8.014617
100
AcDbLayout
  1
Model
 70
     1
 71
     0
 10
0.0
 20
0.0
 11
12.0
 21
9.0
 12
0.0
 22
0.0
 32
0.0
 14
0.0
 24
0.0
 34
0.0
 15
0.0
 25
0.0
 35
0.0
146
0.0
 13
0.0
 23
0.0
 33
0.0
 16
1.0
 26
0.0
 36
0.0
 17
0.0
 27
1.0
 37
0.0
 76
     0
330
70
1001
ACAD_PSEXT
1000
AutoCAD PDF (High Quality Print).pc3
1000
DWG To PDF
1000

1000

1070
     0
  0
LAYOUT
  5
6F
102
{ACAD_REACTORS
330
62
102
}
330
62
100
AcDbPlotSettings
  1

  2
None
  4

  6

 40
0.0
 41
0.0
 42
0.0
 43
0.0
 44
0.0
 45
0.0
 46
0.0
 47
0.0
 48
0.0
 49
0.0
140
0.0
141
0.0
142
1.0
143
1.0
 70
   688
 72
     0
 73
     0
 74
     5
  7

 75
    16
147
1.0
 76
     0
 77
     2
 78
   300
148
0.0
149
0.0
100
AcDbLayout
  1
1
 70
     1
 71
     1
 10
0.0
 20
0.0
 11
12.0
 21
9.0
 12
0.0
 22
0.0
 32
0.0
 14
0.0
 24
0.0
 34
0.0
 15
0.0
 25
0.0
 35
0.0
146
0.0
 13
0.0
 23
0.0
 33
0.0
 16
1.0
 26
0.0
 36
0.0
 17
0.0
 27
1.0
 37
0.0
 76
     0
330
6C
  0
LAYOUT
  5
77
102
{ACAD_REACTORS
330
62
102
}
330
62
100
AcDbPlotSettings
  1

  2
None
  4

  6

 40
0.0
 41
0.0
 42
0.0
 43
0.0
 44
0.0
 45
0.0
 46
0.0
 47
0.0
 48
0.0
 49
0.0
140
0.0
141
0.0
142
1.0
143
1.0
 70
   688
 72
     0
 73
     0
 74
     5
  7

 75
    16
147
1.0
 76
     0
 77
     2
 78
   300
148
0.0
149
0.0
100
AcDbLayout
  1
2
 70
     1
 71
     2
 10
0.0
 20
0.0
 11
12.0
 21
9.0
 12
0.0
 22
0.0
 32
0.0
 14
0.0
 24
0.0
 34
0.0
 15
0.0
 25
0.0
 35
0.0
146
0.0
 13
0.0
 23
0.0
 33
0.0
 16
1.0
 26
0.0
 36
0.0
 17
0.0
 27
1.0
 37
0.0
 76
     0
330
74
  0
MATERIAL
  5
19
102
{ACAD_XDICTIONARY
360
1A
102
}
102
{ACAD_REACTORS
330
10
102
}
330
10
100
AcDbMaterial
  1
ByBlock
 72
     0
 43
0.020833
 43
0.0
 43
0.0
 43
0.0
 43
0.0
 43
0.020833
 43
0.0
 43
0.0
 43
0.0
 43
0.0
 43
1.0
 43
0.0
 43
0.0
 43
0.0
 43
0.0
 43
1.0
 77
     0
 47
0.020833
 47
0.0
 47
0.0
 47
0.0
 47
0.0
 47
0.020833
 47
0.0
 47
0.0
 47
0.0
 47
0.0
 47
1.0
 47
0.0
 47
0.0
 47
0.0
 47
0.0
 47
1.0
171
     0
 49
0.020833
 49
0.0
 49
0.0
 49
0.0
 49
0.0
 49
0.020833
 49
0.0
 49
0.0
 49
0.0
 49
0.0
 49
1.0
 49
0.0
 49
0.0
 49
0.0
 49
0.0
 49
1.0
175
     0
142
0.020833
142
0.0
142
0.0
142
0.0
142
0.0
142
0.020833
142
0.0
142
0.0
142
0.0
142
0.0
142
1.0
142
0.0
142
0.0
142
0.0
142
0.0
142
1.0
179
     0
144
0.020833
144
0.0
144
0.0
144
0.0
144
0.0
144
0.020833
144
0.0
144
0.0
144
0.0
144
0.0
144
1.0
144
0.0
144
0.0
144
0.0
144
0.0
144
1.0
147
0.020833
147
0.0
147
0.0
147
0.0
147
0.0
147
0.020833
147
0.0
147
0.0
147
0.0
147
0.0
147
1.0
147
0.0
147
0.0
147
0.0
147
0.0
147
1.0
  0
MATERIAL
  5
11
102
{ACAD_XDICTIONARY
360
12
102
}
102
{ACAD_REACTORS
330
10
102
}
330
10
100
AcDbMaterial
  1
ByLayer
 72
     0
 43
0.020833
 43
0.0
 43
0.0
 43
0.0
 43
0.0
 43
0.020833
 43
0.0
 43
0.0
 43
0.0
 43
0.0
 43
1.0
 43
0.0
 43
0.0
 43
0.0
 43
0.0
 43
1.0
 77
     0
 47
0.020833
 47
0.0
 47
0.0
 47
0.0
 47
0.0
 47
0.020833
 47
0.0
 47
0.0
 47
0.0
 47
0.0
 47
1.0
 47
0.0
 47
0.0
 47
0.0
 47
0.0
 47
1.0
171
     0
 49
0.020833
 49
0.0
 49
0.0
 49
0.0
 49
0.0
 49
0.020833
 49
0.0
 49
0.0
 49
0.0
 49
0.0
 49
1.0
 49
0.0
 49
0.0
 49
0.0
 49
0.0
 49
1.0
175
     0
142
0.020833
142
0.0
142
0.0
142
0.0
142
0.0
142
0.020833
142
0.0
142
0.0
142
0.0
142
0.0
142
1.0
142
0.0
142
0.0
142
0.0
142
0.0
142
1.0
179
     0
144
0.020833
144
0.0
144
0.0
144
0.0
144
0.0
144
0.020833
144
0.0
144
0.0
144
0.0
144
0.0
144
1.0
144
0.0
144
0.0
144
0.0
144
0.0
144
1.0
147
0.020833
147
0.0
147
0.0
147
0.0
147
0.0
147
0.020833
147
0.0
147
0.0
147
0.0
147
0.0
147
1.0
147
0.0
147
0.0
147
0.0
147
0.0
147
1.0
  0
MATERIAL
  5
21
102
{ACAD_XDICTIONARY
360
22
102
}
102
{ACAD_REACTORS
330
10
102
}
330
10
100
AcDbMaterial
  1
Global
 72
     0
 43
0.020833
 43
0.0
 43
0.0
 43
0.0
 43
0.0
 43
0.020833
 43
0.0
 43
0.0
 43
0.0
 43
0.0
 43
1.0
 43
0.0
 43
0.0
 43
0.0
 43
0.0
 43
1.0
 77
     0
 47
0.020833
 47
0.0
 47
0.0
 47
0.0
 47
0.0
 47
0.020833
 47
0.0
 47
0.0
 47
0.0
 47
0.0
 47
1.0
 47
0.0
 47
0.0
 47
0.0
 47
0.0
 47
1.0
171
     0
 49
0.020833
 49
0.0
 49
0.0
 49
0.0
 49
0.0
 49
0.020833
 49
0.0
 49
0.0
 49
0.0
 49
0.0
 49
1.0
 49
0.0
 49
0.0
 49
0.0
 49
0.0
 49
1.0
175
     0
142
0.020833
142
0.0
142
0.0
142
0.0
142
0.0
142
0.020833
142
0.0
142
0.0
142
0.0
142
0.0
142
1.0
142
0.0
142
0.0
142
0.0
142
0.0
142
1.0
179
     0
144
0.020833
144
0.0
144
0.0
144
0.0
144
0.0
144
0.020833
144
0.0
144
0.0
144
0.0
144
0.0
144
1.0
144
0.0
144
0.0
144
0.0
144
0.0
144
1.0
147
0.020833
147
0.0
147
0.0
147
0.0
147
0.0
147
0.020833
147
0.0
147
0.0
147
0.0
147
0.0
147
1.0
147
0.0
147
0.0
147
0.0
147
0.0
147
1.0
  0
MLEADERSTYLE
  5
67
102
{ACAD_REACTORS
330
66
102
}
330
66
100
AcDbMLeaderStyle
179
     2
170
     2
171
     1
172
     0
 90
        2
 40
0.0
 41
0.0
173
     1
 91
-1056964608
340
5B
 92
       -2
290
     1
 42
0.09
291
     1
 43
0.36
  3
Standard
 44
0.18
300

342
55
174
     1
178
     6
175
     1
176
     0
 93
-1056964608
 45
0.18
292
     0
297
     0
 46
0.18
 94
-1056964608
 47
1.0
 49
1.0
140
1.0
293
     1
141
0.0
294
     1
177
     0
142
1.0
295
     0
296
     0
143
0.125
271
     0
272
     9
273
     9
298
     1
  0
MLINESTYLE
  5
60
102
{ACAD_REACTORS
330
5F
102
}
330
5F
100
AcDbMlineStyle
  2
STANDARD
 70
     0
  3

 62
   256
 51
90.0
 52
90.0
 71
     0
  0
ACDBPLACEHOLDER
  5
F
102
{ACAD_REACTORS
330
E
102
}
330
E
  0
SCALE
  5
43
102
{ACAD_REACTORS
330
42
102
}
330
42
100
AcDbScale
 70
     0
300
1:1
140
1.0
141
1.0
290
     1
  0
SCALE
  5
44
102
{ACAD_REACTORS
330
42
102
}
330
42
100
AcDbScale
 70
     0
300
1:2
140
1.0
141
2.0
290
     0
  0
SCALE
  5
45
102
{ACAD_REACTORS
330
42
102
}
330
42
100
AcDbScale
 70
     0
300
1:4
140
1.0
141
4.0
290
     0
  0
SCALE
  5
46
102
{ACAD_REACTORS
330
42
102
}
330
42
100
AcDbScale
 70
     0
300
1:5
140
1.0
141
5.0
290
     0
  0
SCALE
  5
47
102
{ACAD_REACTORS
330
42
102
}
330
42
100
AcDbScale
 70
     0
300
1:8
140
1.0
141
8.0
290
     0
  0
SCALE
  5
48
102
{ACAD_REACTORS
330
42
102
}
330
42
100
AcDbScale
 70
     0
300
1:10
140
1.0
141
10.0
290
     0
  0
SCALE
  5
49
102
{ACAD_REACTORS
330
42
102
}
330
42
100
AcDbScale
 70
     0
300
1:16
140
1.0
141
16.0
290
     0
  0
SCALE
  5
4A
102
{ACAD_REACTORS
330
42
102
}
330
42
100
AcDbScale
 70
     0
300
1:20
140
1.0
141
20.0
290
     0
  0
SCALE
  5
4B
102
{ACAD_REACTORS
330
42
102
}
330
42
100
AcDbScale
 70
     0
300
1:30
140
1.0
141
30.0
290
     0
  0
SCALE
  5
4C
102
{ACAD_REACTORS
330
42
102
}
330
42
100
AcDbScale
 70
     0
300
1:40
140
1.0
141
40.0
290
     0
  0
SCALE
  5
4D
102
{ACAD_REACTORS
330
42
102
}
330
42
100
AcDbScale
 70
     0
300
1:50
140
1.0
141
50.0
290
     0
  0
SCALE
  5
4E
102
{ACAD_REACTORS
330
42
102
}
330
42
100
AcDbScale
 70
     0
300
1:100
140
1.0
141
100.0
290
     0
  0
SCALE
  5
4F
102
{ACAD_REACTORS
330
42
102
}
330
42
100
AcDbScale
 70
     0
300
2:1
140
2.0
141
1.0
290
     0
  0
SCALE
  5
50
102
{ACAD_REACTORS
330
42
102
}
330
42
100
AcDbScale
 70
     0
300
4:1
140
4.0
141
1.0
290
     0
  0
SCALE
  5
51
102
{ACAD_REACTORS
330
42
102
}
330
42
100
AcDbScale
 70
     0
300
8:1
140
8.0
141
1.0
290
     0
  0
SCALE
  5
52
102
{ACAD_REACTORS
330
42
102
}
330
42
100
AcDbScale
 70
     0
300
10:1
140
10.0
141
1.0
290
     0
  0
SCALE
  5
53
102
{ACAD_REACTORS
330
42
102
}
330
42
100
AcDbScale
 70
     0
300
100:1
140
100.0
141
1.0
290
     0
  0
ACDBSECTIONVIEWSTYLE
  5
69
102
{ACAD_XDICTIONARY
360
3B5
102
}
102
{ACAD_REACTORS
330
68
102
}
330
68
100
AcDbModelDocViewStyle
 70
     0
  3
Imperial24
290
     0
100
AcDbSectionViewStyle
 70
     0
 71
     0
 90
       78
 71
     1
340
55
 62
   256
 40
0.24
340
0
340
0
 62
   256
 40
0.24
300
I, O, Q, S, X, Z
 40
0.48
 90
        3
 40
0.18
 90
        1
 71
     2
340
5D
 90
       25
 62
   256
340
5D
 90
       50
 62
   256
 40
0.24
 40
0.0
 40
0.24
 71
     3
340
55
 62
   256
 40
0.24
 90
        1
 40
0.75
 90
        1
300
%<\AcVar ViewType \f "%tc1">% %<\AcVar ViewSectionStartId>%-%<\AcVar ViewSectionEndId>%\P %<\AcVar ViewScale \f "%sn">%
 71
     4
 62
   256
 62
   257
300
ANSI31
 40
1.0
 90
        0
290
     0
290
     0
 90
        6
 40
0.0
 40
1.570796
 40
0.261799
 40
1.308997
 40
-0.261799
 40
1.832596
  0
TABLESTYLE
  5
65
102
{ACAD_XDICTIONARY
360
3B2
102
}
102
{ACAD_REACTORS
330
64
102
}
330
64
100
AcDbTableStyle
280
     0
  3
Standard
 70
     0
 71
     0
 40
1.5
 41
1.5
280
     0
281
     0
  7
Standard
140
0.18
170
     2
 62
     0
 63
     7
283
     0
 90
      512
 91
        0
  1

274
    -2
284
     1
 64
     0
275
    -2
285
     1
 65
     0
276
    -2
286
     1
 66
     0
277
    -2
287
     1
 67
     0
278
    -2
288
     1
 68
     0
279
    -2
289
     1
 69
     0
  7
Standard
140
0.25
170
     5
 62
     0
 63
     7
283
     0
 90
      512
 91
        0
  1

274
    -2
284
     1
 64
     0
275
    -2
285
     1
 65
     0
276
    -2
286
     1
 66
     0
277
    -2
287
     1
 67
     0
278
    -2
288
     1
 68
     0
279
    -2
289
     1
 69
     0
  7
Standard
140
0.18
170
     5
 62
     0
 63
     7
283
     0
 90
      512
 91
        0
  1

274
    -2
284
     1
 64
     0
275
    -2
285
     1
 65
     0
276
    -2
286
     1
 66
     0
277
    -2
287
     1
 67
     0
278
    -2
288
     1
 68
     0
279
    -2
289
     1
 69
     0
  0
VISUALSTYLE
  5
2F
102
{ACAD_REACTORS
330
29
102
}
330
29
100
AcDbVisualStyle
  2
2dWireframe
 70
     4
177
     3
291
     0
 70
    58
 90
        0
176
     1
 90
        2
176
     1
 90
        0
176
     1
 90
        0
176
     1
 40
0.6
176
     1
 40
30.0
176
     1
 62
     7
420
 16777215
176
     1
 90
        1
176
     1
 90
        4
176
     1
 62
     7
176
     1
 62
   257
176
     1
 90
        1
176
     1
 90
        1
176
     1
 40
1.0
176
     1
 90
        0
176
     1
 62
   257
176
     1
 40
1.0
176
     1
 90
        1
176
     1
 90
        6
176
     1
 90
        2
176
     1
 62
     7
176
     1
 90
        5
176
     1
 90
        0
176
     1
 90
        0
176
     1
290
     0
176
     1
 90
        1
176
     1
 40
0.0
176
     1
 90
        0
176
     1
290
     1
176
     1
290
     1
176
     1
290
     0
176
     1
290
     0
176
     1
290
     0
176
     1
290
     0
176
     1
290
     0
176
     1
290
     0
176
     1
290
     0
176
     1
 90
       50
176
     1
 40
0.0
176
     1
 40
1.0
176
     1
 90
        0
176
     1
 62
    18
420
        0
176
     1
 90
       50
176
     1
 90
        3
176
     1
 62
     5
420
      255
176
     1
290
     0
176
     1
 90
       50
176
     1
 90
       50
176
     1
 90
       50
176
     1
290
     0
176
     1
 90
       50
176
     1
 62
   256
176
     0
 40
1.0
176
     0
 90
        2
176
     1
  1
strokes_ogs.tif
176
     1
290
     0
176
     1
 40
1.0
176
     1
 40
1.0
176
     1
1001
ACAD
1000
AcDbSavedByObjectVersion
1070
     0
  0
VISUALSTYLE
  5
2E
102
{ACAD_REACTORS
330
29
102
}
330
29
100
AcDbVisualStyle
  2
Basic
 70
     7
177
     3
291
     1
 70
    58
 90
        1
176
     1
 90
        0
176
     1
 90
        1
176
     1
 90
        0
176
     1
 40
0.6
176
     1
 40
30.0
176
     1
 62
     7
420
 16777215
176
     1
 90
        0
176
     1
 90
        4
176
     1
 62
     7
176
     1
 62
   257
176
     1
 90
        1
176
     1
 90
        1
176
     1
 40
1.0
176
     1
 90
        8
176
     1
 62
     7
176
     1
 40
1.0
176
     1
 90
        1
176
     1
 90
        6
176
     1
 90
        2
176
     1
 62
     7
176
     1
 90
        5
176
     1
 90
        0
176
     1
 90
        0
176
     1
290
     0
176
     1
 90
        1
176
     1
 40
0.0
176
     1
 90
        0
176
     1
290
     0
176
     1
290
     1
176
     1
290
     1
176
     1
290
     0
176
     1
290
     0
176
     1
290
     0
176
     1
290
     0
176
     1
290
     0
176
     1
290
     0
176
     1
 90
       50
176
     1
 40
0.0
176
     1
 40
1.0
176
     1
 90
        0
176
     1
 62
    18
420
        0
176
     1
 90
       50
176
     1
 90
        3
176
     1
 62
     5
420
      255
176
     1
290
     0
176
     1
 90
       50
176
     1
 90
       50
176
     1
 90
       50
176
     1
290
     0
176
     1
 90
       50
176
     1
 62
   256
176
     0
 40
1.0
176
     0
 90
        2
176
     1
  1
strokes_ogs.tif
176
     1
290
     0
176
     1
 40
1.0
176
     1
 40
1.0
176
     1
1001
ACAD
1000
AcDbSavedByObjectVersion
1070
     0
  0
VISUALSTYLE
  5
35
102
{ACAD_REACTORS
330
29
102
}
330
29
100
AcDbVisualStyle
  2
Brighten
 70
    12
177
     3
291
     1
 70
    58
 90
        2
176
     1
 90
        2
176
     1
 90
        0
176
     1
 90
        0
176
     1
 40
0.6
176
     1
 40
30.0
176
     1
 62
     7
420
 16777215
176
     1
 90
        1
176
     1
 90
        4
176
     1
 62
     7
176
     1
 62
   257
176
     1
 90
        1
176
     1
 90
        1
176
     1
 40
1.0
176
     1
 90
        8
176
     1
 62
     7
176
     1
 40
1.0
176
     1
 90
        1
176
     1
 90
        6
176
     1
 90
        2
176
     1
 62
     7
176
     1
 90
        5
176
     1
 90
        0
176
     1
 90
        0
176
     1
290
     0
176
     1
 90
        1
176
     1
 40
50.0
176
     1
 90
        0
176
     1
290
     0
176
     1
290
     1
176
     1
290
     1
176
     1
290
     0
176
     1
290
     0
176
     1
290
     0
176
     1
290
     0
176
     1
290
     0
176
     1
290
     0
176
     1
 90
       50
176
     1
 40
0.0
176
     1
 40
1.0
176
     1
 90
        0
176
     1
 62
    18
420
        0
176
     1
 90
       50
176
     1
 90
        3
176
     1
 62
     5
420
      255
176
     1
290
     0
176
     1
 90
       50
176
     1
 90
       50
176
     1
 90
       50
176
     1
290
     0
176
     1
 90
       50
176
     1
 62
   256
176
     0
 40
1.0
176
     0
 90
        2
176
     1
  1
strokes_ogs.tif
176
     1
290
     0
176
     1
 40
1.0
176
     1
 40
1.0
176
     1
1001
ACAD
1000
AcDbSavedByObjectVersion
1070
     0
  0
VISUALSTYLE
  5
39
102
{ACAD_REACTORS
330
29
102
}
330
29
100
AcDbVisualStyle
  2
ColorChange
 70
    16
177
     3
291
     1
 70
    58
 90
        2
176
     1
 90
        2
176
     1
 90
        3
176
     1
 90
        0
176
     1
 40
0.6
176
     1
 40
30.0
176
     1
 62
     8
420
  8421504
176
     1
 90
        1
176
     1
 90
        4
176
     1
 62
     7
176
     1
 62
   257
176
     1
 90
        1
176
     1
 90
        1
176
     1
 40
1.0
176
     1
 90
        8
176
     1
 62
     8
420
  8421504
176
     1
 40
1.0
176
     1
 90
        1
176
     1
 90
        6
176
     1
 90
        2
176
     1
 62
     7
176
     1
 90
        5
176
     1
 90
        0
176
     1
 90
        0
176
     1
290
     0
176
     1
 90
        1
176
     1
 40
0.0
176
     1
 90
        0
176
     1
290
     0
176
     1
290
     1
176
     1
290
     1
176
     1
290
     0
176
     1
290
     0
176
     1
290
     0
176
     1
290
     0
176
     1
290
     0
176
     1
290
     0
176
     1
 90
       50
176
     1
 40
0.0
176
     1
 40
1.0
176
     1
 90
        0
176
     1
 62
    18
420
        0
176
     1
 90
       50
176
     1
 90
        3
176
     1
 62
     5
420
      255
176
     1
290
     0
176
     1
 90
       50
176
     1
 90
       50
176
     1
 90
       50
176
     1
290
     0
176
     1
 90
       50
176
     1
 62
   256
176
     0
 40
1.0
176
     0
 90
        2
176
     1
  1
strokes_ogs.tif
176
     1
290
     0
176
     1
 40
1.0
176
     1
 40
1.0
176
     1
1001
ACAD
1000
AcDbSavedByObjectVersion
1070
     0
  0
VISUALSTYLE
  5
32
102
{ACAD_REACTORS
330
29
102
}
330
29
100
AcDbVisualStyle
  2
Conceptual
 70
     9
177
     3
291
     0
 70
    58
 90
        3
176
     1
 90
        2
176
     1
 90
        0
176
     1
 90
        0
176
     1
 40
0.6
176
     1
 40
30.0
176
     1
 62
     7
420
 16777215
176
     1
 90
        2
176
     1
 90
        2
176
     1
 62
     7
176
     1
 62
   257
176
     1
 90
        1
176
     1
 90
        1
176
     1
 40
179.0
176
     1
 90
        8
176
     1
 62
     7
176
     1
 40
1.0
176
     1
 90
        1
176
     1
 90
        6
176
     1
 90
        2
176
     1
 62
     7
176
     1
 90
        3
176
     1
 90
        0
176
     1
 90
        0
176
     1
290
     0
176
     1
 90
        1
176
     1
 40
0.0
176
     1
 90
        0
176
     1
290
     0
176
     1
290
     1
176
     1
290
     1
176
     1
290
     0
176
     1
290
     0
176
     1
290
     0
176
     1
290
     0
176
     1
290
     0
176
     1
290
     0
176
     1
 90
       50
176
     1
 40
0.0
176
     1
 40
1.0
176
     1
 90
        0
176
     1
 62
    18
420
        0
176
     1
 90
       50
176
     1
 90
        3
176
     1
 62
     5
420
      255
176
     1
290
     0
176
     1
 90
       50
176
     1
 90
       50
176
     1
 90
       50
176
     1
290
     0
176
     1
 90
       50
176
     1
 62
   256
176
     0
 40
1.0
176
     0
 90
        2
176
     1
  1
strokes_ogs.tif
176
     1
290
     0
176
     1
 40
1.0
176
     1
 40
1.0
176
     1
1001
ACAD
1000
AcDbSavedByObjectVersion
1070
     0
  0
VISUALSTYLE
  5
34
102
{ACAD_REACTORS
330
29
102
}
330
29
100
AcDbVisualStyle
  2
Dim
 70
    11
177
     3
291
     1
 70
    58
 90
        2
176
     1
 90
        2
176
     1
 90
        0
176
     1
 90
        0
176
     1
 40
0.6
176
     1
 40
30.0
176
     1
 62
     7
420
 16777215
176
     1
 90
        1
176
     1
 90
        4
176
     1
 62
     7
176
     1
 62
   257
176
     1
 90
        1
176
     1
 90
        1
176
     1
 40
1.0
176
     1
 90
        8
176
     1
 62
     7
176
     1
 40
1.0
176
     1
 90
        1
176
     1
 90
        6
176
     1
 90
        2
176
     1
 62
     7
176
     1
 90
        5
176
     1
 90
        0
176
     1
 90
        0
176
     1
290
     0
176
     1
 90
        1
176
     1
 40
-50.0
176
     1
 90
        0
176
     1
290
     0
176
     1
290
     1
176
     1
290
     1
176
     1
290
     0
176
     1
290
     0
176
     1
290
     0
176
     1
290
     0
176
     1
290
     0
176
     1
290
     0
176
     1
 90
       50
176
     1
 40
0.0
176
     1
 40
1.0
176
     1
 90
        0
176
     1
 62
    18
420
        0
176
     1
 90
       50
176
     1
 90
        3
176
     1
 62
     5
420
      255
176
     1
290
     0
176
     1
 90
       50
176
     1
 90
       50
176
     1
 90
       50
176
     1
290
     0
176
     1
 90
       50
176
     1
 62
   256
176
     0
 40
1.0
176
     0
 90
        2
176
     1
  1
strokes_ogs.tif
176
     1
290
     0
176
     1
 40
1.0
176
     1
 40
1.0
176
     1
1001
ACAD
1000
AcDbSavedByObjectVersion
1070
     0
  0
VISUALSTYLE
  5
41
102
{ACAD_REACTORS
330
29
102
}
330
29
100
AcDbVisualStyle
  2
EdgeColorOff
 70
    22
177
     3
291
     1
 70
    58
 90
        2
176
     0
 90
        2
176
     0
 90
        0
176
     0
 90
        0
176
     0
 40
0.6
176
     0
 40
30.0
176
     0
 62
     7
420
 16777215
176
     0
 90
        1
176
     0
 90
        4
176
     0
 62
     7
176
     0
 62
   257
176
     0
 90
        1
176
     0
 90
        1
176
     0
 40
1.0
176
     0
 90
        8
176
     2
 62
     7
176
     0
 40
1.0
176
     0
 90
        1
176
     0
 90
        6
176
     0
 90
        2
176
     0
 62
     7
176
     0
 90
        5
176
     0
 90
        0
176
     0
 90
        0
176
     0
290
     0
176
     0
 90
        1
176
     0
 40
0.0
176
     0
 90
        0
176
     0
290
     0
176
     0
290
     1
176
     0
290
     1
176
     0
290
     0
176
     0
290
     0
176
     0
290
     0
176
     0
290
     0
176
     0
290
     0
176
     0
290
     0
176
     0
 90
       50
176
     0
 40
0.0
176
     0
 40
1.0
176
     0
 90
        0
176
     0
 62
    18
420
        0
176
     0
 90
       50
176
     0
 90
        3
176
     0
 62
     5
420
      255
176
     0
290
     0
176
     0
 90
       50
176
     0
 90
       50
176
     0
 90
       50
176
     0
290
     0
176
     0
 90
       50
176
     0
 62
   256
176
     0
 40
1.0
176
     0
 90
        2
176
     0
  1
strokes_ogs.tif
176
     0
290
     0
176
     0
 40
1.0
176
     0
 40
1.0
176
     0
1001
ACAD
1000
AcDbSavedByObjectVersion
1070
     0
  0
VISUALSTYLE
  5
38
102
{ACAD_REACTORS
330
29
102
}
330
29
100
AcDbVisualStyle
  2
Facepattern
 70
    15
177
     3
291
     1
 70
    58
 90
        2
176
     1
 90
        2
176
     1
 90
        0
176
     1
 90
        0
176
     1
 40
0.6
176
     1
 40
30.0
176
     1
 62
     7
420
 16777215
176
     1
 90
        1
176
     1
 90
        4
176
     1
 62
     7
176
     1
 62
   257
176
     1
 90
        1
176
     1
 90
        1
176
     1
 40
1.0
176
     1
 90
        8
176
     1
 62
     7
176
     1
 40
1.0
176
     1
 90
        1
176
     1
 90
        6
176
     1
 90
        2
176
     1
 62
     7
176
     1
 90
        5
176
     1
 90
        0
176
     1
 90
        0
176
     1
290
     0
176
     1
 90
        1
176
     1
 40
0.0
176
     1
 90
        0
176
     1
290
     0
176
     1
290
     1
176
     1
290
     1
176
     1
290
     0
176
     1
290
     0
176
     1
290
     0
176
     1
290
     0
176
     1
290
     0
176
     1
290
     0
176
     1
 90
       50
176
     1
 40
0.0
176
     1
 40
1.0
176
     1
 90
        0
176
     1
 62
    18
420
        0
176
     1
 90
       50
176
     1
 90
        3
176
     1
 62
     5
420
      255
176
     1
290
     0
176
     1
 90
       50
176
     1
 90
       50
176
     1
 90
       50
176
     1
290
     0
176
     1
 90
       50
176
     1
 62
   256
176
     0
 40
1.0
176
     0
 90
        2
176
     1
  1
strokes_ogs.tif
176
     1
290
     0
176
     1
 40
1.0
176
     1
 40
1.0
176
     1
1001
ACAD
1000
AcDbSavedByObjectVersion
1070
     0
  0
VISUALSTYLE
  5
2A
102
{ACAD_REACTORS
330
29
102
}
330
29
100
AcDbVisualStyle
  2
Flat
 70
     0
177
     3
291
     1
 70
    58
 90
        2
176
     1
 90
        1
176
     1
 90
        1
176
     1
 90
        2
176
     1
 40
0.6
176
     1
 40
30.0
176
     1
 62
     7
420
 16777215
176
     1
 90
        0
176
     1
 90
        0
176
     1
 62
     7
176
     1
 62
   257
176
     1
 90
        1
176
     1
 90
        1
176
     1
 40
1.0
176
     1
 90
        8
176
     1
 62
     7
176
     1
 40
1.0
176
     1
 90
        1
176
     1
 90
        6
176
     1
 90
        2
176
     1
 62
     7
176
     1
 90
        5
176
     1
 90
        0
176
     1
 90
        0
176
     1
290
     0
176
     1
 90
       13
176
     1
 40
0.0
176
     1
 90
        0
176
     1
290
     0
176
     1
290
     1
176
     1
290
     1
176
     1
290
     0
176
     1
290
     0
176
     1
290
     0
176
     1
290
     0
176
     1
290
     0
176
     1
290
     0
176
     1
 90
       50
176
     1
 40
0.0
176
     1
 40
1.0
176
     1
 90
        0
176
     1
 62
    18
420
        0
176
     1
 90
       50
176
     1
 90
        3
176
     1
 62
     5
420
      255
176
     1
290
     0
176
     1
 90
       50
176
     1
 90
       50
176
     1
 90
       50
176
     1
290
     0
176
     1
 90
       50
176
     1
 62
   256
176
     0
 40
1.0
176
     0
 90
        2
176
     1
  1
strokes_ogs.tif
176
     1
290
     0
176
     1
 40
1.0
176
     1
 40
1.0
176
     1
1001
ACAD
1000
AcDbSavedByObjectVersion
1070
     0
  0
VISUALSTYLE
  5
2B
102
{ACAD_REACTORS
330
29
102
}
330
29
100
AcDbVisualStyle
  2
FlatWithEdges
 70
     1
177
     3
291
     1
 70
    58
 90
        2
176
     1
 90
        1
176
     1
 90
        1
176
     1
 90
        2
176
     1
 40
0.6
176
     1
 40
30.0
176
     1
 62
     7
420
 16777215
176
     1
 90
        1
176
     1
 90
        0
176
     1
 62
     7
176
     1
 62
   257
176
     1
 90
        1
176
     1
 90
        1
176
     1
 40
1.0
176
     1
 90
        0
176
     1
 62
   257
176
     1
 40
1.0
176
     1
 90
        1
176
     1
 90
        6
176
     1
 90
        2
176
     1
 62
     7
176
     1
 90
        5
176
     1
 90
        0
176
     1
 90
        0
176
     1
290
     0
176
     1
 90
       13
176
     1
 40
0.0
176
     1
 90
        0
176
     1
290
     0
176
     1
290
     1
176
     1
290
     1
176
     1
290
     0
176
     1
290
     0
176
     1
290
     0
176
     1
290
     0
176
     1
290
     0
176
     1
290
     0
176
     1
 90
       50
176
     1
 40
0.0
176
     1
 40
1.0
176
     1
 90
        0
176
     1
 62
    18
420
        0
176
     1
 90
       50
176
     1
 90
        3
176
     1
 62
     5
420
      255
176
     1
290
     0
176
     1
 90
       50
176
     1
 90
       50
176
     1
 90
       50
176
     1
290
     0
176
     1
 90
       50
176
     1
 62
   256
176
     0
 40
1.0
176
     0
 90
        2
176
     1
  1
strokes_ogs.tif
176
     1
290
     0
176
     1
 40
1.0
176
     1
 40
1.0
176
     1
1001
ACAD
1000
AcDbSavedByObjectVersion
1070
     0
  0
VISUALSTYLE
  5
2C
102
{ACAD_REACTORS
330
29
102
}
330
29
100
AcDbVisualStyle
  2
Gouraud
 70
     2
177
     3
291
     1
 70
    58
 90
        2
176
     1
 90
        2
176
     1
 90
        1
176
     1
 90
        2
176
     1
 40
0.6
176
     1
 40
30.0
176
     1
 62
     7
420
 16777215
176
     1
 90
        0
176
     1
 90
        0
176
     1
 62
     7
176
     1
 62
   257
176
     1
 90
        1
176
     1
 90
        1
176
     1
 40
1.0
176
     1
 90
        0
176
     1
 62
     7
176
     1
 40
1.0
176
     1
 90
        1
176
     1
 90
        6
176
     1
 90
        2
176
     1
 62
     7
176
     1
 90
        5
176
     1
 90
        0
176
     1
 90
        0
176
     1
290
     0
176
     1
 90
       13
176
     1
 40
0.0
176
     1
 90
        0
176
     1
290
     0
176
     1
290
     1
176
     1
290
     1
176
     1
290
     0
176
     1
290
     0
176
     1
290
     0
176
     1
290
     0
176
     1
290
     0
176
     1
290
     0
176
     1
 90
       50
176
     1
 40
0.0
176
     1
 40
1.0
176
     1
 90
        0
176
     1
 62
    18
420
        0
176
     1
 90
       50
176
     1
 90
        3
176
     1
 62
     5
420
      255
176
     1
290
     0
176
     1
 90
       50
176
     1
 90
       50
176
     1
 90
       50
176
     1
290
     0
176
     1
 90
       50
176
     1
 62
   256
176
     0
 40
1.0
176
     0
 90
        2
176
     1
  1
strokes_ogs.tif
176
     1
290
     0
176
     1
 40
1.0
176
     1
 40
1.0
176
     1
1001
ACAD
1000
AcDbSavedByObjectVersion
1070
     0
  0
VISUALSTYLE
  5
2D
102
{ACAD_REACTORS
330
29
102
}
330
29
100
AcDbVisualStyle
  2
GouraudWithEdges
 70
     3
177
     3
291
     1
 70
    58
 90
        2
176
     1
 90
        2
176
     1
 90
        1
176
     1
 90
        2
176
     1
 40
0.6
176
     1
 40
30.0
176
     1
 62
     7
420
 16777215
176
     1
 90
        1
176
     1
 90
        0
176
     1
 62
     7
176
     1
 62
   257
176
     1
 90
        1
176
     1
 90
        1
176
     1
 40
1.0
176
     1
 90
        0
176
     1
 62
   257
176
     1
 40
1.0
176
     1
 90
        1
176
     1
 90
        6
176
     1
 90
        2
176
     1
 62
     7
176
     1
 90
        5
176
     1
 90
        0
176
     1
 90
        0
176
     1
290
     0
176
     1
 90
       13
176
     1
 40
0.0
176
     1
 90
        0
176
     1
290
     0
176
     1
290
     1
176
     1
290
     1
176
     1
290
     0
176
     1
290
     0
176
     1
290
     0
176
     1
290
     0
176
     1
290
     0
176
     1
290
     0
176
     1
 90
       50
176
     1
 40
0.0
176
     1
 40
1.0
176
     1
 90
        0
176
     1
 62
    18
420
        0
176
     1
 90
       50
176
     1
 90
        3
176
     1
 62
     5
420
      255
176
     1
290
     0
176
     1
 90
       50
176
     1
 90
       50
176
     1
 90
       50
176
     1
290
     0
176
     1
 90
       50
176
     1
 62
   256
176
     0
 40
1.0
176
     0
 90
        2
176
     1
  1
strokes_ogs.tif
176
     1
290
     0
176
     1
 40
1.0
176
     1
 40
1.0
176
     1
1001
ACAD
1000
AcDbSavedByObjectVersion
1070
     0
  0
VISUALSTYLE
  5
31
102
{ACAD_REACTORS
330
29
102
}
330
29
100
AcDbVisualStyle
  2
Hidden
 70
     6
177
     3
291
     0
 70
    58
 90
        1
176
     1
 90
        2
176
     1
 90
        2
176
     1
 90
        0
176
     1
 40
0.6
176
     1
 40
30.0
176
     1
 62
     7
420
 16777215
176
     1
 90
        2
176
     1
 90
        2
176
     1
 62
     7
176
     1
 62
   257
176
     1
 90
        2
176
     1
 90
        1
176
     1
 40
40.0
176
     1
 90
        0
176
     1
 62
   257
176
     1
 40
1.0
176
     1
 90
        1
176
     1
 90
        6
176
     1
 90
        2
176
     1
 62
     7
176
     1
 90
        3
176
     1
 90
        0
176
     1
 90
        0
176
     1
290
     0
176
     1
 90
        1
176
     1
 40
0.0
176
     1
 90
        0
176
     1
290
     0
176
     1
290
     1
176
     1
290
     1
176
     1
290
     0
176
     1
290
     0
176
     1
290
     0
176
     1
290
     0
176
     1
290
     0
176
     1
290
     0
176
     1
 90
       50
176
     1
 40
0.0
176
     1
 40
1.0
176
     1
 90
        0
176
     1
 62
    18
420
        0
176
     1
 90
       50
176
     1
 90
        3
176
     1
 62
     5
420
      255
176
     1
290
     0
176
     1
 90
       50
176
     1
 90
       50
176
     1
 90
       50
176
     1
290
     0
176
     1
 90
       50
176
     1
 62
   256
176
     0
 40
1.0
176
     0
 90
        2
176
     1
  1
strokes_ogs.tif
176
     1
290
     0
176
     1
 40
1.0
176
     1
 40
1.0
176
     1
1001
ACAD
1000
AcDbSavedByObjectVersion
1070
     0
  0
VISUALSTYLE
  5
3F
102
{ACAD_REACTORS
330
29
102
}
330
29
100
AcDbVisualStyle
  2
JitterOff
 70
    20
177
     3
291
     1
 70
    58
 90
        2
176
     0
 90
        2
176
     0
 90
        0
176
     0
 90
        0
176
     0
 40
0.6
176
     0
 40
30.0
176
     0
 62
     7
420
 16777215
176
     0
 90
        1
176
     0
 90
        4
176
     0
 62
     7
176
     0
 62
   257
176
     0
 90
        1
176
     0
 90
        1
176
     0
 40
1.0
176
     0
 90
       10
176
     2
 62
     7
176
     0
 40
1.0
176
     0
 90
        1
176
     0
 90
        6
176
     0
 90
        2
176
     0
 62
     7
176
     0
 90
        5
176
     0
 90
        0
176
     0
 90
        0
176
     0
290
     0
176
     0
 90
        1
176
     0
 40
0.0
176
     0
 90
        0
176
     0
290
     0
176
     0
290
     1
176
     0
290
     1
176
     0
290
     0
176
     0
290
     0
176
     0
290
     0
176
     0
290
     0
176
     0
290
     0
176
     0
290
     0
176
     0
 90
       50
176
     0
 40
0.0
176
     0
 40
1.0
176
     0
 90
        0
176
     0
 62
    18
420
        0
176
     0
 90
       50
176
     0
 90
        3
176
     0
 62
     5
420
      255
176
     0
290
     0
176
     0
 90
       50
176
     0
 90
       50
176
     0
 90
       50
176
     0
290
     0
176
     0
 90
       50
176
     0
 62
   256
176
     0
 40
1.0
176
     0
 90
        2
176
     0
  1
strokes_ogs.tif
176
     0
290
     0
176
     0
 40
1.0
176
     0
 40
1.0
176
     0
1001
ACAD
1000
AcDbSavedByObjectVersion
1070
     0
  0
VISUALSTYLE
  5
37
102
{ACAD_REACTORS
330
29
102
}
330
29
100
AcDbVisualStyle
  2
Linepattern
 70
    14
177
     3
291
     1
 70
    58
 90
        2
176
     1
 90
        2
176
     1
 90
        0
176
     1
 90
        0
176
     1
 40
0.6
176
     1
 40
30.0
176
     1
 62
     7
420
 16777215
176
     1
 90
        1
176
     1
 90
        4
176
     1
 62
     7
176
     1
 62
   257
176
     1
 90
        7
176
     1
 90
        7
176
     1
 40
1.0
176
     1
 90
        8
176
     1
 62
     7
176
     1
 40
1.0
176
     1
 90
        1
176
     1
 90
        6
176
     1
 90
        2
176
     1
 62
     7
176
     1
 90
        5
176
     1
 90
        0
176
     1
 90
        0
176
     1
290
     0
176
     1
 90
        1
176
     1
 40
0.0
176
     1
 90
        0
176
     1
290
     0
176
     1
290
     1
176
     1
290
     1
176
     1
290
     0
176
     1
290
     0
176
     1
290
     0
176
     1
290
     0
176
     1
290
     0
176
     1
290
     0
176
     1
 90
       50
176
     1
 40
0.0
176
     1
 40
1.0
176
     1
 90
        0
176
     1
 62
    18
420
        0
176
     1
 90
       50
176
     1
 90
        3
176
     1
 62
     5
420
      255
176
     1
290
     0
176
     1
 90
       50
176
     1
 90
       50
176
     1
 90
       50
176
     1
290
     0
176
     1
 90
       50
176
     1
 62
   256
176
     0
 40
1.0
176
     0
 90
        2
176
     1
  1
strokes_ogs.tif
176
     1
290
     0
176
     1
 40
1.0
176
     1
 40
1.0
176
     1
1001
ACAD
1000
AcDbSavedByObjectVersion
1070
     0
  0
VISUALSTYLE
  5
40
102
{ACAD_REACTORS
330
29
102
}
330
29
100
AcDbVisualStyle
  2
OverhangOff
 70
    21
177
     3
291
     1
 70
    58
 90
        2
176
     0
 90
        2
176
     0
 90
        0
176
     0
 90
        0
176
     0
 40
0.6
176
     0
 40
30.0
176
     0
 62
     7
420
 16777215
176
     0
 90
        1
176
     0
 90
        4
176
     0
 62
     7
176
     0
 62
   257
176
     0
 90
        1
176
     0
 90
        1
176
     0
 40
1.0
176
     0
 90
        9
176
     2
 62
     7
176
     0
 40
1.0
176
     0
 90
        1
176
     0
 90
        6
176
     0
 90
        2
176
     0
 62
     7
176
     0
 90
        5
176
     0
 90
        0
176
     0
 90
        0
176
     0
290
     0
176
     0
 90
        1
176
     0
 40
0.0
176
     0
 90
        0
176
     0
290
     0
176
     0
290
     1
176
     0
290
     1
176
     0
290
     0
176
     0
290
     0
176
     0
290
     0
176
     0
290
     0
176
     0
290
     0
176
     0
290
     0
176
     0
 90
       50
176
     0
 40
0.0
176
     0
 40
1.0
176
     0
 90
        0
176
     0
 62
    18
420
        0
176
     0
 90
       50
176
     0
 90
        3
176
     0
 62
     5
420
      255
176
     0
290
     0
176
     0
 90
       50
176
     0
 90
       50
176
     0
 90
       50
176
     0
290
     0
176
     0
 90
       50
176
     0
 62
   256
176
     0
 40
1.0
176
     0
 90
        2
176
     0
  1
strokes_ogs.tif
176
     0
290
     0
176
     0
 40
1.0
176
     0
 40
1.0
176
     0
1001
ACAD
1000
AcDbSavedByObjectVersion
1070
     0
  0
VISUALSTYLE
  5
33
102
{ACAD_REACTORS
330
29
102
}
330
29
100
AcDbVisualStyle
  2
Realistic
 70
     8
177
     3
291
     0
 70
    58
 90
        2
176
     1
 90
        3
176
     1
 90
        0
176
     1
 90
        2
176
     1
 40
0.6
176
     1
 40
30.0
176
     1
 62
     7
420
 16777215
176
     1
 90
        0
176
     1
 90
        0
176
     1
 62
     7
176
     1
 62
   257
176
     1
 90
        1
176
     1
 90
        1
176
     1
 40
1.0
176
     1
 90
        8
176
     1
 62
   257
176
     1
 40
1.0
176
     1
 90
        1
176
     1
 90
        6
176
     1
 90
        2
176
     1
 62
     7
176
     1
 90
        3
176
     1
 90
        0
176
     1
 90
        0
176
     1
290
     0
176
     1
 90
       13
176
     1
 40
0.0
176
     1
 90
        0
176
     1
290
     0
176
     1
290
     1
176
     1
290
     1
176
     1
290
     0
176
     1
290
     0
176
     1
290
     0
176
     1
290
     0
176
     1
290
     0
176
     1
290
     0
176
     1
 90
       50
176
     1
 40
0.0
176
     1
 40
1.0
176
     1
 90
        0
176
     1
 62
    18
420
        0
176
     1
 90
       50
176
     1
 90
        3
176
     1
 62
     5
420
      255
176
     1
290
     0
176
     1
 90
       50
176
     1
 90
       50
176
     1
 90
       50
176
     1
290
     0
176
     1
 90
       50
176
     1
 62
   256
176
     0
 40
1.0
176
     0
 90
        2
176
     1
  1
strokes_ogs.tif
176
     1
290
     0
176
     1
 40
1.0
176
     1
 40
1.0
176
     1
1001
ACAD
1000
AcDbSavedByObjectVersion
1070
     0
  0
VISUALSTYLE
  5
3E
102
{ACAD_REACTORS
330
29
102
}
330
29
100
AcDbVisualStyle
  2
Shaded
 70
    27
177
     3
291
     0
 70
    58
 90
        2
176
     1
 90
        2
176
     1
 90
        1
176
     1
 90
        2
176
     1
 40
0.6
176
     1
 40
30.0
176
     1
 62
     7
420
 16777215
176
     1
 90
        0
176
     1
 90
        4
176
     1
 62
     7
176
     1
 62
   257
176
     1
 90
        1
176
     1
 90
        1
176
     1
 40
1.0
176
     1
 90
        8
176
     1
 62
   257
176
     1
 40
1.0
176
     1
 90
        1
176
     1
 90
        6
176
     1
 90
        2
176
     1
 62
     8
420
  7895160
176
     1
 90
        3
176
     1
 90
        0
176
     1
 90
        0
176
     1
290
     0
176
     1
 90
        5
176
     1
 40
0.0
176
     1
 90
        0
176
     1
290
     0
176
     1
290
     1
176
     1
290
     1
176
     1
290
     0
176
     1
290
     0
176
     1
290
     0
176
     1
290
     0
176
     1
290
     0
176
     1
290
     0
176
     1
 90
       50
176
     1
 40
0.0
176
     1
 40
1.0
176
     1
 90
        0
176
     1
 62
    18
420
        0
176
     1
 90
       50
176
     1
 90
        3
176
     1
 62
     5
420
      255
176
     1
290
     0
176
     1
 90
       50
176
     1
 90
       50
176
     1
 90
       50
176
     1
290
     0
176
     1
 90
       50
176
     1
 62
   256
176
     0
 40
1.0
176
     0
 90
        2
176
     1
  1
strokes_ogs.tif
176
     1
290
     0
176
     1
 40
1.0
176
     1
 40
1.0
176
     1
1001
ACAD
1000
AcDbSavedByObjectVersion
1070
     0
  0
VISUALSTYLE
  5
3D
102
{ACAD_REACTORS
330
29
102
}
330
29
100
AcDbVisualStyle
  2
Shaded with edges
 70
    26
177
     3
291
     0
 70
    58
 90
        2
176
     1
 90
        2
176
     1
 90
        1
176
     1
 90
        2
176
     1
 40
0.6
176
     1
 40
30.0
176
     1
 62
     7
420
 16777215
176
     1
 90
        1
176
     1
 90
        2
176
     1
 62
     7
176
     1
 62
   257
176
     1
 90
        2
176
     1
 90
        1
176
     1
 40
1.0
176
     1
 90
        8
176
     1
 62
   257
176
     1
 40
1.0
176
     1
 90
        1
176
     1
 90
        6
176
     1
 90
        2
176
     1
 62
     7
176
     1
 90
        3
176
     1
 90
        0
176
     1
 90
        0
176
     1
290
     0
176
     1
 90
        5
176
     1
 40
0.0
176
     1
 90
        0
176
     1
290
     0
176
     1
290
     1
176
     1
290
     1
176
     1
290
     0
176
     1
290
     0
176
     1
290
     0
176
     1
290
     0
176
     1
290
     0
176
     1
290
     0
176
     1
 90
       50
176
     1
 40
0.0
176
     1
 40
1.0
176
     1
 90
        0
176
     1
 62
    18
420
        0
176
     1
 90
       50
176
     1
 90
        3
176
     1
 62
     5
420
      255
176
     1
290
     0
176
     1
 90
       50
176
     1
 90
       50
176
     1
 90
       50
176
     1
290
     0
176
     1
 90
       50
176
     1
 62
   256
176
     0
 40
1.0
176
     0
 90
        2
176
     1
  1
strokes_ogs.tif
176
     1
290
     0
176
     1
 40
1.0
176
     1
 40
1.0
176
     1
1001
ACAD
1000
AcDbSavedByObjectVersion
1070
     0
  0
VISUALSTYLE
  5
3A
102
{ACAD_REACTORS
330
29
102
}
330
29
100
AcDbVisualStyle
  2
Shades of Gray
 70
    23
177
     3
291
     0
 70
    58
 90
        2
176
     1
 90
        2
176
     1
 90
        3
176
     1
 90
        0
176
     1
 40
0.6
176
     1
 40
30.0
176
     1
 62
     7
420
 16777215
176
     1
 90
        2
176
     1
 90
        2
176
     1
 62
     7
176
     1
 62
     7
176
     1
 90
        1
176
     1
 90
        1
176
     1
 40
40.0
176
     1
 90
        8
176
     1
 62
     7
176
     1
 40
1.0
176
     1
 90
        1
176
     1
 90
        6
176
     1
 90
        2
176
     1
 62
     7
176
     1
 90
        3
176
     1
 90
        0
176
     1
 90
        0
176
     1
290
     0
176
     1
 90
        1
176
     1
 40
0.0
176
     1
 90
        0
176
     1
290
     0
176
     1
290
     1
176
     1
290
     1
176
     1
290
     0
176
     1
290
     0
176
     1
290
     0
176
     1
290
     0
176
     1
290
     0
176
     1
290
     0
176
     1
 90
       50
176
     1
 40
0.0
176
     1
 40
1.0
176
     1
 90
        0
176
     1
 62
    18
420
        0
176
     1
 90
       50
176
     1
 90
        3
176
     1
 62
     5
420
      255
176
     1
290
     0
176
     1
 90
       50
176
     1
 90
       50
176
     1
 90
       50
176
     1
290
     0
176
     1
 90
       50
176
     1
 62
   256
176
     0
 40
1.0
176
     0
 90
        2
176
     1
  1
strokes_ogs.tif
176
     1
290
     0
176
     1
 40
1.0
176
     1
 40
1.0
176
     1
1001
ACAD
1000
AcDbSavedByObjectVersion
1070
     0
  0
VISUALSTYLE
  5
3B
102
{ACAD_REACTORS
330
29
102
}
330
29
100
AcDbVisualStyle
  2
Sketchy
 70
    24
177
     3
291
     0
 70
    58
 90
        1
176
     1
 90
        2
176
     1
 90
        2
176
     1
 90
        0
176
     1
 40
0.6
176
     1
 40
30.0
176
     1
 62
     7
420
 16777215
176
     1
 90
        2
176
     1
 90
        2
176
     1
 62
     7
176
     1
 62
     7
176
     1
 90
        1
176
     1
 90
        1
176
     1
 40
40.0
176
     1
 90
       11
176
     1
 62
     7
176
     1
 40
1.0
176
     1
 90
        1
176
     1
 90
        6
176
     1
 90
        2
176
     1
 62
     7
176
     1
 90
        6
176
     1
 90
        0
176
     1
 90
        0
176
     1
290
     0
176
     1
 90
        1
176
     1
 40
0.0
176
     1
 90
        0
176
     1
290
     0
176
     1
290
     1
176
     1
290
     1
176
     1
290
     0
176
     1
290
     0
176
     1
290
     0
176
     1
290
     0
176
     1
290
     0
176
     1
290
     0
176
     1
 90
       50
176
     1
 40
0.0
176
     1
 40
1.0
176
     1
 90
        0
176
     1
 62
    18
420
        0
176
     1
 90
       50
176
     1
 90
        3
176
     1
 62
     5
420
      255
176
     1
290
     0
176
     1
 90
       50
176
     1
 90
       50
176
     1
 90
       50
176
     1
290
     0
176
     1
 90
       50
176
     1
 62
   256
176
     0
 40
1.0
176
     0
 90
        2
176
     1
  1
strokes_ogs.tif
176
     1
290
     0
176
     1
 40
1.0
176
     1
 40
1.0
176
     1
1001
ACAD
1000
AcDbSavedByObjectVersion
1070
     0
  0
VISUALSTYLE
  5
36
102
{ACAD_REACTORS
330
29
102
}
330
29
100
AcDbVisualStyle
  2
Thicken
 70
    13
177
     3
291
     1
 70
    58
 90
        2
176
     1
 90
        2
176
     1
 90
        0
176
     1
 90
        0
176
     1
 40
0.6
176
     1
 40
30.0
176
     1
 62
     7
420
 16777215
176
     1
 90
        1
176
     1
 90
        4
176
     1
 62
     7
176
     1
 62
   257
176
     1
 90
        1
176
     1
 90
        1
176
     1
 40
1.0
176
     1
 90
       12
176
     1
 62
     7
176
     1
 40
1.0
176
     1
 90
        1
176
     1
 90
        6
176
     1
 90
        2
176
     1
 62
     7
176
     1
 90
        5
176
     1
 90
        0
176
     1
 90
        0
176
     1
290
     0
176
     1
 90
        1
176
     1
 40
0.0
176
     1
 90
        0
176
     1
290
     0
176
     1
290
     1
176
     1
290
     1
176
     1
290
     0
176
     1
290
     0
176
     1
290
     0
176
     1
290
     0
176
     1
290
     0
176
     1
290
     0
176
     1
 90
       50
176
     1
 40
0.0
176
     1
 40
1.0
176
     1
 90
        0
176
     1
 62
    18
420
        0
176
     1
 90
       50
176
     1
 90
        3
176
     1
 62
     5
420
      255
176
     1
290
     0
176
     1
 90
       50
176
     1
 90
       50
176
     1
 90
       50
176
     1
290
     0
176
     1
 90
       50
176
     1
 62
   256
176
     0
 40
1.0
176
     0
 90
        2
176
     1
  1
strokes_ogs.tif
176
     1
290
     0
176
     1
 40
1.0
176
     1
 40
1.0
176
     1
1001
ACAD
1000
AcDbSavedByObjectVersion
1070
     0
  0
VISUALSTYLE
  5
30
102
{ACAD_REACTORS
330
29
102
}
330
29
100
AcDbVisualStyle
  2
Wireframe
 70
     5
177
     3
291
     0
 70
    58
 90
        0
176
     1
 90
        2
176
     1
 90
        0
176
     1
 90
        0
176
     1
 40
0.6
176
     1
 40
30.0
176
     1
 62
     7
420
 16777215
176
     1
 90
        1
176
     1
 90
        4
176
     1
 62
     7
176
     1
 62
   257
176
     1
 90
        1
176
     1
 90
        1
176
     1
 40
1.0
176
     1
 90
        0
176
     1
 62
   257
176
     1
 40
1.0
176
     1
 90
        1
176
     1
 90
        6
176
     1
 90
        2
176
     1
 62
     7
176
     1
 90
        3
176
     1
 90
        0
176
     1
 90
        0
176
     1
290
     0
176
     1
 90
        1
176
     1
 40
0.0
176
     1
 90
        0
176
     1
290
     0
176
     1
290
     1
176
     1
290
     1
176
     1
290
     0
176
     1
290
     0
176
     1
290
     0
176
     1
290
     0
176
     1
290
     0
176
     1
290
     0
176
     1
 90
       50
176
     1
 40
0.0
176
     1
 40
1.0
176
     1
 90
        0
176
     1
 62
    18
420
        0
176
     1
 90
       50
176
     1
 90
        3
176
     1
 62
     5
420
      255
176
     1
290
     0
176
     1
 90
       50
176
     1
 90
       50
176
     1
 90
       50
176
     1
290
     0
176
     1
 90
       50
176
     1
 62
   256
176
     0
 40
1.0
176
     0
 90
        2
176
     1
  1
strokes_ogs.tif
176
     1
290
     0
176
     1
 40
1.0
176
     1
 40
1.0
176
     1
1001
ACAD
1000
AcDbSavedByObjectVersion
1070
     0
  0
VISUALSTYLE
  5
3C
102
{ACAD_REACTORS
330
29
102
}
330
29
100
AcDbVisualStyle
  2
X-Ray
 70
    25
177
     3
291
     0
 70
    58
 90
        2
176
     1
 90
        2
176
     1
 90
        1
176
     1
 90
        1
176
     1
 40
0.5
176
     1
 40
30.0
176
     1
 62
     7
420
 16777215
176
     1
 90
        1
176
     1
 90
        0
176
     1
 62
     7
176
     1
 62
   257
176
     1
 90
        1
176
     1
 90
        1
176
     1
 40
1.0
176
     1
 90
        8
176
     1
 62
     7
176
     1
 40
1.0
176
     1
 90
        1
176
     1
 90
        6
176
     1
 90
        2
176
     1
 62
     7
176
     1
 90
        3
176
     1
 90
        0
176
     1
 90
        0
176
     1
290
     0
176
     1
 90
       13
176
     1
 40
0.0
176
     1
 90
        0
176
     1
290
     0
176
     1
290
     1
176
     1
290
     1
176
     1
290
     0
176
     1
290
     0
176
     1
290
     0
176
     1
290
     0
176
     1
290
     0
176
     1
290
     0
176
     1
 90
       50
176
     1
 40
0.0
176
     1
 40
1.0
176
     1
 90
        0
176
     1
 62
    18
420
        0
176
     1
 90
       50
176
     1
 90
        3
176
     1
 62
     5
420
      255
176
     1
290
     0
176
     1
 90
       50
176
     1
 90
       50
176
     1
 90
       50
176
     1
290
     0
176
     1
 90
       50
176
     1
 62
   256
176
     0
 40
1.0
176
     0
 90
        2
176
     1
  1
strokes_ogs.tif
176
     1
290
     0
176
     1
 40
1.0
176
     1
 40
1.0
176
     1
1001
ACAD
1000
AcDbSavedByObjectVersion
1070
     0
  0
DICTIONARYVAR
  5
3B0
102
{ACAD_REACTORS
330
3AB
102
}
330
3AB
100
DictionaryVariables
280
     0
  1
0
  0
DICTIONARYVAR
  5
3B1
102
{ACAD_REACTORS
330
3AB
102
}
330
3AB
100
DictionaryVariables
280
     0
  1
1:1
  0
DICTIONARYVAR
  5
3AD
102
{ACAD_REACTORS
330
3AB
102
}
330
3AB
100
DictionaryVariables
280
     0
  1
STANDARD
  0
DICTIONARYVAR
  5
3AC
102
{ACAD_REACTORS
330
3AB
102
}
330
3AB
100
DictionaryVariables
280
     0
  1
STANDARD
  0
DICTIONARYVAR
  5
3AE
102
{ACAD_REACTORS
330
3AB
102
}
330
3AB
100
DictionaryVariables
280
     0
  1
Imperial24
  0
DICTIONARYVAR
  5
3AF
102
{ACAD_REACTORS
330
3AB
102
}
330
3AB
100
DictionaryVariables
280
     0
  1
Imperial24
  0
DICTIONARY
  5
3B7
330
6B
100
AcDbDictionary
280
     1
281
     1
  3
ACAD_XREC_ROUNDTRIP
360
3B8
  0
DICTIONARY
  5
1A
330
19
100
AcDbDictionary
280
     1
281
     1
  3
BUMPTILE
360
1C
  3
DIFFUSETILE
360
1B
  3
OPACITYTILE
360
1F
  3
REFLECTIONTILE
360
1E
  3
REFRACTIONTILE
360
20
  3
SPECULARTILE
360
1D
  0
DICTIONARY
  5
12
330
11
100
AcDbDictionary
280
     1
281
     1
  3
BUMPTILE
360
14
  3
DIFFUSETILE
360
13
  3
OPACITYTILE
360
17
  3
REFLECTIONTILE
360
16
  3
REFRACTIONTILE
360
18
  3
SPECULARTILE
360
15
  0
DICTIONARY
  5
22
330
21
100
AcDbDictionary
280
     1
281
     1
  3
BUMPTILE
360
24
  3
DIFFUSETILE
360
23
  3
OPACITYTILE
360
27
  3
REFLECTIONTILE
360
26
  3
REFRACTIONTILE
360
28
  3
SPECULARTILE
360
25
  0
DICTIONARY
  5
3B5
330
69
100
AcDbDictionary
280
     1
281
     1
  3
ACAD_XREC_ROUNDTRIP
360
3B6
  0
DICTIONARY
  5
3B2
330
65
100
AcDbDictionary
280
     1
281
     1
  3
ACAD_ROUNDTRIP_2008_TABLESTYLE_CELLSTYLEMAP
360
3B3
  0
XRECORD
  5
3B8
102
{ACAD_REACTORS
330
3B7
102
}
330
3B7
100
AcDbXrecord
280
     1
102
DISPLAYNAME
  1
Imperial24
102
FLAGS
 90
        0
  0
XRECORD
  5
1C
102
{ACAD_REACTORS
330
1A
102
}
330
1A
100
AcDbXrecord
280
     1
270
     1
271
     1
  0
XRECORD
  5
1B
102
{ACAD_REACTORS
330
1A
102
}
330
1A
100
AcDbXrecord
280
     1
270
     1
271
     1
  0
XRECORD
  5
1F
102
{ACAD_REACTORS
330
1A
102
}
330
1A
100
AcDbXrecord
280
     1
270
     1
271
     1
  0
XRECORD
  5
1E
102
{ACAD_REACTORS
330
1A
102
}
330
1A
100
AcDbXrecord
280
     1
270
     1
271
     1
  0
XRECORD
  5
20
102
{ACAD_REACTORS
330
1A
102
}
330
1A
100
AcDbXrecord
280
     1
270
     1
271
     1
  0
XRECORD
  5
1D
102
{ACAD_REACTORS
330
1A
102
}
330
1A
100
AcDbXrecord
280
     1
270
     1
271
     1
  0
XRECORD
  5
14
102
{ACAD_REACTORS
330
12
102
}
330
12
100
AcDbXrecord
280
     1
270
     1
271
     1
  0
XRECORD
  5
13
102
{ACAD_REACTORS
330
12
102
}
330
12
100
AcDbXrecord
280
     1
270
     1
271
     1
  0
XRECORD
  5
17
102
{ACAD_REACTORS
330
12
102
}
330
12
100
AcDbXrecord
280
     1
270
     1
271
     1
  0
XRECORD
  5
16
102
{ACAD_REACTORS
330
12
102
}
330
12
100
AcDbXrecord
280
     1
270
     1
271
     1
  0
XRECORD
  5
18
102
{ACAD_REACTORS
330
12
102
}
330
12
100
AcDbXrecord
280
     1
270
     1
271
     1
  0
XRECORD
  5
15
102
{ACAD_REACTORS
330
12
102
}
330
12
100
AcDbXrecord
280
     1
270
     1
271
     1
  0
XRECORD
  5
24
102
{ACAD_REACTORS
330
22
102
}
330
22
100
AcDbXrecord
280
     1
270
     1
271
     1
  0
XRECORD
  5
23
102
{ACAD_REACTORS
330
22
102
}
330
22
100
AcDbXrecord
280
     1
270
     1
271
     1
  0
XRECORD
  5
27
102
{ACAD_REACTORS
330
22
102
}
330
22
100
AcDbXrecord
280
     1
270
     1
271
     1
  0
XRECORD
  5
26
102
{ACAD_REACTORS
330
22
102
}
330
22
100
AcDbXrecord
280
     1
270
     1
271
     1
  0
XRECORD
  5
28
102
{ACAD_REACTORS
330
22
102
}
330
22
100
AcDbXrecord
280
     1
270
     1
271
     1
  0
XRECORD
  5
25
102
{ACAD_REACTORS
330
22
102
}
330
22
100
AcDbXrecord
280
     1
270
     1
271
     1
  0
XRECORD
  5
3B6
102
{ACAD_REACTORS
330
3B5
102
}
330
3B5
100
AcDbXrecord
280
     1
102
DISPLAYNAME
  1
Imperial24
102
FLAGS
 90
        0
  0
CELLSTYLEMAP
  5
3B3
102
{ACAD_REACTORS
330
3B2
102
}
330
3B2
100
AcDbCellStyleMap
 90
        3
300
CELLSTYLE
  1
TABLEFORMAT_BEGIN
 90
        5
170
     1
 91
        0
 92
    32768
 62
   257
 93
        1
300
CONTENTFORMAT
  1
CONTENTFORMAT_BEGIN
 90
        0
 91
        0
 92
      512
 93
        0
300

 40
0.0
140
1.0
 94
        5
 62
     0
340
55
144
0.25
309
CONTENTFORMAT_END
171
     1
301
MARGIN
  1
CELLMARGIN_BEGIN
 40
1.5
 40
1.5
 40
1.5
 40
1.5
 40
0.18
 40
0.18
309
CELLMARGIN_END
 94
        0
309
TABLEFORMAT_END
  1
CELLSTYLE_BEGIN
 90
        1
 91
        1
300
_TITLE
309
CELLSTYLE_END
300
CELLSTYLE
  1
TABLEFORMAT_BEGIN
 90
        5
170
     1
 91
        0
 92
        0
 62
   257
 93
        1
300
CONTENTFORMAT
  1
CONTENTFORMAT_BEGIN
 90
        0
 91
        0
 92
      512
 93
        0
300

 40
0.0
140
1.0
 94
        5
 62
     0
340
55
144
0.18
309
CONTENTFORMAT_END
171
     1
301
MARGIN
  1
CELLMARGIN_BEGIN
 40
1.5
 40
1.5
 40
1.5
 40
1.5
 40
0.18
 40
0.18
309
CELLMARGIN_END
 94
        0
309
TABLEFORMAT_END
  1
CELLSTYLE_BEGIN
 90
        2
 91
        1
300
_HEADER
309
CELLSTYLE_END
300
CELLSTYLE
  1
TABLEFORMAT_BEGIN
 90
        5
170
     1
 91
        0
 92
        0
 62
   257
 93
        1
300
CONTENTFORMAT
  1
CONTENTFORMAT_BEGIN
 90
        0
 91
        0
 92
      512
 93
        0
300

 40
0.0
140
1.0
 94
        2
 62
     0
340
55
144
0.18
309
CONTENTFORMAT_END
171
     1
301
MARGIN
  1
CELLMARGIN_BEGIN
 40
1.5
 40
1.5
 40
1.5
 40
1.5
 40
0.18
 40
0.18
309
CELLMARGIN_END
 94
        0
309
TABLEFORMAT_END
  1
CELLSTYLE_BEGIN
 90
        3
 91
        2
300
_DATA
309
CELLSTYLE_END
  0
ENDSEC
  0
EOF
